<svg xmlns="http://www.w3.org/2000/svg" viewBox="0 0 861.45 43.98"><defs><style>.cls-1{fill:none;stroke:#222221;stroke-linecap:round;stroke-linejoin:round;stroke-width:2.79px;}</style></defs><title>Asset 13</title><g id="Layer_2" data-name="Layer 2"><g id="Layer_1-2" data-name="Layer 1"><path class="cls-1" d="M859.74,38.18c1.09-10.35-1.09-23.2,0-33.55-19.87,0-71.92-.13-89.83-.62C675,1.41,547.67,3.73,413.47,3.6L210.79,3.4c-50.7,0-159,1.19-204.72,0-1.46,11.4,0,17.8,0,34.78,29.23,3.27,457,0,481.29,0C656.06,37.88,827.57,40.39,859.74,38.18Z"></path><path class="cls-1" d="M24.52,6.53,1.39,25.16"></path><path class="cls-1" d="M45.81,7.36c-15.69,9.75-29.46,19.5-41,30.82.63-.07,1.27.07,1.9,0"></path><path class="cls-1" d="M71.67,4.91C55.29,18,38.91,25.09,22.53,38.18"></path><path class="cls-1" d="M98.21,4.24C79.94,16.83,63.58,24.14,49.36,38.18"></path><path class="cls-1" d="M117.88,3.55c-16.25,11.5-31.16,22.12-44.62,34.63"></path><path class="cls-1" d="M135.15,4.38c-16.63,15.43-25.72,18.38-42.35,33.8"></path><path class="cls-1" d="M149.5,4.55c-13.13,13.62-19.38,20-32.51,33.63"></path><path class="cls-1" d="M169.8,3.47C151,21.3,146.2,25.16,135.91,38.18"></path><path class="cls-1" d="M187,2.23c-11.37,16.74-16,21.5-35.28,36"></path><path class="cls-1" d="M206,2.93c-4.35,3.53-6,9.62-11,12.91-11.55,7.66-10.6,9.82-25,22.34"></path><path class="cls-1" d="M221,8.66c-11,12.55-22.19,17.07-33.56,29.52"></path><path class="cls-1" d="M245,3.24C230.08,17.4,222.3,21.78,212.44,37.18"></path><path class="cls-1" d="M278.32,2.23c-10.62,14.24-21.23,21.72-31.84,36"></path><path class="cls-1" d="M260.87,2.6c-10.61,14.24-21.23,21.72-31.84,36"></path><path class="cls-1" d="M347.86,2.6C332,18,330.7,21.82,316.13,38.18"></path><path class="cls-1" d="M389.85,2.93c-12.06,13.87-24.12,21.38-36.18,35.25"></path><path class="cls-1" d="M417.48,3C403.27,16.27,390,24.34,377.84,38.18c.66-.5,1.32.51,2,0"></path><path class="cls-1" d="M433.13,5.39C424.2,20,412.68,24.8,398.77,38.18"></path><path class="cls-1" d="M455.12,3.52c-11,12.93-21.92,21.74-32.88,34.66"></path><path class="cls-1" d="M479.25,3C467,19.81,454.67,21.35,442.38,38.18"></path><path class="cls-1" d="M500.87,2.93c-15.94,15.33-21.35,19.93-37.29,35.25"></path><path class="cls-1" d="M551.09,5.78c-9.91,13.1-19.81,19.31-29.71,32.4,1.25-1.55,2.5,1.56,3.76,0"></path><path class="cls-1" d="M577.27,3.48C562.22,16,548.76,24.64,537,38.18"></path><path class="cls-1" d="M595.6,4.55c-15.21,14.53-23.24,21.36-38.45,35.89"></path><path class="cls-1" d="M609,7.61c-10.82,11.68-21.63,18.9-32.45,30.57,1-1.14,2,1.15,3,0"></path><path class="cls-1" d="M632.94,4.63C618.32,17.85,610.22,25,595.6,38.18"></path><path class="cls-1" d="M655.15,3.83c-17.55,14.22-19.44,19.73-34.31,34.35"></path><path class="cls-1" d="M674.75,3.85c-13.1,13-23.65,21.31-36.75,34.33"></path><path class="cls-1" d="M695.62,1.39c-17,16.06-20.42,20.74-37.38,36.79"></path><path class="cls-1" d="M714.58,2.93c-15.88,14.88-25,19-35.36,35.25"></path><path class="cls-1" d="M750.05,3.61C739.33,15.9,731,25,725.17,38.18"></path><path class="cls-1" d="M769.91,4c-11.29,13.46-15,20.71-26.33,34.17"></path><path class="cls-1" d="M790.89,4c-8.62,8.81-16.37,21.2-24.93,34.35"></path><path class="cls-1" d="M831.08,5.26c-10,13.17-18.43,19.19-25.39,32.92"></path><path class="cls-1" d="M851.45,5.23c-10,13.32-20,19.63-29.94,33"></path><path class="cls-1" d="M859.46,14.24s-9.64,14.6-23,25.3"></path><path class="cls-1" d="M288,8.77,263.74,42.59l.66-1.5"></path><path class="cls-1" d="M304.88,7a106.68,106.68,0,0,0-19.12,27.11"></path><path class="cls-1" d="M322,7.58l-24.9,29.15"></path><path class="cls-1" d="M363,5.71,336.2,35.92l1.15-.94"></path><path class="cls-1" d="M515.32,6.18A99.35,99.35,0,0,0,489.2,36.44l.61-.73"></path><path class="cls-1" d="M529.88,5.3q-13,15.86-27.39,30.44"></path><path class="cls-1" d="M729.36,4.55C718.48,17.72,711.88,26.67,702,40.61l2.46-3.32"></path><path class="cls-1" d="M809.16,5.17Q798,19.95,788.33,35.72l1.18-1.27"></path></g></g></svg>