<svg xmlns="http://www.w3.org/2000/svg" viewBox="0 0 1753.69 35.4"><defs><style>.cls-1{fill:none;stroke:#222221;stroke-linecap:round;stroke-linejoin:round;stroke-width:2.2px;}</style></defs><title>Asset 12</title><g id="Layer_2" data-name="Layer 2"><g id="Layer_1-2" data-name="Layer 1"><path class="cls-1" d="M1752.34,30.81c.86-8.18-.86-14.41,0-22.59-157.88-3.49-315.95-3.65-474-3.8q-316.92,0-633.82-.62l-318-.31L166.49,3.33c-40.05,0-125.58.94-161.7,0-1.15,9,0,14.07,0,27.48,23.09,2.58,361,0,380.13,0,133.25-.25,448.88,4.13,658.63,0s414.24,4.89,629.93,0C1699.07,30.23,1726.93,32.55,1752.34,30.81Z"></path><path class="cls-1" d="M19.36,5.81,1.1,20.52"></path><path class="cls-1" d="M36.18,6.46c-12.39,7.7-23.27,15.4-32.39,24.35.5-.06,1,.05,1.5,0"></path><path class="cls-1" d="M56.61,4.53C43.67,14.87,30.73,20.46,17.8,30.81"></path><path class="cls-1" d="M77.57,4C63.14,13.94,50.22,19.72,39,30.81"></path><path class="cls-1" d="M93.11,3.45C80.27,12.54,68.49,20.92,57.86,30.81"></path><path class="cls-1" d="M106.74,4.11C93.61,16.29,86.43,18.62,73.29,30.81"></path><path class="cls-1" d="M118.07,4.24C107.71,15,102.77,20.05,92.4,30.81"></path><path class="cls-1" d="M134.11,3.39c-14.84,14.08-18.64,17.13-26.77,27.42"></path><path class="cls-1" d="M147.71,2.41c-9,13.22-12.66,17-27.87,28.4"></path><path class="cls-1" d="M162.7,3c-3.44,2.8-4.74,7.61-8.67,10.2-9.12,6.05-8.37,7.76-19.76,17.65"></path><path class="cls-1" d="M174.58,7.49C165.89,17.4,157.06,21,148.07,30.81"></path><path class="cls-1" d="M193.47,3.2C181.72,14.39,175.58,17.85,167.79,30"></path><path class="cls-1" d="M219.82,2.41c-8.38,11.24-16.76,17.15-25.14,28.4"></path><path class="cls-1" d="M206,2.7C197.66,14,189.28,19.86,180.9,31.1"></path><path class="cls-1" d="M274.75,2.7c-12.53,12.18-13.56,15.18-25.07,28.11"></path><path class="cls-1" d="M307.91,3c-9.53,11-19.05,16.89-28.57,27.85"></path><path class="cls-1" d="M329.73,3c-11.22,10.48-21.67,16.85-31.3,27.79.52-.4,1,.4,1.56,0"></path><path class="cls-1" d="M342.1,4.9C335,16.42,325.94,20.24,315,30.81"></path><path class="cls-1" d="M359.46,3.43c-8.66,10.21-17.31,17.17-26,27.38"></path><path class="cls-1" d="M378.52,3c-9.71,13.3-19.42,14.51-29.12,27.81"></path><path class="cls-1" d="M395.6,3C383,15.07,378.73,18.7,366.14,30.81"></path><path class="cls-1" d="M435.26,5.22c-7.82,10.34-15.64,15.25-23.46,25.59,1-1.23,2,1.22,3,0"></path><path class="cls-1" d="M455.94,3.4c-11.89,9.9-22.52,16.71-31.79,27.41"></path><path class="cls-1" d="M470.42,4.24c-12,11.48-18.36,16.87-30.38,28.35"></path><path class="cls-1" d="M481,6.66c-8.54,9.22-17.08,14.93-25.63,24.15.79-.9,1.57.9,2.36,0"></path><path class="cls-1" d="M499.91,4.31C488.36,14.75,482,20.36,470.42,30.81"></path><path class="cls-1" d="M517.45,3.68c-13.86,11.22-15.35,15.58-27.1,27.13"></path><path class="cls-1" d="M532.93,3.69c-10.35,10.29-18.68,16.83-29,27.12"></path><path class="cls-1" d="M549.41,1.75C536,14.43,533.29,18.13,519.89,30.81"></path><path class="cls-1" d="M564.39,3c-12.54,11.76-19.78,15-27.93,27.85"></path><path class="cls-1" d="M592.41,3.5c-8.48,9.71-15.07,16.86-19.66,27.31"></path><path class="cls-1" d="M608.09,3.82c-8.92,10.63-11.88,16.35-20.8,27"></path><path class="cls-1" d="M624.66,3.83c-6.81,7-12.93,16.75-19.69,27.13"></path><path class="cls-1" d="M656.4,4.8c-7.85,10.41-14.55,15.16-20,26"></path><path class="cls-1" d="M672.49,4.78c-7.88,10.52-15.76,15.51-23.64,26"></path><path class="cls-1" d="M692,1.75C678,15,674.5,22.11,663.34,30.81"></path><path class="cls-1" d="M705.22,5.22c-9.13,11-15.71,13.39-26.18,25.59"></path><path class="cls-1" d="M720,5.22C711,16,705.93,20,697,30.81"></path><path class="cls-1" d="M739.37,3.68C727,14.6,723.89,23.2,716.84,30.81"></path><path class="cls-1" d="M756.57,3.71c-8.09,11.48-16.17,15.62-24.25,27.1,0-1.24-.08,1.23-.12,0"></path><path class="cls-1" d="M773.75,1.1C765,11.36,756.32,20.55,747.6,30.81"></path><path class="cls-1" d="M793.86,4.82c-9.18,12.06-18.36,14.94-27.55,27"></path><path class="cls-1" d="M812.16,4.41c-11.64,11.06-17,14.37-25.33,26.29"></path><path class="cls-1" d="M829.07,3.88c-11.3,10.69-15.55,15.55-22.48,27.28"></path><path class="cls-1" d="M845.58,4.85c-8.82,12.21-16.41,13.3-22.72,26"></path><path class="cls-1" d="M860.83,5.22c-6.67,7.28-11.35,17.89-18.8,25.59"></path><path class="cls-1" d="M881.31,2.86c-8.45,10.68-16.9,17.27-25.35,28"></path><path class="cls-1" d="M910.52,3.8c-7.27,12.3-11.18,15.43-20.28,27.36"></path><path class="cls-1" d="M933.33,5.23c-12.18,11.29-15.7,14.09-22.81,26.59"></path><path class="cls-1" d="M954.23,3.86c-8.72,12.57-17.44,14.37-26.17,27"></path><path class="cls-1" d="M968.58,6.94c-6.82,9.78-13.64,14.09-20.46,23.87"></path><path class="cls-1" d="M993.62,3.88c-14.5,11.17-14.7,16.56-25,26.93"></path><path class="cls-1" d="M1011.05,4.49c-8.31,9.79-16.63,16.52-24.94,26.32"></path><path class="cls-1" d="M1030,7.22c-11.19,9.86-19.6,12.37-24.86,23.59"></path><path class="cls-1" d="M1048.79,4.31c-10.12,12.33-14.23,16.13-24.1,26.5"></path><path class="cls-1" d="M1067.32,3.88c-11.5,9-13.55,16.84-21.77,26.76"></path><path class="cls-1" d="M1079.65,5.42c-6,9-11,15-19.06,25.39"></path><path class="cls-1" d="M1096,6.28a230.62,230.62,0,0,1-21.76,24.53"></path><path class="cls-1" d="M1113.21,2.43c-10,11.28-14.13,19.51-23.22,28.38"></path><path class="cls-1" d="M1127,5l.82-1.1c-10.27,12.31-11.77,14.93-23.43,26.87"></path><path class="cls-1" d="M1171.64,4.31c-6.25,12.93-10.27,14.55-19.52,26.5"></path><path class="cls-1" d="M1189.13,3.38c-6.32,9-8.8,17.59-17.49,27.43"></path><path class="cls-1" d="M1206.68,5.3c-8,9.59-14.36,15.29-19,25.51"></path><path class="cls-1" d="M1234.89,5.23a136,136,0,0,1-17.81,25.58"></path><path class="cls-1" d="M1250.23,4.62C1245,12.81,1240,20.86,1234.08,30"></path><path class="cls-1" d="M1278.55,4.84c-2.47,4.46-11.46,14.39-20.45,26"></path><path class="cls-1" d="M1292.5,6.28c-5.15,6.3-8.58,13.74-18.24,24.53"></path><path class="cls-1" d="M1308.56,7.09c-8.63,7.85-12.54,16.92-20,25.5"></path><path class="cls-1" d="M1326.79,5.23c-11.4,9.14-13,17.31-21.32,27.36"></path><path class="cls-1" d="M1339.19,6.72c-5.48,8.62-11,15.46-16.45,24.09"></path><path class="cls-1" d="M1358.91,3.38c-9.83,11.06-15.55,21.56-21.47,27.43"></path><path class="cls-1" d="M1369.34,9.3c-5.37,7.92-10.74,13.59-16.1,21.51"></path><path class="cls-1" d="M1412.09,5.69c-8,10.07-9.21,14-15.11,24.54"></path><path class="cls-1" d="M1429.32,7.16c-3.49,5.67-7.93,12.3-16.23,23.65"></path><path class="cls-1" d="M1444,7.61c-3.24,5.22-9.49,14.21-16.48,23.2"></path><path class="cls-1" d="M1456.42,7.66c-5.56,8.45-11.87,16-16.12,23.15"></path><path class="cls-1" d="M1475.25,4.9c-6,9-13.74,16.92-21,25.91"></path><path class="cls-1" d="M1492.32,3.82c-7.94,10.19-12.31,16-20.67,26.5"></path><path class="cls-1" d="M1508.22,5.23c-8.78,10.64-12.94,17.45-21,25.58"></path><path class="cls-1" d="M1524.2,4.9c-7.52,8.21-11.49,15.52-17.57,25.91"></path><path class="cls-1" d="M1539,3.33c-7.8,15.87-11.54,18.78-16,29.92"></path><path class="cls-1" d="M1730.2,7.24c-7.14,7.84-10.62,14.12-19.58,23.57"></path><path class="cls-1" d="M1715,9.09c-8,8.57-10.16,12.18-18.12,20.75"></path><path class="cls-1" d="M1751.09,10.25c-6.35,7.68-9.54,12.62-15.9,20.3"></path><path class="cls-1" d="M1752.06,22.37c-2.59,3.48-4.76,5-7.34,8.44"></path><path class="cls-1" d="M227.48,7.57,208.31,34.29l.52-1.19"></path><path class="cls-1" d="M240.8,6.14a84,84,0,0,0-15.1,21.41"></path><path class="cls-1" d="M254.28,6.64l-19.66,23"></path><path class="cls-1" d="M286.73,5.16,265.54,29l.91-.74"></path><path class="cls-1" d="M407,5.53a78.51,78.51,0,0,0-20.63,23.9l.48-.58"></path><path class="cls-1" d="M418.51,4.83q-10.25,12.52-21.64,24"></path><path class="cls-1" d="M576.06,4.24c-8.59,10.41-13.8,17.47-21.6,28.48l1.94-2.62"></path><path class="cls-1" d="M639.09,4.73q-8.77,11.68-16.45,24.13l.93-1"></path><path class="cls-1" d="M893,3.42a189.07,189.07,0,0,0-14.34,27.05"></path><path class="cls-1" d="M1137.82,7.22q-8.21,12.78-15.35,26.2l1-2.32"></path><path class="cls-1" d="M1153.22,5.43a102.39,102.39,0,0,0-12.94,22.15l.9-2"></path><path class="cls-1" d="M1385.23,7.37l-15.6,23.12,1-.63"></path><path class="cls-1" d="M1218.29,5.6a172.86,172.86,0,0,0-12.24,21"></path><path class="cls-1" d="M1260.43,5.73Q1253.2,17,1246.31,28.41l1.23-.55"></path><path class="cls-1" d="M1395.94,7.69a191,191,0,0,0-14.87,23.56l1.06-1.4"></path><path class="cls-1" d="M1552.51,3l-17,27.68.75-1"></path><path class="cls-1" d="M1564.49,6.19c-3.41,6.24-9.35,18.14-12.28,24.62"></path><path class="cls-1" d="M1573.66,8.89A253.28,253.28,0,0,0,1562.21,32l.73-1.14"></path><path class="cls-1" d="M1586.53,6.09l-12.29,24.46-.1-.94"></path><path class="cls-1" d="M1599.3,7.94,1583.39,34.3a1,1,0,0,1,.75-1.2"></path><path class="cls-1" d="M1611.35,7.88l.09-.64-12.83,23.67,1.25-.81"></path><path class="cls-1" d="M1621.26,8.83a105.65,105.65,0,0,0-10.6,21l.94-1.7"></path><path class="cls-1" d="M1634,9.08q-6.6,12.78-14.38,24.89"></path><path class="cls-1" d="M1647.05,7.79a174.33,174.33,0,0,0-12.51,22.73"></path><path class="cls-1" d="M1657.7,9.57q-6.46,10.72-13.84,20.85"></path><path class="cls-1" d="M1670.28,7l-12.57,20.44c-.89,1.46-1.82,3.08-1.58,4.77"></path><path class="cls-1" d="M1684.43,9.32a110.66,110.66,0,0,0-12.77,21l1.11-1.72"></path><path class="cls-1" d="M1698.28,9.16c-4.18,5.5-10.35,14.69-13.85,20.64"></path><path class="cls-1" d="M1738.86,8.07a159,159,0,0,0-14.32,21.83"></path></g></g></svg>