<svg xmlns="http://www.w3.org/2000/svg" viewBox="0 0 1789.13 31.15"><defs><style>.cls-1{fill:#d7d7d7;}.cls-1,.cls-2,.cls-3{stroke:#222221;stroke-linecap:round;stroke-linejoin:round;stroke-width:1.53px;}.cls-2{fill:#fff;}.cls-3{fill:#f4f4f4;}</style></defs><title>Asset 6</title><g id="Layer_2" data-name="Layer 2"><g id="Layer_1-2" data-name="Layer 1"><path class="cls-1" d="M1780.05,30.38a76.21,76.21,0,0,0,8.32-7.22c-.1-1.64.08-5.25-.08-11.66-.08-3.53-.36-7.1-.36-9.66l-8.71,7.31"></path><path class="cls-2" d="M.77,8.24c3.65-2.55,9.46-7,10.91-7.44,1.63-.11,63.4,0,68.19.14,10.58.21,1697.57.37,1708.06.9-2.42,2.84-5.44,4.69-8.14,7.31"></path><path class="cls-3" d="M.77,8.24c16.47.4,1762.34.83,1779,.91-.07,4.12.26,15.89.26,21.23-5-.15-1771.87-1.1-1776.13-1.05a15,15,0,0,1-2.36-.11C1.15,27.45,1.15,12.5.77,8.24Z"></path></g></g></svg>