<svg xmlns="http://www.w3.org/2000/svg" viewBox="0 0 130.91 116.51"><defs><style>.cls-1{fill:#cb6666;stroke:#60f;stroke-linecap:round;stroke-linejoin:round;stroke-width:3.07px;}</style></defs><title>Asset 10</title><g id="Layer_2" data-name="Layer 2"><g id="Layer_1-2" data-name="Layer 1"><path class="cls-1" d="M88.79,77.35c19.44-.41,17.57.3,40.58.79-.12-12.48.23-31.82-.37-39.33-8.9,0-31.27.38-40.2.38-1.06-1.89-1-34.5-2.14-37.33-11.09,0-22.18,0-33.27,0-2.22,0-7.92-.68-10.07-.18-.74.18-.47.88-.52,5.59-.09,8.4,0,22.6-.08,31C27,39.8,13.83,38.7,1.79,39.43,1,52,2.34,69.07,2.18,79.62c14.4-.21,27.51-.76,42-.91,1.11,11.67.12,24.72,1.08,36.27,12.95-.29,30.56.11,45.09-.69C89.53,104.53,88.67,80.77,88.79,77.35Z"/></g></g></svg>