<svg xmlns="http://www.w3.org/2000/svg" viewBox="0 0 158.04 131.27"><defs><style>.cls-1{fill:#9800cb;stroke:#66ffcb;stroke-linecap:round;stroke-linejoin:round;stroke-width:3.44px;}</style></defs><title>Asset 11</title><g id="Layer_2" data-name="Layer 2"><g id="Layer_1-2" data-name="Layer 1"><path class="cls-1" d="M46.81,2.05c3.09,5,11,14.61,13.46,17.72,7.71,9.66,14.81,18,19.34,22.16,10.77-15.45,21.5-29.79,29.81-40,15.55.45,31.1-.54,46.65-.09C142,20.06,131.1,31.43,124.52,39.9c-1.9,2.45-16.94,20.37-18.72,23.36,1.24,2.55,18.42,25,20,27.11,7.46,9.93,20.83,25.55,30.49,38.53-17.61,1.58-30.38-.27-46.66.09-7.63-11.41-20.19-28.84-30-42.51-8.18,10.45-22,28.81-32.65,42.63-16-.09-24.69-.86-45.08.09,10.88-16.54,40.44-50.66,50.21-65.83-4-4-18.22-21.19-26.56-32C22.16,26.82,8.43,9.6,1.72,2.14c3.15-.21,24.05,0,27-.05C39.41,1.85,42.14,1.67,46.81,2.05Z"/></g></g></svg>