<svg xmlns="http://www.w3.org/2000/svg" viewBox="0 0 46.01 40.03"><defs><style>.cls-1{fill:#d7d7d7;}.cls-1,.cls-2,.cls-3{stroke:#222221;stroke-linecap:round;stroke-linejoin:round;stroke-width:2.04px;}.cls-2{fill:#fff;}.cls-3{fill:#f4f4f4;}</style></defs><title>Asset 7</title><g id="Layer_2" data-name="Layer 2"><g id="Layer_1-2" data-name="Layer 1"><path class="cls-1" d="M33.93,39A99.31,99.31,0,0,0,45,29.37c-.12-2.17.12-7-.09-15.49-.12-4.7-.49-9.45-.49-12.86L32.83,10.75"/><path class="cls-2" d="M1,11C5.88,7.58,12.11,2.45,13.76,1.48,15.93,1.33,30.7,1,44.41,1c-3.9,3.82-7.24,6.24-10.83,9.73"/><path class="cls-3" d="M1,11c7,0,21.27,0,32.56-.21-.09,5.47.35,21.13.35,28.23-6.7-.2-23,0-28.71,0a20,20,0,0,1-3.14-.14C1.53,36.51,1.52,16.63,1,11Z"/></g></g></svg>