<?xml version="1.0" encoding="UTF-8" standalone="no"?>
<svg
   viewBox="0 0 98.000002 98.000001"
   version="1.1"
   id="svg102"
   sodipodi:docname="favicon.svg"
   width="98"
   height="98"
   inkscape:version="1.1 (1:1.1+202105261517+ce6663b3b7)"
   xmlns:inkscape="http://www.inkscape.org/namespaces/inkscape"
   xmlns:sodipodi="http://sodipodi.sourceforge.net/DTD/sodipodi-0.dtd"
   xmlns="http://www.w3.org/2000/svg"
   xmlns:svg="http://www.w3.org/2000/svg"
   xmlns:rdf="http://www.w3.org/1999/02/22-rdf-syntax-ns#"
   xmlns:cc="http://creativecommons.org/ns#"
   xmlns:dc="http://purl.org/dc/elements/1.1/">
  <sodipodi:namedview
     id="namedview104"
     pagecolor="#ffffff"
     bordercolor="#666666"
     borderopacity="1.0"
     inkscape:pageshadow="2"
     inkscape:pageopacity="0.0"
     inkscape:pagecheckerboard="0"
     showgrid="false"
     fit-margin-top="0"
     fit-margin-left="0"
     fit-margin-right="0"
     fit-margin-bottom="0"
     inkscape:zoom="1.6554725"
     inkscape:cx="-19.0278"
     inkscape:cy="145.27574"
     inkscape:window-width="1600"
     inkscape:window-height="836"
     inkscape:window-x="0"
     inkscape:window-y="27"
     inkscape:window-maximized="1"
     inkscape:current-layer="svg102" />
  <defs
     id="defs4">
    <style
       id="style2">.cls-1{fill:#222221;}.cls-2{fill:#ff98ff;stroke:#ff00cb;stroke-linecap:round;stroke-linejoin:round;stroke-width:0.9px;}</style>
  </defs>
  <title
     id="title6">Asset 5</title>
  <g
     id="g2110"
     transform="translate(8.5798491,0.47504498)">
    <path
       class="cls-2"
       d="m 58.066246,96.58078 9.23,-7.94"
       id="path64" />
    <path
       class="cls-2"
       d="m 3.0262463,67.71078 a 112.57,112.57 0 0 1 13.7799997,-9.36 c 2,-0.36 5.28,-0.09 7.49,-0.07 13.3,0.14 16.49,-0.35 29.77,0.36 a 72.07,72.07 0 0 1 11.24,1 19.45,19.45 0 0 1 10.33,6.08 c 1.79,2.11 3.22,4.94 3.22,9.68 a 19.44,19.44 0 0 1 -2.13,9.26 c -1,0.93 -5.28,5.25 -9.51,8.62"
       id="path70" />
    <path
       class="cls-2"
       d="m 3.6162463,95.20078 c 17.6799997,0.4 27.2099997,0.81 44.8899997,1.22 6.54,0.15 13.59,1 18.71,-3.13 3.68,-2.92 4.83,-6.74 4.34,-11.41 a 16,16 0 0 0 -8.35,-11.77 27.81,27.81 0 0 0 -12.35,-2.74 c -11.73,0.24 -10.61,0 -22.34,0.25 -5.62,0.14 -13.53,-0.77 -19.1299997,-0.31 -2.08,0.17 -4.37,-0.1 -6.36,0.4 -0.49,1.21 -0.06,5.41 0,7.74 q 0.31,9.87 0.59,19.75 z"
       id="path72" />
    <path
       class="cls-2"
       d="m 56.656246,67.73078 9.23,-8"
       id="path74" />
    <path
       class="cls-2"
       d="m 67.306246,72.77078 c 3,-2.88 5,-4.52 8,-7.4"
       id="path76" />
    <path
       class="cls-2"
       d="m 71.736246,82.64078 7.09,-6.27"
       id="path78" />
    <path
       class="cls-2"
       d="m 4.5562463,38.85078 a 113.75,113.75 0 0 1 13.7799997,-9.36 47.84,47.84 0 0 1 7.49,-0.06 c 13.3,0.13 16.49,-0.36 29.77,0.35 a 71,71 0 0 1 11.24,1 19.43,19.43 0 0 1 10.33,6.07 c 1.79,2.12 3.22,5 3.22,9.68 a 19.51,19.51 0 0 1 -2.13,9.27 c -1,0.92 -5.28,5.24 -9.51,8.62"
       id="path80" />
    <path
       class="cls-2"
       d="m 5.1462463,66.34078 c 17.6799997,0.41 27.2099997,0.82 44.8899997,1.22 6.54,0.16 13.59,1 18.71,-3.12 3.68,-2.92 4.83,-6.75 4.34,-11.42 a 16,16 0 0 0 -8.35,-11.76 27.82,27.82 0 0 0 -12.35,-2.75 c -11.73,0.25 -10.61,0 -22.34,0.26 -5.62,0.14 -13.53,-0.78 -19.13,-0.32 -2.0799997,0.17 -4.3699997,-0.1 -6.3599997,0.4 -0.49,1.22 -0.06,5.41 0,7.74 q 0.31,9.87 0.59,19.75 z"
       id="path82" />
    <path
       class="cls-2"
       d="m 58.186246,38.87078 9.23,-7.95"
       id="path84" />
    <path
       class="cls-2"
       d="m 68.836246,43.91078 c 3,-2.87 5,-4.52 8,-7.39"
       id="path86" />
    <path
       class="cls-2"
       d="m 73.266246,53.78078 7.09,-6.27"
       id="path88" />
    <path
       class="cls-2"
       d="M 0.68624628,10.00078 A 112.23,112.23 0 0 1 14.466246,0.64078025 c 2,-0.36 5.27,-0.09 7.49,-0.07 13.3,0.14 16.49,-0.35 29.77,0.36 a 72.07,72.07 0 0 1 11.24,1.00000005 19.47,19.47 0 0 1 10.33,6.07 c 1.78,2.1199997 3.21,4.9999997 3.21,9.6799997 a 19.37,19.37 0 0 1 -2.12,9.32 c -1,0.92 -5.28,5.25 -9.51,8.62"
       id="path90" />
    <path
       class="cls-2"
       d="m 1.2762463,37.48078 c 17.6799997,0.41 27.2099997,0.82 44.8799997,1.23 6.54,0.15 13.6,0.94 18.72,-3.13 3.67,-2.92 4.83,-6.75 4.33,-11.41 a 16,16 0 0 0 -8.34,-11.77 27.85,27.85 0 0 0 -12.36,-2.7399997 c -11.72,0.24 -10.61,0 -22.33,0.25 -5.63,0.1399997 -13.53,-0.77 -19.1399997,-0.31 -2.07,0.17 -4.37,-0.11 -6.35000002,0.39 -0.5,1.2199997 -0.06,5.4099997 0,7.7399997 q 0.28,9.89 0.59000002,19.75 z"
       id="path92" />
    <path
       class="cls-2"
       d="m 54.306246,10.00078 9.23,-7.9399997"
       id="path94" />
    <path
       class="cls-2"
       d="m 64.966246,15.05078 c 3,-2.87 5,-4.52 8,-7.3899997"
       id="path96" />
    <path
       class="cls-2"
       d="m 69.396246,24.93078 7.09,-6.27"
       id="path98" />
  </g>
  <metadata
     id="metadata921">
    <rdf:RDF>
      <cc:Work
         rdf:about="">
        <dc:title>Asset 5</dc:title>
      </cc:Work>
    </rdf:RDF>
  </metadata>
</svg>
