<svg xmlns="http://www.w3.org/2000/svg" viewBox="0 0 63.5 58.7"><defs><style>.cls-1{fill:#583b75;}.cls-1,.cls-2,.cls-3{stroke:#6ff;stroke-linecap:round;stroke-linejoin:round;stroke-width:1.72px;}.cls-2{fill:#ad90cb;}.cls-3{fill:#9866cb;}</style></defs><title>Asset 8</title><g id="Layer_2" data-name="Layer 2"><g id="Layer_1-2" data-name="Layer 1"><path class="cls-1" d="M29.62,20.94s0,.82,0,.82A8.31,8.31,0,0,0,24.3,28.2,12.25,12.25,0,0,0,25.15,35c.94,1.91,3.93,4.7,8.87,3.8,0,1.48-14.26,8.22-16.59-7.38-.38-2.55.56-7.78,6.81-10.23C28.76,19.41,29.62,20.94,29.62,20.94Z"></path><path class="cls-2" d="M37.31,56.6C63.7,50.17,62.76,29.8,62.6,27A30.32,30.32,0,0,0,58.83,14.9,28.21,28.21,0,0,0,45.89,3.49,28.09,28.09,0,0,0,33.6.86a43.62,43.62,0,0,0-10.11,1A33.05,33.05,0,0,0,8.37,10.84L17.92,8,38,8.91,50.5,21.62Z"></path><path class="cls-3" d="M49.26,15.67A28,28,0,0,0,34.54,6.05a34,34,0,0,0-11.78-.9A27.66,27.66,0,0,0,12.65,7.7c-4.41,2.2-7.57,6.42-9.36,11A35,35,0,0,0,.92,32.66h0c.19,5.45,1.6,10.77,4.61,14.86A24.47,24.47,0,0,0,19.91,57a37.74,37.74,0,0,0,12.4.58,26.36,26.36,0,0,0,9.69-3c4.41-2.19,7.92-6.32,10.17-10.29a21.77,21.77,0,0,0,2.65-10.49C54.83,29.33,54.09,21.38,49.26,15.67ZM37,32.85a9.9,9.9,0,0,1-3,5.94,10.83,10.83,0,0,1-7.93,2.41,9.07,9.07,0,0,1-7.33-6c-1.9-5.53.08-9.28,1.74-11.08a9.94,9.94,0,0,1,8-2.58c2.8.45,5,1.18,6.55,3.52A12.45,12.45,0,0,1,37,32.85Z"></path></g></g></svg>