<svg xmlns="http://www.w3.org/2000/svg" viewBox="0 0 69.95 81.58"><defs><style>.cls-1{fill:#ff8be7;}.cls-1,.cls-2,.cls-3{stroke:#ff3;}.cls-1,.cls-2,.cls-3,.cls-4,.cls-5{stroke-linecap:round;stroke-linejoin:round;stroke-width:1.25px;}.cls-2{fill:#ff3dd7;}.cls-3{fill:#ff00cb;}.cls-4{fill:#e2ff93;}.cls-4,.cls-5{stroke:#663398;}.cls-5{fill:#cbff33;}</style></defs><title>Asset 9</title><g id="Layer_2" data-name="Layer 2"><g id="Layer_1-2" data-name="Layer 1"><path class="cls-1" d="M12.87,27.79c1.9-.45,9-.26,16.27-.1,17.09.38,23.46.18,40.08.92-5.39,3.73-4.75,4.48-10.51,8.35-3.49.42-34.37.1-38.73,0-1.39,0-17.11-.26-19.26-.78C4.3,33.91,8.9,30.32,12.87,27.79Z"/><path class="cls-2" d="M58.71,37c1.59-1,9.33-7.71,10.5-8.35-1.42,3.06-8,13.84-9.32,16-7,11.47-11.31,21.17-16.69,28.15,0,0-6.83,4.46-12.7,8.16"/><path class="cls-3" d="M30.5,81C37,71.62,52.6,46.67,58.71,37c-8.5.27-46.84-.88-54-1-1.06,0-2.93.06-4,.18C2.1,38,21.09,68.11,30.5,81Z"/><path class="cls-4" d="M9.28,12.14c4-4.46,10.72-9,16.19-10.39A46.82,46.82,0,0,1,36.3.63,40.39,40.39,0,0,1,51.59,3.94,29,29,0,0,1,65.12,16a43.5,43.5,0,0,1,4.2,12.25c-2.56,2.32-7.69,6.48-10.24,8.73"/><path class="cls-5" d="M3.88,20.59c1.92-4.93,5.31-9.46,10-11.82A29.68,29.68,0,0,1,24.74,6,36.36,36.36,0,0,1,37.37,7c6.5,1.72,11.77,4.91,15.76,10.34S58.54,30,59.08,37c-5.27-.28-9.52-.65-15-.65-8.4,0-14.9-.11-23.3-.34-4.29-.12-10.68,0-15-.21C2.94,35.6,2,35.67.63,35.51.62,31.22,2.33,24.57,3.88,20.59Z"/></g></g></svg>