<svg xmlns="http://www.w3.org/2000/svg" viewBox="0 0 232.7 211.42"><defs><style>.cls-1{fill:#222221;}.cls-2{fill:#ff98ff;stroke:#ff00cb;stroke-linecap:round;stroke-linejoin:round;stroke-width:0.9px;}</style></defs><title>Asset 5</title><g id="Layer_2" data-name="Layer 2"><g id="Layer_1-2" data-name="Layer 1"><path class="cls-1" d="M6.36,141.92l.53.3-.15,5.35v14.28c0,2.64,0,5.27.11,7.91H3.44c.08-2.64.12-5.27.12-7.91V145.32L.47,145v-1.34Zm3.45,26.5v1.34H.48v-1.34l4.22-.75h.88Z" transform="translate(0 0)"/><path class="cls-1" d="M18.33,159.86a42.14,42.14,0,0,1,5.85-1.58v1.36a35.43,35.43,0,0,0-5,1.51c-3.3,1.28-3.71,2.71-3.71,3.84,0,2,1.3,2.78,3,2.78,1.29,0,2-.48,4.34-2.12l.79-.6.52.78L23,167c-2.23,2.25-3.51,3.31-5.83,3.31-2.76,0-5-1.59-5-4.72C12.09,163.4,13.24,161.69,18.33,159.86Zm4.25,6.46v-8.64c0-3.67-1-4.58-3.52-4.58a8.87,8.87,0,0,0-3.39.67l1.57-1.18-.94,3.2c-.33,1.17-.93,1.8-2,1.8a1.59,1.59,0,0,1-1.75-1.53c.69-2.88,3.49-4.67,7.35-4.67s5.82,1.79,5.82,6.55v8c0,1.64.52,2.23,1.37,2.23a1.84,1.84,0,0,0,1.45-.83l.76.82a3.55,3.55,0,0,1-3.27,2C24,170.15,22.6,168.65,22.58,166.32Z" transform="translate(0 0)"/><path class="cls-1" d="M30.69,168.42l4-.75-1.27,2.09c.08-1.69.12-5.57.12-7.91V145.32L30.5,145v-1.34l5.77-1.69.53.3-.15,5.35v7.14l.11.49v11.6l-.41,3.35-5.66-.39ZM46.22,161c0-4.83-2-7.43-4.8-7.43-1.39,0-3.23.69-5.89,3.36l-.34-.68c2.18-3.36,4.64-4.82,7.24-4.82,4,0,7.17,3.42,7.17,9.25s-3.34,9.62-7.74,9.62c-2.36,0-4.68-1.07-6.65-5l.34-.61c1.93,2.47,3.92,3.46,5.69,3.46C43.92,168.12,46.22,165.8,46.22,161Z" transform="translate(0 0)"/><path class="cls-1" d="M53.21,168.81l-.14-4.14h2.06l1,4.48-1.87-.86V167a7.28,7.28,0,0,0,4.64,1.54c2.86,0,4.21-1.14,4.21-2.86s-1.11-2.42-3.49-3.28l-1.75-.64c-2.76-1-4.55-2.5-4.55-5.08,0-2.75,2.32-5.29,6.55-5.29a9.76,9.76,0,0,1,5.28,1.55L65,156.76H63.06l-.78-3.85,1.4.62v1a6.13,6.13,0,0,0-3.84-1.42c-2.3,0-3.5,1-3.5,2.57s.92,2.3,3.48,3.24l1.17.42c3.76,1.37,5.19,3.15,5.19,5.51,0,2.86-2.49,5.41-7.34,5.41A11.57,11.57,0,0,1,53.21,168.81Z" transform="translate(0 0)"/><path class="cls-1" d="M.67,209.58l4-.75-1.26,2.1c.08-1.7.12-5.58.12-7.92V186.48l-3.09-.37v-1.34l5.77-1.69.54.3-.15,5.35v7.15l.11.49V208l-.41,3.35-5.66-.38Zm15.52-7.45c0-4.84-2-7.44-4.79-7.44-1.39,0-3.23.69-5.89,3.36l-.34-.68c2.18-3.35,4.63-4.82,7.24-4.82,4,0,7.17,3.42,7.17,9.25s-3.35,9.62-7.74,9.62c-2.36,0-4.68-1.07-6.66-5l.34-.61c1.94,2.47,3.92,3.46,5.7,3.46C13.9,209.28,16.19,207,16.19,202.13Z" transform="translate(0 0)"/><path class="cls-1" d="M25.39,210.92c.08-1.69.12-5.57.12-7.91v-1.77c0-2.07,0-3.24-.12-4.74l-3-.34v-1.33l5.81-2.28.57.38L28.62,198v5c0,2.34,0,6.22.11,7.91Zm5.93-1.34v1.34H22.58v-1.34l4.11-.75h.87ZM24.5,186A2.38,2.38,0,0,1,27,183.56,2.41,2.41,0,1,1,24.5,186Z" transform="translate(0 0)"/><path class="cls-1" d="M33.63,209.58l4-.75-1.26,2.1c.08-1.7.12-5.58.12-7.92V186.48l-3.09-.37v-1.34l5.78-1.69.53.3-.15,5.35v7.15l.11.49V208l-.41,3.35-5.66-.38Zm15.52-7.45c0-4.84-2-7.44-4.79-7.44-1.39,0-3.23.69-5.89,3.36l-.34-.68c2.18-3.35,4.63-4.82,7.24-4.82,4,0,7.17,3.42,7.17,9.25s-3.34,9.62-7.74,9.62c-2.36,0-4.68-1.07-6.65-5l.33-.61c1.94,2.47,3.92,3.46,5.7,3.46C46.86,209.28,49.15,207,49.15,202.13Z" transform="translate(0 0)"/><path class="cls-1" d="M60.68,183.08l.53.3-.15,5.35V203q0,4,.11,7.91H57.76c.08-2.63.11-5.27.11-7.91V186.48l-3.08-.37v-1.34Zm3.45,26.5v1.34H54.8v-1.34l4.22-.75h.88Z" transform="translate(0 0)"/><path class="cls-1" d="M69.2,210.92c.08-1.69.12-5.57.12-7.91v-1.77c0-2.07,0-3.24-.12-4.74l-3-.34v-1.33L72,192.55l.57.38L72.43,198v5c0,2.34,0,6.22.11,7.91Zm5.93-1.34v1.34H66.39v-1.34l4.11-.75h.87ZM68.31,186a2.53,2.53,0,1,1,2.52,2.41A2.38,2.38,0,0,1,68.31,186Z" transform="translate(0 0)"/><path class="cls-1" d="M78,202.05c0-6.22,4.25-9.5,8.64-9.5s8.64,3.27,8.64,9.5-4.29,9.37-8.64,9.37S78,208.28,78,202.05Zm13.72,0c0-5.07-1.87-7.79-5.08-7.79s-5.08,2.72-5.08,7.79,1.8,7.65,5.08,7.65S91.73,207.12,91.73,202.06Z" transform="translate(0 0)"/><path class="cls-1" d="M105.36,209.47a4.22,4.22,0,0,0,2.53-1.05l.87,1a5.36,5.36,0,0,1-4.43,2c-2.65,0-4.29-1.37-4.29-4.31,0-.93,0-1.74,0-3.2V195H97v-1.65l4.66-.6-1.55,1.26,1.2-6.13h2.28l-.29,6.6v12.17C103.26,208.64,104.09,209.47,105.36,209.47Zm3-16.42v2h-6.72v-2Z" transform="translate(0 0)"/><path class="cls-1" d="M126.22,199.79a7.68,7.68,0,0,1-.26,2.11H112v-1.61h8.86c1.8,0,2.22-.85,2.22-1.94a4.11,4.11,0,0,0-4.09-4.09c-2.36,0-5.07,2-5.07,7.41,0,4.77,2.4,7.3,6.12,7.3a6.47,6.47,0,0,0,5.23-2.63l.89.71a7.68,7.68,0,0,1-7.23,4.37c-5.08,0-8.39-3.51-8.39-9.26s4-9.61,8.65-9.61C123.15,192.55,126.22,195.23,126.22,199.79Z" transform="translate(0 0)"/><path class="cls-1" d="M133,201.67c0,4.72,2.5,7.3,6,7.3a6,6,0,0,0,5.22-2.89l.92.5c-1,3.12-3.47,4.84-7,4.84-5.16,0-8.46-3.6-8.46-9.4s4.17-9.47,8.72-9.47c3.39,0,6.17,2.1,6.65,4.9a1.61,1.61,0,0,1-1.74,1.43,2,2,0,0,1-2.05-1.81l-.91-3.28,1.79,1.41a7.79,7.79,0,0,0-3.6-.94C135.3,194.26,133,196.83,133,201.67Z" transform="translate(0 0)"/><path class="cls-1" d="M154.39,201a42.14,42.14,0,0,1,5.85-1.58v1.37a34.25,34.25,0,0,0-5,1.5c-3.29,1.29-3.71,2.71-3.71,3.84,0,2,1.3,2.79,3,2.79,1.29,0,2-.48,4.34-2.13l.79-.6.52.78L159,208.12c-2.23,2.24-3.51,3.3-5.83,3.3-2.76,0-5-1.59-5-4.72C148.15,204.56,149.3,202.86,154.39,201Zm4.25,6.46v-8.64c0-3.67-1-4.58-3.51-4.58a9.11,9.11,0,0,0-3.4.67l1.57-1.18-.94,3.2c-.33,1.18-.93,1.8-2,1.8a1.57,1.57,0,0,1-1.74-1.53c.68-2.87,3.48-4.67,7.35-4.67s5.81,1.79,5.81,6.55v8c0,1.64.52,2.22,1.37,2.22a1.86,1.86,0,0,0,1.45-.82l.76.82a3.55,3.55,0,0,1-3.27,2C160,211.31,158.66,209.81,158.64,207.48Z" transform="translate(0 0)"/><path class="cls-1" d="M169.81,203v-1.79c0-2.07,0-3.22-.12-4.72l-3-.34v-1.33l5.25-2.28.57.38.45,4.71V203c0,2.34,0,6.22.11,7.91h-3.41C169.77,209.23,169.81,205.35,169.81,203ZM167,209.58l4.11-.75h.94l4.11.75v1.34H167Zm4.39-11.65h2.19l-.92.31c1.17-3.57,3.49-5.69,5.71-5.69a3.13,3.13,0,0,1,2.71,1.37c0,1.78-.7,2.77-2.21,2.77a3.41,3.41,0,0,1-2.3-.95l-1-.9,1.83-.33a9,9,0,0,0-4.48,6l-1.51,0Z" transform="translate(0 0)"/><path class="cls-1" d="M185.49,210.92c.07-1.69.11-5.57.11-7.91v-1.77c0-2.07,0-3.24-.11-4.74l-3.05-.34v-1.33l5.82-2.28.57.38-.12,5.11v5c0,2.34,0,6.22.12,7.91Zm5.93-1.34v1.34h-8.74v-1.34l4.1-.75h.88ZM184.59,186a2.53,2.53,0,1,1,2.53,2.41A2.39,2.39,0,0,1,184.59,186Z" transform="translate(0 0)"/><path class="cls-1" d="M194.29,202.05c0-6.22,4.25-9.5,8.64-9.5s8.65,3.27,8.65,9.5-4.3,9.37-8.65,9.37S194.29,208.28,194.29,202.05Zm13.73,0c0-5.07-1.88-7.79-5.09-7.79s-5.08,2.72-5.08,7.79,1.8,7.65,5.08,7.65S208,207.12,208,202.06Z" transform="translate(0 0)"/><path class="cls-1" d="M215.19,210l-.14-4.14h2.06l1,4.48-1.86-.86v-1.29a7.28,7.28,0,0,0,4.64,1.54c2.86,0,4.21-1.14,4.21-2.86s-1.11-2.42-3.49-3.28l-1.75-.64c-2.76-1-4.56-2.5-4.56-5.08,0-2.75,2.33-5.29,6.56-5.29a9.76,9.76,0,0,1,5.28,1.55l-.16,3.82H225l-.77-3.85,1.4.62v1a6.13,6.13,0,0,0-3.84-1.42c-2.3,0-3.5,1-3.5,2.57s.92,2.31,3.48,3.24l1.17.42c3.76,1.37,5.19,3.15,5.19,5.52,0,2.85-2.49,5.4-7.34,5.4A11.57,11.57,0,0,1,215.19,210Z" transform="translate(0 0)"/><path class="cls-1" d="M37.22,109.28a1,1,0,0,1,1.07,1.07v9.47a1,1,0,0,1-1.07,1.07H1.07A1,1,0,0,1,0,119.82V63.58a1,1,0,0,1,1.07-1.07h11.2a1,1,0,0,1,1.07,1.07v45.7Z" transform="translate(0 0)"/><path class="cls-1" d="M60.76,113.15l-2.47,6.92a1.24,1.24,0,0,1-1.24.82H45.44c-.82,0-1.15-.49-.91-1.23L56.15,88.2A248.15,248.15,0,0,0,64,63.42a1.16,1.16,0,0,1,1.23-.91H80.52a1.16,1.16,0,0,1,1.23.91A245.67,245.67,0,0,0,89.58,88.2l11.61,31.46c.24.74-.09,1.23-.91,1.23H88.67a1.24,1.24,0,0,1-1.24-.82L85,113.15Zm18.85-14.9c-2.39-6.51-5-14.25-6-19.6-.25-1-1.24-1-1.48,0a155.58,155.58,0,0,1-6,19.6L65,101.54H80.76Z" transform="translate(0 0)"/><path class="cls-1" d="M205,95.78c-11.28-4.2-15.4-8.32-15.4-17.29,0-10.79,8.15-16.89,21.16-16.89a41.61,41.61,0,0,1,13.18,2.15l5.43,1.81a1,1,0,0,1,.75,1.31l-3.38,9.23c-.25.66-.66.9-1.32.66l-4.86-1.49a33.83,33.83,0,0,0-9.8-1.72c-4.61,0-7.74,2-7.74,4.94s2.56,4.19,7.25,5.92L217.14,87c11.44,4.28,15.56,8.56,15.56,17.54,0,11.28-7.66,17.29-21.66,17.29a47.94,47.94,0,0,1-16.22-2.72l-5.43-1.73a1,1,0,0,1-.74-1.32l3.29-9.14c.25-.65.66-.9,1.32-.65L199,108a39.28,39.28,0,0,0,12,2c4.45,0,8.24-1.07,8.24-5.43,0-2.48-2.88-4.37-7.41-6.1Z" transform="translate(0 0)"/><path class="cls-2" d="M107.47,125.42a114.14,114.14,0,0,1,13.78-9.36c2-.36,5.28-.09,7.5-.07,13.3.14,16.48-.35,29.76.36a71.09,71.09,0,0,1,11.25,1,19.51,19.51,0,0,1,10.33,6.07c1.78,2.12,3.21,4.95,3.21,9.68a19.4,19.4,0,0,1-2.12,9.27c-1,.92-5.28,5.24-9.51,8.62" transform="translate(0 0)"/><path class="cls-2" d="M108.07,152.91c17.67.41,27.21.81,44.88,1.22,6.54.15,13.6,1,18.72-3.12,3.67-2.92,4.83-6.75,4.33-11.42a16,16,0,0,0-8.34-11.77,28,28,0,0,0-12.36-2.74c-11.73.25-10.61,0-22.34.26-5.62.14-13.52-.78-19.13-.32-2.08.17-4.37-.1-6.36.4-.49,1.22,0,5.41,0,7.74Q107.78,143,108.07,152.91Z" transform="translate(0 0)"/><path class="cls-2" d="M161.1,125.44l9.23-8" transform="translate(0 0)"/><path class="cls-2" d="M171.76,130.48c3-2.87,5-4.52,8-7.39" transform="translate(0 0)"/><path class="cls-2" d="M176.19,140.35l7.09-6.27" transform="translate(0 0)"/><path class="cls-2" d="M107.47,96.56a115.35,115.35,0,0,1,13.78-9.36c2-.36,5.28-.08,7.5-.06,13.3.14,16.48-.35,29.76.36a72.18,72.18,0,0,1,11.25,1,19.51,19.51,0,0,1,10.33,6.07c1.78,2.12,3.21,5,3.21,9.68a19.37,19.37,0,0,1-2.12,9.27c-1,.92-5.28,5.25-9.51,8.62" transform="translate(0 0)"/><path class="cls-2" d="M108.07,124.05c17.67.41,27.21.82,44.88,1.23,6.54.15,13.6.94,18.72-3.13,3.67-2.92,4.83-6.75,4.33-11.41A16,16,0,0,0,167.66,99a27.75,27.75,0,0,0-12.36-2.74c-11.73.24-10.61,0-22.34.25-5.62.14-13.52-.78-19.13-.31-2.08.17-4.37-.11-6.36.39-.49,1.22,0,5.41,0,7.74Q107.78,114.17,108.07,124.05Z" transform="translate(0 0)"/><path class="cls-2" d="M161.1,96.58l9.23-7.94" transform="translate(0 0)"/><path class="cls-2" d="M171.76,101.62c3-2.87,5-4.52,8-7.39" transform="translate(0 0)"/><path class="cls-2" d="M176.19,111.5l7.09-6.28" transform="translate(0 0)"/><path class="cls-2" d="M106.06,67.71a112.57,112.57,0,0,1,13.78-9.36c2-.36,5.28-.09,7.49-.07,13.3.14,16.49-.35,29.77.36a72.07,72.07,0,0,1,11.24,1,19.45,19.45,0,0,1,10.33,6.08c1.79,2.11,3.22,4.94,3.22,9.68a19.44,19.44,0,0,1-2.13,9.26c-1,.93-5.28,5.25-9.51,8.62" transform="translate(0 0)"/><path class="cls-2" d="M106.65,95.2c17.68.4,27.21.81,44.89,1.22,6.54.15,13.59,1,18.71-3.13,3.68-2.92,4.83-6.74,4.34-11.41a16,16,0,0,0-8.35-11.77,27.81,27.81,0,0,0-12.35-2.74c-11.73.24-10.61,0-22.34.25-5.62.14-13.53-.77-19.13-.31-2.08.17-4.37-.1-6.36.4-.49,1.21-.06,5.41,0,7.74Q106.37,85.32,106.65,95.2Z" transform="translate(0 0)"/><path class="cls-2" d="M159.69,67.73l9.23-8" transform="translate(0 0)"/><path class="cls-2" d="M170.34,72.77c3-2.88,5-4.52,8-7.4" transform="translate(0 0)"/><path class="cls-2" d="M174.77,82.64l7.09-6.27" transform="translate(0 0)"/><path class="cls-2" d="M107.59,38.85a113.75,113.75,0,0,1,13.78-9.36,47.84,47.84,0,0,1,7.49-.06c13.3.13,16.49-.36,29.77.35a71,71,0,0,1,11.24,1,19.43,19.43,0,0,1,10.33,6.07c1.79,2.12,3.22,5,3.22,9.68a19.51,19.51,0,0,1-2.13,9.27c-1,.92-5.28,5.24-9.51,8.62" transform="translate(0 0)"/><path class="cls-2" d="M108.18,66.34c17.68.41,27.21.82,44.89,1.22,6.54.16,13.59,1,18.71-3.12,3.68-2.92,4.83-6.75,4.34-11.42a16,16,0,0,0-8.35-11.76,27.82,27.82,0,0,0-12.35-2.75c-11.73.25-10.61,0-22.34.26-5.62.14-13.53-.78-19.13-.32-2.08.17-4.37-.1-6.36.4-.49,1.22-.06,5.41,0,7.74Q107.9,56.46,108.18,66.34Z" transform="translate(0 0)"/><path class="cls-2" d="M161.22,38.87l9.23-7.95" transform="translate(0 0)"/><path class="cls-2" d="M171.87,43.91c3-2.87,5-4.52,8-7.39" transform="translate(0 0)"/><path class="cls-2" d="M176.3,53.78l7.09-6.27" transform="translate(0 0)"/><path class="cls-2" d="M103.72,10A112.23,112.23,0,0,1,117.5.64c2-.36,5.27-.09,7.49-.07,13.3.14,16.49-.35,29.77.36a72.07,72.07,0,0,1,11.24,1A19.47,19.47,0,0,1,176.33,8c1.78,2.12,3.21,5,3.21,9.68A19.37,19.37,0,0,1,177.42,27c-1,.92-5.28,5.25-9.51,8.62" transform="translate(0 0)"/><path class="cls-2" d="M104.31,37.48c17.68.41,27.21.82,44.88,1.23,6.54.15,13.6.94,18.72-3.13,3.67-2.92,4.83-6.75,4.33-11.41A16,16,0,0,0,163.9,12.4a27.85,27.85,0,0,0-12.36-2.74c-11.72.24-10.61,0-22.33.25-5.63.14-13.53-.77-19.14-.31-2.07.17-4.37-.11-6.35.39-.5,1.22-.06,5.41,0,7.74Q104,27.62,104.31,37.48Z" transform="translate(0 0)"/><path class="cls-2" d="M157.34,10l9.23-7.94" transform="translate(0 0)"/><path class="cls-2" d="M168,15.05c3-2.87,5-4.52,8-7.39" transform="translate(0 0)"/><path class="cls-2" d="M172.43,24.93l7.09-6.27" transform="translate(0 0)"/></g></g></svg>