<svg xmlns:inkscape="http://www.inkscape.org/namespaces/inkscape" xmlns:sodipodi="http://sodipodi.sourceforge.net/DTD/sodipodi-0.dtd" xmlns="http://www.w3.org/2000/svg" xmlns:svg="http://www.w3.org/2000/svg" width="141.01199mm" height="49.406235mm" viewBox="0 0 141.01199 49.406235" id="svg6301" inkscape:version="1.1 (1:1.1+202105261517+ce6663b3b7)" sodipodi:docname="logo-gob.svg"><defs id="defs6298"></defs><g inkscape:label="Capa 1" inkscape:groupmode="layer" id="layer1" transform="translate(0.76480716,-136.94992)"><g id="g6152" transform="matrix(0.51064292,0,0,-0.51064292,-294.05793,872.40007)"><path d="m 574.968,1439.636 h 169.543 v -95.538 H 574.968 Z" style="fill:none;stroke:#1c1c1b;stroke-width:1.215;stroke-linecap:butt;stroke-linejoin:miter;stroke-miterlimit:10;stroke-dasharray:none;stroke-opacity:1" id="path882"></path><path d="m 745.423,1439.636 h 104.476 v -95.538 H 745.423 Z" style="fill:none;stroke:#1c1c1b;stroke-width:1.215;stroke-linecap:butt;stroke-linejoin:miter;stroke-miterlimit:10;stroke-dasharray:none;stroke-opacity:1" id="path884"></path><path d="m 625.1879,1362.9014 c -0.246,0 -0.665,0.178 -0.442,-0.396 0.167,0.15 0.305,0.273 0.442,0.396 m -1.298,-0.347 0.132,0.211 c -0.195,0.085 -0.391,0.17 -0.586,0.254 -0.023,-0.044 -0.046,-0.088 -0.068,-0.132 0.174,-0.111 0.348,-0.221 0.522,-0.333 m 0.558,53.98 c 0.417,-0.125 0.603,-0.019 0.514,0.48 -0.215,-0.2 -0.364,-0.341 -0.514,-0.48 m 11.237,-41.965 c 0,0.038 0,0.076 -10e-4,0.115 h -0.722 c 0,-0.039 10e-4,-0.077 0.002,-0.115 z m -26.301,35.803 c -0.075,-0.071 -0.15,-0.14 -0.225,-0.21 0.162,-0.13 0.325,-0.261 0.487,-0.391 0.053,0.061 0.105,0.12 0.158,0.181 -0.14,0.139 -0.28,0.28 -0.42,0.42 m 20.759,-6.836 c -0.009,0.019 -0.018,0.038 -0.027,0.056 h -0.532 v -0.056 z m 14.638,-12.921 c 0.045,-0.01 0.091,-0.015 0.136,-0.023 0.035,0.201 0.07,0.402 0.104,0.602 -0.048,0.01 -0.096,0.016 -0.144,0.022 -0.032,-0.2 -0.064,-0.401 -0.096,-0.601 m -21.178,34.145 c -0.058,0.048 -0.116,0.096 -0.175,0.143 l -0.348,-0.41 c 0.062,-0.05 0.124,-0.101 0.187,-0.151 0.112,0.139 0.224,0.279 0.336,0.418 m 6.622,-44.797 c 0.003,0.056 0.005,0.113 0.008,0.168 h -0.697 l -0.003,-0.134 c 0.23,-0.012 0.461,-0.023 0.692,-0.034 m -5.779,29.653 c -0.287,0.284 -0.287,0.284 -0.455,-0.025 0.06,-0.016 0.121,-0.048 0.178,-0.044 0.089,0.01 0.176,0.042 0.277,0.069 m -5.63,-6.084 c -0.001,0.016 -0.003,0.032 -0.004,0.049 h -0.479 c 0.002,-0.017 0.003,-0.033 0.005,-0.049 z m 11.25,-29.481 c -0.124,0.081 -0.184,0.141 -0.255,0.158 -0.044,0.01 -0.104,-0.043 -0.157,-0.068 0.039,-0.064 0.067,-0.168 0.119,-0.181 0.064,-0.018 0.147,0.042 0.293,0.091 m 0.098,-7.256 c 0.027,0.047 0.054,0.094 0.08,0.142 -0.196,0.11 -0.392,0.221 -0.588,0.331 -0.026,-0.046 -0.052,-0.093 -0.078,-0.138 0.195,-0.113 0.391,-0.224 0.586,-0.335 m 8.592,4.112 c 0.034,0.011 0.069,0.022 0.103,0.033 v 0.777 c -0.034,-10e-4 -0.069,-10e-4 -0.103,0 z m -8.539,2.546 -10e-4,0.12 h -0.719 c 10e-4,-0.04 10e-4,-0.08 10e-4,-0.12 z m 3.432,-0.436 -0.148,-0.12 c 0.158,-0.189 0.317,-0.379 0.475,-0.569 0.038,0.031 0.077,0.061 0.115,0.093 -0.147,0.199 -0.295,0.397 -0.442,0.596 m -10.758,44.652 c 0.021,0.011 0.041,0.024 0.061,0.037 v 0.501 h -0.061 z m 10.371,-38.988 c -0.042,0 -0.084,-10e-4 -0.126,-10e-4 v -1.034 c 0.042,0 0.084,0 0.126,0 z m 1.897,-12.891 c 0.041,-0.057 0.082,-0.114 0.123,-0.169 0.255,0.144 0.51,0.289 0.765,0.434 -0.026,0.049 -0.051,0.097 -0.077,0.146 -0.27,-0.137 -0.541,-0.275 -0.811,-0.411 m -0.225,15.533 -0.076,-0.126 h 1.01 l 0.001,0.126 z m -2.88,-2.64 c -0.033,0 -0.065,0 -0.098,0 v -0.994 c 0.033,0 0.065,0.01 0.098,0.01 z m 2.021,30.056 c -0.014,0.056 -0.027,0.11 -0.041,0.166 -0.275,-0.014 -0.551,-0.028 -0.827,-0.042 0.002,-0.041 0.005,-0.082 0.008,-0.124 z m -0.832,-38.733 c -0.04,0.027 -0.08,0.054 -0.12,0.081 v -1.111 c 0.04,-10e-4 0.08,0 0.12,0 z m -1.179,0.048 h -0.126 v -1.051 c 0.042,10e-4 0.084,0 0.126,0 z m 2.805,10.068 c 0.015,-0.046 0.028,-0.092 0.043,-0.138 h 0.94 c 0,0.046 0,0.092 -10e-4,0.138 z m -5.651,-8.927 c 0.451,0.241 0.451,0.241 0.556,0.734 -0.23,-0.303 -0.393,-0.518 -0.556,-0.734 m 8.472,0.702 h -0.13 v -1.111 c 0.043,0 0.086,10e-4 0.13,10e-4 z m -10.261,-1.096 c 0.077,0 0.153,0 0.23,0 l -0.048,1.037 c -0.061,0 -0.121,0 -0.182,-0.01 z m -1.144,0.075 c 0.032,10e-4 0.064,10e-4 0.097,0 v 0.953 c -0.033,-10e-4 -0.065,-10e-4 -0.097,0 z m 2.843,7.082 c 0.039,0.027 0.078,0.055 0.116,0.083 -0.096,0.148 -0.183,0.303 -0.291,0.441 -0.06,0.077 -0.155,0.126 -0.235,0.188 -0.032,-0.037 -0.065,-0.074 -0.098,-0.11 0.169,-0.201 0.339,-0.401 0.508,-0.602 m 7.189,0.416 c -0.054,0.036 -0.109,0.072 -0.163,0.107 l -0.444,-0.601 c 0.036,-0.028 0.072,-0.057 0.108,-0.085 0.167,0.193 0.333,0.385 0.499,0.579 m 2.566,-0.437 h -0.119 v -1.109 h 0.119 z m -1.324,-1.072 c 0.043,0 0.085,0 0.127,0 v 1.017 c -0.042,-10e-4 -0.084,0 -0.127,0 z m 1.744,33.314 c -0.534,-0.027 -0.538,-0.024 -0.702,-0.253 -0.017,-0.023 0.04,-0.101 0.111,-0.265 0.184,0.161 0.339,0.297 0.591,0.518 m -14.131,11.077 c -0.024,0.01 -0.048,0.01 -0.073,0.013 v -0.753 h 0.073 z m -8.946,-4.755 c -0.026,-0.021 -0.052,-0.04 -0.078,-0.06 0.113,-0.163 0.226,-0.326 0.339,-0.489 0.036,0.026 0.071,0.053 0.107,0.079 -0.123,0.156 -0.245,0.312 -0.368,0.47 m 7.44,-0.219 0.223,0.24 c -0.167,0.134 -0.335,0.267 -0.502,0.4 -0.053,-0.056 -0.106,-0.113 -0.159,-0.169 0.146,-0.158 0.292,-0.314 0.438,-0.471 m 12.248,-39.328 c -0.053,0.051 -0.105,0.102 -0.157,0.154 -0.167,-0.228 -0.335,-0.457 -0.502,-0.686 0.044,-0.033 0.089,-0.066 0.133,-0.098 0.175,0.21 0.351,0.42 0.526,0.63 m -10.551,41.625 c -0.022,0.01 -0.044,0.019 -0.067,0.029 v -0.754 c 0.023,-10e-4 0.045,-10e-4 0.067,0 z m -0.844,0.293 c -0.188,0.095 -0.307,0.208 -0.392,0.186 -0.092,-0.024 -0.152,-0.173 -0.226,-0.267 0.097,-0.071 0.193,-0.194 0.289,-0.195 0.086,0 0.172,0.137 0.329,0.276 m 6.346,-47.839 c -0.051,0.052 -0.101,0.103 -0.151,0.155 -0.208,-0.26 -0.417,-0.519 -0.625,-0.778 0.051,-0.039 0.102,-0.077 0.154,-0.116 0.207,0.246 0.414,0.493 0.622,0.739 m 3.609,-4.273 c 0.031,-0.06 0.063,-0.122 0.094,-0.182 l 0.898,0.48 c -0.028,0.057 -0.057,0.113 -0.086,0.168 -0.302,-0.155 -0.604,-0.31 -0.906,-0.466 m -1.12,8.359 c 0.054,-0.046 0.107,-0.091 0.161,-0.137 0.188,0.256 0.377,0.513 0.566,0.769 -0.046,0.032 -0.091,0.064 -0.136,0.096 -0.197,-0.243 -0.394,-0.485 -0.591,-0.728 m 2.38,-4.631 c -0.048,-0.042 -0.096,-0.084 -0.144,-0.126 0.198,-0.213 0.397,-0.425 0.595,-0.637 0.038,0.034 0.075,0.069 0.112,0.103 -0.187,0.219 -0.375,0.44 -0.563,0.66 m 0.004,0.594 c 0.056,0.053 0.112,0.107 0.169,0.161 -0.222,0.249 -0.443,0.498 -0.665,0.747 -0.048,-0.041 -0.096,-0.083 -0.145,-0.124 0.214,-0.262 0.427,-0.523 0.641,-0.784 m -5.996,5.238 c -0.201,0.644 -0.208,0.637 -0.736,0.792 0.289,-0.311 0.513,-0.551 0.736,-0.792 m 0.461,1.575 c -0.055,-0.056 -0.11,-0.112 -0.166,-0.169 0.22,-0.232 0.439,-0.465 0.658,-0.698 0.045,0.044 0.089,0.087 0.134,0.131 -0.209,0.245 -0.417,0.491 -0.626,0.736 m 1.49,-5.01 c -0.053,0.046 -0.107,0.091 -0.161,0.137 -0.223,-0.255 -0.446,-0.511 -0.669,-0.766 0.053,-0.044 0.106,-0.088 0.158,-0.133 0.225,0.254 0.448,0.508 0.672,0.762 m 17.104,33.484 c -0.474,0.401 -0.474,0.401 -0.953,-0.057 0.335,0.02 0.612,0.036 0.953,0.057 m 1.279,0 h 0.902 c -0.275,0.407 -0.571,0.395 -0.902,0 m -17.427,-27.376 c 0.034,0.364 0.069,0.728 0.106,1.125 -0.317,-0.188 -0.317,-0.188 -0.106,-1.125 m -2.391,-4.469 c -0.009,0.074 -0.019,0.149 -0.029,0.223 h -0.865 c -10e-4,-0.06 -0.003,-0.119 -0.005,-0.178 0.3,-0.016 0.6,-0.03 0.899,-0.045 m 1.263,0.6 c 0.053,0.047 0.105,0.093 0.157,0.139 l -0.846,0.953 -0.143,-0.126 c 0.278,-0.323 0.555,-0.644 0.832,-0.966 m 3.047,-1.129 c 0,0.069 0,0.139 0,0.208 -0.235,-0.011 -0.471,-0.023 -0.707,-0.033 0.002,-0.059 0.004,-0.117 0.006,-0.175 z m -3.964,0.221 c 0,-0.071 -10e-4,-0.141 -0.002,-0.211 h 0.749 l 0.006,0.167 c -0.251,0.014 -0.502,0.029 -0.753,0.044 m 5.375,45.816 c 0,0.022 -10e-4,0.046 -10e-4,0.068 h -1.36 c 0,-0.022 0.001,-0.046 0.001,-0.068 z m -1.624,-39.446 c 0.015,0.026 0.031,0.052 0.046,0.079 -0.421,0.076 -0.842,0.152 -1.29,0.233 0.017,-0.155 0.03,-0.278 0.044,-0.4 0.42,0.03 0.81,0.059 1.2,0.088 m -6.726,41.328 c 10e-4,-0.015 10e-4,-0.029 0.002,-0.042 h 1.436 c 0,0.013 -10e-4,0.027 -0.002,0.042 z m 8.146,-48.512 c -10e-4,0.049 -0.003,0.098 -0.004,0.147 h -0.94 l 0.003,-0.147 z m -3.138,3.865 c -0.032,0 -0.065,10e-4 -0.097,10e-4 v -1.923 c 0.032,0 0.065,-10e-4 0.097,-10e-4 z m -1.529,32.58 c -0.722,-0.173 -1.275,-0.307 -1.956,-0.471 1.14,-0.114 1.14,-0.114 1.956,0.471 m -0.319,-29.138 c 0.009,-0.042 0.018,-0.085 0.027,-0.127 0.403,-0.022 0.806,-0.043 1.232,-0.067 -0.011,0.194 -0.018,0.32 -0.025,0.446 -0.434,-0.088 -0.834,-0.17 -1.234,-0.252 m -18.719,39.404 c 0.001,-0.02 0.001,-0.041 0.002,-0.062 h 1.761 c -10e-4,0.021 -0.002,0.042 -0.002,0.062 z m 8.583,1.737 c 0,0.024 0,0.046 10e-4,0.07 h -1.657 c 0,-0.024 0,-0.046 0,-0.07 z m -24.572,-31.122 c -0.036,-0.049 -0.073,-0.096 -0.109,-0.144 0.124,-0.307 0.247,-0.614 0.371,-0.92 0.218,0.23 0.352,0.505 0.287,0.721 -0.046,0.155 -0.356,0.232 -0.549,0.343 m 56.348,-3.865 c 0.392,0.046 0.717,0.083 1.042,0.121 0.005,0.054 0.01,0.108 0.014,0.16 -0.33,0.156 -0.661,0.312 -1.1,0.518 0.02,-0.354 0.03,-0.538 0.044,-0.799 m -10.99,28.255 -0.283,0.091 c 0.038,-0.519 -0.605,-0.816 -0.426,-1.38 0.088,-0.028 0.177,-0.058 0.266,-0.086 0.147,0.458 0.295,0.917 0.443,1.375 m -26.911,-18.955 c 0.344,0.746 0.344,0.746 0.066,1.39 -0.507,-0.397 -0.364,-0.805 -0.066,-1.39 m 10.133,21.355 c -0.221,0.155 -0.422,0.371 -0.498,0.333 -0.159,-0.079 -0.252,-0.291 -0.372,-0.448 0.143,-0.097 0.292,-0.275 0.428,-0.266 0.134,0.01 0.254,0.209 0.442,0.381 m -1.5,3.541 h -0.081 v -1.867 h 0.081 z m 8.865,-55.14 c -0.281,0.026 -0.5,0.046 -0.718,0.068 -0.233,0.024 -0.465,0.053 -0.697,0.078 -0.006,-0.039 -0.012,-0.079 -0.018,-0.119 0.472,-0.157 0.943,-0.313 1.433,-0.477 z m -24.579,47.772 c 0.291,0.788 -0.308,1.145 -0.467,1.64 -0.132,-0.586 0.062,-1.071 0.467,-1.64 m 25.194,-40.879 c -0.032,-10e-4 -0.064,-10e-4 -0.096,0 v -2.457 c 0.032,0 0.064,10e-4 0.096,0 z m -9.281,50.289 c 0.728,-0.477 1.059,-0.466 1.53,0 z m 7.914,-12.852 c 0.261,-0.238 0.493,-0.448 0.77,-0.698 -0.111,0.535 -0.21,1.011 -0.349,1.677 -0.201,-0.468 -0.316,-0.735 -0.421,-0.979 m -17.47,-19.163 c 0.069,0.057 0.139,0.116 0.208,0.173 -0.016,0.32 0,0.647 -0.071,0.954 -0.019,0.079 -0.308,0.096 -0.474,0.142 -0.046,-0.314 -0.141,-0.633 -0.114,-0.94 0.011,-0.122 0.293,-0.221 0.451,-0.329 m 18.1,21.734 c -0.237,-0.375 -0.449,-0.563 -0.449,-0.753 0,-0.154 0.292,-0.459 0.384,-0.433 0.208,0.054 0.476,0.248 0.52,0.432 0.037,0.153 -0.212,0.375 -0.455,0.754 m -15.427,-1.363 c 0.221,0.307 0.446,0.489 0.46,0.686 0.01,0.138 -0.253,0.388 -0.427,0.423 -0.288,0.058 -0.548,-0.133 -0.499,-0.456 0.028,-0.183 0.233,-0.34 0.466,-0.653 m 0.177,-15.125 c 0.556,-0.066 0.499,0.277 0.518,0.572 0.025,0.374 -0.042,0.669 -0.518,0.67 z m 7.6,15.735 c 0.194,0.4 0.385,0.613 0.364,0.804 -0.016,0.156 -0.341,0.43 -0.432,0.395 -0.201,-0.077 -0.454,-0.302 -0.472,-0.489 -0.017,-0.164 0.256,-0.357 0.54,-0.71 m 10.944,-3.345 c 0.701,-0.963 1.878,-0.795 2.36,0.297 -1.329,-0.799 -1.443,-0.811 -2.36,-0.297 m -39.25,-21.682 v 0.792 c -0.586,-0.323 -1.064,-0.587 -1.617,-0.891 0.611,0.037 1.099,0.068 1.617,0.099 m 21.465,4.179 c 0.376,-0.126 0.713,-0.21 0.735,0.243 0.014,0.298 -0.139,0.606 -0.218,0.909 -0.172,-0.097 -0.454,-0.161 -0.494,-0.297 -0.079,-0.269 -0.023,-0.576 -0.023,-0.855 m -20.727,7.929 v -0.014 h 0.58 3.987 v 0.014 h -0.579 z m 3.966,-9.806 c 0.106,0.034 0.211,0.067 0.317,0.101 0.21,0.712 -0.593,1.082 -0.729,1.683 -0.062,0.271 -0.287,0.449 -0.659,0.165 0.357,-0.65 0.714,-1.299 1.071,-1.949 m -5.303,1.006 c -0.097,0.063 -0.193,0.125 -0.29,0.187 -0.039,-0.128 -0.137,-0.271 -0.109,-0.382 0.168,-0.679 0.347,-1.358 0.92,-1.865 0.153,0.772 -0.249,1.401 -0.521,2.06 m 48.948,-1.484 c 0.146,0.362 0.295,0.568 0.247,0.64 -0.367,0.539 -0.765,1.058 -1.176,1.565 -0.042,0.053 -0.232,-0.014 -0.504,-0.038 0.477,-0.723 0.89,-1.347 1.433,-2.167 m 4.438,0.34 c 0.072,0.673 0.141,1.323 0.218,2.042 -0.316,0.04 -0.596,0.075 -0.82,0.103 0.084,-0.246 0.211,-0.456 0.217,-0.67 0.009,-0.361 -0.058,-0.725 -0.094,-1.087 -0.027,-0.271 0.025,-0.466 0.479,-0.388 m -50.81,1.959 c -0.485,-0.404 -0.474,-0.62 0.03,-2.196 0.194,0.025 0.398,0.05 0.518,0.065 -0.182,0.708 -0.352,1.367 -0.548,2.131 m 55.843,-2.12 c -0.087,-1.549 -0.087,-1.549 0.343,-1.731 0.221,1.265 0.223,1.741 -0.013,2.36 -0.261,-0.189 -0.506,-0.367 -0.87,-0.629 z m -46.409,22.981 c 0.647,-0.395 1.263,-0.771 2.04,-1.246 -0.031,0.533 -0.053,0.898 -0.078,1.33 -0.713,-0.307 -1.354,0.878 -1.962,-0.084 m 39.6,-22.791 c -0.141,0.171 -0.371,0.327 -0.408,0.52 -0.068,0.352 -0.003,0.728 -0.031,1.091 -0.015,0.191 -0.11,0.375 -0.169,0.562 -0.469,-0.728 -0.414,-1.438 -0.262,-2.173 z m -15.882,23.43 c -0.523,0.335 -0.523,0.335 -1.761,-0.089 0.804,-0.869 1.162,-1.039 1.562,-0.708 z m -11.868,-0.049 c -0.415,0.129 -0.766,0.157 -1.009,0.334 -0.365,0.267 -0.653,0.016 -0.723,-0.174 -0.098,-0.262 -0.056,-0.654 0.088,-0.893 0.073,-0.121 0.543,-0.113 0.76,-0.01 0.298,0.142 0.527,0.43 0.884,0.742 m -3.494,0.299 c 0.41,0.081 0.718,0.063 0.914,0.203 0.168,0.12 0.205,0.421 0.301,0.642 -0.616,0.017 -0.353,0.912 -1.028,0.96 -0.09,-0.568 -0.35,-1.113 -0.187,-1.805 m -1.92,-1.267 c 0.399,-0.163 0.713,-0.353 1.049,-0.405 0.21,-0.032 0.616,0.105 0.646,0.234 0.066,0.284 0.023,0.653 -0.123,0.9 -0.074,0.125 -0.525,0.162 -0.705,0.061 -0.316,-0.178 -0.555,-0.493 -0.867,-0.79 m 18.96,-0.14 c 0.699,-0.672 1.225,-0.041 1.879,0.06 -0.365,0.345 -0.639,0.645 -0.956,0.89 -0.234,0.179 -0.686,-0.01 -0.806,-0.322 -0.068,-0.178 -0.074,-0.381 -0.117,-0.628 m -0.31,3.198 c -0.082,0.037 -0.165,0.074 -0.247,0.111 0.098,-0.713 -0.956,-0.889 -0.651,-1.722 0.31,-0.059 0.568,-0.13 0.831,-0.153 0.346,-0.03 0.509,0.227 0.46,0.498 -0.078,0.432 -0.257,0.845 -0.393,1.266 m 0.171,-41.367 c 0.394,0.01 0.739,0.4 0.708,0.808 -0.029,0.362 -0.381,0.695 -0.728,0.687 -0.391,-0.01 -0.751,-0.414 -0.717,-0.809 0.031,-0.357 0.389,-0.691 0.737,-0.686 m 6.41,37.398 c 0.754,0.462 1.357,0.83 1.995,1.221 -0.552,1.04 -1.279,-0.232 -1.995,0.066 z m -29.113,0.07 c 0.134,-0.439 0.432,-0.636 0.886,-0.636 0.705,0 0.625,0.801 1.114,1.049 -0.719,0.03 -1.544,0.701 -2,-0.413 m 28.552,-0.077 c -0.644,0.876 -0.782,0.901 -2.064,0.339 0.221,-0.177 0.582,-0.326 0.591,-0.496 0.03,-0.528 0.36,-0.453 0.68,-0.456 0.432,0 0.637,0.275 0.793,0.613 m -14.754,-44.927 c -0.756,-0.217 -1.068,-0.561 -1.054,-1.18 0.014,-0.586 0.344,-0.916 1.054,-1.095 z m -22.167,34.022 c -1.031,0.364 -4.374,0.323 -4.929,-10e-4 0.663,-0.257 3.871,-0.285 4.929,10e-4 m 22.598,-30.967 c -0.345,-0.797 -0.629,-1.454 -0.949,-2.196 0.669,0.047 1.223,0.085 1.851,0.129 -0.285,0.654 -0.562,1.287 -0.902,2.067 m 0.584,-2.907 c 0.039,-0.864 0.075,-1.671 0.111,-2.456 0.676,0.197 0.98,0.477 1.012,1.033 0.047,0.821 -0.511,1.162 -1.123,1.423 m 25.311,22.899 c 0.076,-0.023 0.152,-0.047 0.227,-0.069 0.122,0.254 0.245,0.507 0.353,0.732 0.46,-0.183 0.244,-1.002 1.038,-0.964 -0.098,0.248 -0.161,0.398 -0.218,0.55 -0.056,0.15 -0.106,0.302 -0.154,0.439 0.843,0.61 0.851,0.683 0.16,1.15 -0.11,-0.867 -0.11,-0.867 -0.767,-0.751 -0.156,0.324 0.401,0.761 -0.284,1.101 -0.148,-0.771 -0.549,-1.424 -0.355,-2.188 m -26.828,24.411 c -0.992,0.817 -1.461,-0.218 -2.3,-0.401 0.576,-0.354 0.988,-0.608 1.475,-0.908 0.224,0.094 0.522,0.219 0.825,0.347 z m 2.737,-1.31 c 0.553,0.333 0.969,0.583 1.528,0.92 -0.457,0.156 -0.885,0.17 -1.038,0.382 -0.483,0.669 -0.867,0.236 -1.321,0.01 v -0.95 c 0.292,-0.127 0.59,-0.255 0.831,-0.358 m -1.673,4.003 c -0.07,-0.01 -0.14,-0.011 -0.21,-0.017 -0.136,-0.388 -0.271,-0.777 -0.402,-1.154 -0.145,0.01 -0.255,0.017 -0.461,0.03 0.135,-0.39 0.25,-0.724 0.369,-1.067 h 1.187 c 0.215,0.404 0.502,0.736 -0.089,1.164 -0.251,0.183 -0.27,0.686 -0.394,1.044 m 27.564,-16.195 c -0.501,0.447 -1.081,0.185 -1.601,0.228 -0.561,0.047 -1.132,0.048 -1.693,0 -0.51,-0.044 -1.086,0.224 -1.58,-0.241 0.792,-0.355 4.177,-0.345 4.874,0.013 m -26.486,23.88 c 0.002,0.075 0.004,0.15 0.006,0.224 -0.304,0.062 -0.609,0.123 -0.91,0.184 v 2.603 c 0.26,0.089 0.458,0.156 0.656,0.224 -0.775,-0.126 -0.568,0.752 -1.072,1.035 0.128,-0.708 -0.321,-0.849 -0.965,-0.962 0.429,-0.157 0.666,-0.244 0.873,-0.32 v -2.575 c -0.354,-0.088 -0.636,-0.158 -0.918,-0.227 0.015,-0.063 0.03,-0.124 0.044,-0.186 z m -1.757,-11.757 c -0.747,-0.187 -1.382,-0.345 -1.974,-0.493 -0.164,0.325 -0.28,0.552 -0.395,0.781 -0.224,-0.593 -0.545,-1.147 0.041,-1.594 0.468,-0.358 0.999,-0.429 1.514,-0.182 0.583,0.282 0.894,0.766 0.814,1.488 m 3.78,0.214 c -0.596,0.135 -0.431,-0.449 -0.669,-0.727 -0.607,0.154 -1.228,0.311 -1.858,0.472 0.028,-1.101 0.572,-1.65 1.495,-1.568 0.901,0.081 1.163,0.545 1.032,1.823 m 19.252,-43.847 h 5.489 c -0.207,0.568 -0.206,0.588 -0.516,0.599 -0.502,0.021 -1.005,0.012 -1.507,0.014 -0.971,0 -1.943,0.01 -2.914,0.01 -0.371,10e-4 -0.681,-0.06 -0.552,-0.621 m -30.052,17.923 c 0,0.565 0.033,1.029 -0.008,1.486 -0.045,0.486 -0.42,0.828 -0.837,0.845 -0.414,0.015 -0.823,-0.302 -0.883,-0.794 -0.059,-0.485 -0.013,-0.981 -0.013,-1.537 z m -14.942,-17.838 c 0.142,0.612 -0.212,0.664 -0.62,0.666 -1.408,0 -2.817,-10e-4 -4.226,0.023 -0.483,0.01 -0.667,-0.198 -0.632,-0.689 z m 26.461,10.131 c -0.047,-0.483 -0.084,-0.737 -0.093,-0.993 -0.016,-0.456 0.038,-0.871 -0.456,-1.222 -0.2,-0.143 -0.182,-0.828 -0.036,-1.17 0.288,-0.671 0.75,-0.677 1.375,-0.153 0.115,0.095 0.28,0.176 0.425,0.183 0.668,0.028 1.376,0.155 1.83,-0.551 0.01,-0.015 0.117,0.032 0.252,0.07 -0.475,0.521 -0.598,1.346 -1.59,1.254 -0.388,-0.037 -1.212,1.112 -1.083,1.482 0.19,0.547 -0.182,0.685 -0.624,1.1 m 4.147,0.981 c -0.268,0.275 -0.438,0.537 -0.679,0.666 -0.16,0.085 -0.556,0.055 -0.614,-0.052 -0.279,-0.512 -0.734,-0.369 -1.146,-0.386 -0.364,-0.017 -0.757,0.05 -0.907,-0.492 0.313,-0.307 0.341,-0.991 1.135,-0.762 0.292,0.084 1.302,-1.131 1.185,-1.433 -0.314,-0.815 0.436,-0.963 0.774,-1.385 0.053,0.584 0.435,1.21 -0.304,1.646 -0.087,0.052 -0.132,0.233 -0.135,0.356 -0.019,0.675 -0.214,1.409 0.691,1.842 m 0.791,-0.031 c 0.292,-0.305 0.752,-0.441 0.632,-0.961 -0.093,-0.41 0.035,-1.046 -0.199,-1.215 -0.716,-0.518 -0.345,-1.05 -0.315,-1.802 0.443,0.626 1.11,0.907 0.753,1.665 -0.035,0.076 0.065,0.267 0.155,0.341 0.441,0.367 0.573,1.221 1.44,0.936 0.045,-0.015 0.133,0.037 0.172,0.083 0.438,0.517 0.871,1.039 1.306,1.56 -0.042,0.056 -0.084,0.113 -0.126,0.168 -0.135,-0.05 -0.348,-0.061 -0.392,-0.155 -0.202,-0.423 -0.539,-0.44 -0.924,-0.383 -0.357,0.052 -0.77,0 -1.063,0.161 -0.828,0.464 -0.808,0.498 -1.439,-0.398 m -5.157,-10.077 c 0.424,0.633 1.218,0.852 0.867,1.681 l 1.182,1.412 c 0.969,-0.23 1.032,0.649 1.415,1.152 -0.174,0 -0.319,-0.043 -0.432,-0.13 -0.147,-0.112 -0.276,-0.377 -0.399,-0.368 -0.615,0.043 -1.308,-0.325 -1.813,0.411 -0.232,0.337 -0.683,0.213 -1.03,-0.151 -0.275,-0.288 -0.447,-0.547 -0.092,-0.932 0.636,-0.687 0.593,-1.664 -0.082,-2.343 0.096,-0.183 0.198,-0.377 0.384,-0.732 m 9.384,0.019 c 0.318,0.694 0.318,0.694 0.11,0.974 -0.386,0.521 -0.296,1.534 0.142,2.05 0.129,0.151 0.252,0.418 0.208,0.586 -0.176,0.658 -0.864,0.82 -1.384,0.362 -0.528,-0.465 -1.545,-0.39 -2.079,0.127 -0.099,0.096 -0.287,0.099 -0.435,0.145 0.408,-0.489 0.418,-1.432 1.364,-1.168 l 1.195,-1.397 c -0.375,-0.881 0.444,-1.1 0.879,-1.679 m -43.562,-5.313 c 0.53,0.146 0.857,0.199 1.152,0.327 0.944,0.408 1.883,0.431 2.815,0 0.845,-0.388 1.668,-0.393 2.512,10e-4 0.898,0.421 1.806,0.385 2.72,0.013 0.349,-0.142 0.724,-0.218 1.088,-0.325 0.04,0.32 -0.002,0.54 -0.121,0.597 -0.298,0.141 -0.645,0.174 -0.946,0.31 -0.907,0.414 -1.799,0.419 -2.711,0.013 -0.87,-0.388 -1.737,-0.348 -2.624,0.01 -0.422,0.17 -0.916,0.325 -1.35,0.269 -0.782,-0.101 -1.547,-0.355 -2.309,-0.58 -0.084,-0.025 -0.103,-0.275 -0.226,-0.639 m 50.443,-1.857 c 0.501,0.153 0.853,0.226 1.176,0.366 0.911,0.395 1.823,0.419 2.719,0.01 0.881,-0.406 1.733,-0.406 2.608,0 0.868,0.404 1.746,0.359 2.627,0.01 0.351,-0.139 0.722,-0.226 1.316,-0.408 -0.189,0.385 -0.225,0.607 -0.342,0.666 -0.295,0.147 -0.64,0.191 -0.942,0.328 -0.874,0.397 -1.744,0.418 -2.616,0.023 -0.908,-0.411 -1.788,-0.366 -2.716,-0.01 -0.512,0.196 -1.115,0.303 -1.653,0.241 -0.683,-0.078 -1.347,-0.354 -2.005,-0.586 -0.086,-0.03 -0.087,-0.303 -0.172,-0.637 m -0.022,1.993 c 0.048,-0.066 0.095,-0.131 0.143,-0.198 0.339,0.085 0.703,0.118 1.014,0.265 0.979,0.462 1.927,0.436 2.9,-0.016 0.767,-0.356 1.566,-0.355 2.334,0 0.975,0.45 1.924,0.461 2.9,0 0.301,-0.143 0.661,-0.163 0.995,-0.238 -0.007,0.331 -0.077,0.537 -0.214,0.601 -0.299,0.139 -0.647,0.171 -0.947,0.309 -0.845,0.389 -1.677,0.398 -2.52,0.013 -0.939,-0.43 -1.871,-0.419 -2.808,0.021 -0.694,0.327 -1.411,0.381 -2.146,0.117 -0.438,-0.158 -0.896,-0.263 -1.323,-0.444 -0.144,-0.06 -0.221,-0.279 -0.328,-0.426 m -50.392,-1.736 c 0.261,-0.018 0.329,-0.036 0.392,-0.025 0.132,0.022 0.272,0.037 0.388,0.095 1.155,0.58 2.291,0.591 3.475,0.033 0.654,-0.309 1.383,-0.259 2.049,0.055 1.006,0.477 1.993,0.486 2.999,-10e-4 0.315,-0.151 0.66,-0.354 1.088,0 -0.134,0.147 -0.23,0.328 -0.376,0.392 -0.333,0.147 -0.7,0.217 -1.038,0.355 -0.787,0.319 -1.571,0.337 -2.342,-0.013 -0.977,-0.444 -1.914,-0.403 -2.914,-0.01 -0.534,0.21 -1.18,0.259 -1.757,0.199 -0.584,-0.06 -1.153,-0.326 -1.71,-0.546 -0.113,-0.045 -0.145,-0.291 -0.254,-0.531 m 39.856,12.102 c 0.356,0.019 0.513,-0.01 0.537,0.035 0.261,0.472 0.665,0.576 1.164,0.528 0.446,-0.043 0.931,0.111 1.208,-0.455 0.053,-0.11 0.448,-0.143 0.64,-0.078 0.639,0.213 0.868,1.234 0.423,1.748 -0.532,0.615 -0.568,1.53 -0.009,2.069 0.313,0.302 0.226,0.533 0.089,0.961 -0.427,-0.504 -0.783,-0.895 -1.102,-1.316 -0.103,-0.138 -0.153,-0.351 -0.148,-0.527 0.013,-0.509 -0.598,-1.615 -1.038,-1.588 -0.975,0.058 -1.128,-0.751 -1.764,-1.377 m -21.021,32.937 c 7.758,1.841 15.503,1.835 23.248,-0.066 -4.87,2.189 -17.825,2.337 -23.248,0.066 m 21.248,-41.228 c 0.447,1.049 1.25,1.474 2.458,1.36 0.017,0.249 0.052,0.495 0.048,0.741 -0.013,0.9 -0.367,1.3 -1.303,1.495 -0.332,0.07 -1.329,1.085 -1.214,1.344 0.333,0.741 -0.23,0.981 -0.68,1.532 -0.03,-0.441 -0.075,-0.695 -0.059,-0.944 0.034,-0.499 -0.219,-1.108 0.481,-1.377 10e-4,-0.583 0.002,-1.167 0.003,-1.75 -0.724,-0.304 -0.443,-0.944 -0.485,-1.472 -0.041,-0.506 0.227,-0.787 0.751,-0.929 m -1.68,6.286 c -0.559,-0.376 -1.156,-0.676 -0.807,-1.393 0.026,-0.054 -0.057,-0.201 -0.126,-0.258 -0.456,-0.369 -0.583,-1.206 -1.451,-1.011 -0.109,0.024 -0.275,-0.156 -0.4,-0.258 -0.447,-0.368 -0.586,-0.843 -0.569,-1.419 0.012,-0.45 0.043,-0.699 0.6,-0.551 0.407,0.109 1.536,-0.547 1.71,-0.914 0.259,-0.545 0.711,-0.63 0.857,-0.119 0.161,0.563 0.24,1.321 -0.015,1.796 -0.489,0.911 -0.595,1.409 0.039,2.209 0.077,0.097 0.151,0.23 0.155,0.348 0.016,0.523 0.007,1.046 0.007,1.57 m 13.633,-6.192 c 2.461,-0.403 4.808,-0.341 7.203,-0.015 0.012,0.191 0.036,0.386 0.032,0.581 -0.006,0.223 -0.036,0.446 -0.06,0.729 h -7.175 z m -50.452,-0.036 h 7.185 v 1.461 h -7.185 z m 57.619,36.181 c -2.367,-0.023 -4.683,0.079 -6.985,0 v -1.545 h 6.985 z m -57.44,-1.425 h 6.988 v 1.526 h -6.988 z m 28.374,-24.601 c -0.554,0.111 -0.965,0.194 -1.424,0.286 v -9.862 c 0.685,0.93 1.019,1.792 1.198,2.706 0.44,2.258 0.107,4.537 0.226,6.87 m -16.342,6.457 c 0,-0.413 10e-4,-0.709 0,-1.007 -0.005,-2.044 -0.012,-4.088 -0.015,-6.132 -0.003,-1.542 -0.027,-3.084 0.008,-4.625 0.034,-1.48 0.411,-2.866 1.383,-4.263 v 16.027 z m 25.125,21.633 c -3.427,1.368 -14.969,1.234 -16.764,-0.017 5.57,-1.096 11.071,-1.133 16.764,0.017 m -6.809,-41.309 c 0.832,0.094 1.755,0.257 2.621,-0.254 -1.008,-1.339 -2.439,-0.929 -3.515,-0.978 -0.409,-0.374 -0.672,-0.613 -1.049,-0.958 -0.035,0.423 -0.052,0.639 -0.073,0.897 -1.519,-0.281 -2.693,0.191 -3.676,1.469 h 2.312 c -0.072,0.711 -0.14,1.388 -0.213,2.114 -1.705,-1.863 -3.836,-2.823 -6.334,-3.048 5.497,-1.858 10.976,-1.906 16.455,-0.059 -2.173,0.486 -2.639,0.169 -5.97,2.565 -0.18,-0.563 -0.367,-1.148 -0.558,-1.748 m -7.203,0.504 c 0.456,0.22 0.78,0.381 1.107,0.536 0.407,0.192 0.569,0.494 0.569,0.96 0.003,4.156 0.029,8.312 0.037,12.47 0,0.222 -0.043,0.478 -0.156,0.665 -0.492,0.817 -1.017,1.616 -1.557,2.463 z m -17.174,34.507 c -1.71,-0.01 -3.328,0.088 -4.948,0 v -6.727 c 1.68,0.246 3.29,0.482 4.948,0.725 z m 50.435,-6.848 v 6.746 h -4.948 v -6.014 c 1.673,-0.248 3.276,-0.485 4.948,-0.732 m -55.461,-3.513 c 0.015,-2.288 -0.065,-4.539 0.029,-6.986 1.792,0.864 3.407,1.644 4.973,2.399 v 5.517 c -1.309,0.13 -3.616,-0.295 -5.002,-0.93 m 16.276,-24.091 v 19.069 h -1.711 c 0,-1.288 0.002,-2.492 0,-3.697 -0.006,-4.456 0.024,-8.913 -0.048,-13.368 -0.016,-0.985 0.336,-1.497 1.185,-1.799 0.151,-0.053 0.303,-0.108 0.574,-0.205 m 34.125,24.881 c 0,-1.681 -0.009,-3.381 0.014,-5.079 0.002,-0.16 0.16,-0.379 0.308,-0.467 1.464,-0.87 3,-1.59 4.704,-2.28 v 6.968 c -1.54,0.645 -3.682,1.021 -5.026,0.858 m -30.341,-25.423 v 19.695 c -0.334,0 -0.6,0.01 -0.864,0 -0.254,-0.014 -0.507,-0.053 -0.804,-0.086 v -19.606 z m 2.546,20.708 c 0.014,-2.351 0.608,-3.985 1.714,-5.202 1.896,-2.087 4.771,-2.156 6.761,-0.162 2.447,2.451 2.497,6.91 0.105,9.416 -1.96,2.055 -4.945,2.043 -6.844,-0.059 -1.143,-1.266 -1.715,-2.777 -1.736,-3.993 m 27.826,-3.678 v -10.079 c 1.682,-0.018 3.302,-0.026 4.974,0 v 7.789 c -1.675,0.771 -3.279,1.509 -4.974,2.29 m -50.406,-2.167 v -7.776 h 4.953 v 10.012 c -1.673,-0.756 -3.277,-1.479 -4.953,-2.236 m 35.778,33.027 c 0.044,-0.397 0.027,-0.704 0.119,-0.973 0.182,-0.536 0.81,-0.918 1.353,-0.842 0.538,0.076 0.964,0.299 0.96,0.947 0,0.097 0.032,0.202 0.077,0.288 0.155,0.295 0.385,0.481 0.733,0.357 0.342,-0.121 0.43,-0.41 0.35,-0.732 -0.047,-0.19 -0.19,-0.354 -0.253,-0.541 -0.163,-0.49 0.162,-0.89 0.671,-0.794 0.465,0.086 0.872,0.3 1.13,0.765 -0.42,0.105 -0.802,0.201 -1.225,0.307 0.463,0.685 -0.429,0.906 -0.392,1.463 0.511,0.234 1.04,0.475 1.628,0.742 0.291,-0.155 0.666,-0.355 1.085,-0.58 0.21,0.806 0.626,1.311 1.607,1.146 -0.289,0.563 -0.515,1.003 -0.738,1.437 0.07,0.112 0.11,0.205 0.175,0.275 1.336,1.408 0.846,3.321 -0.768,4.228 -1.414,0.794 -2.927,1.033 -4.545,0.858 0.064,-0.7 0.274,-1.368 0.141,-1.957 -0.191,-0.847 -0.633,-1.654 -1.208,-2.321 -0.353,-0.409 -0.195,-0.639 0.088,-0.898 0.13,-0.12 0.32,-0.174 0.478,-0.255 -0.16,-0.394 -0.293,-0.722 -0.443,-1.094 0.45,-0.034 0.81,-0.06 0.983,-0.074 0.398,-0.56 0.705,-0.991 1.013,-1.425 -0.495,-0.339 -0.936,-0.64 -1.466,-1.004 -0.387,0.169 -0.872,0.38 -1.553,0.677 m -1.194,5.138 c 0.087,0.041 0.236,0.072 0.33,0.162 1.585,1.506 1.318,3.441 -0.632,4.417 -1.469,0.735 -2.971,0.695 -4.476,0.074 -0.386,-0.159 -0.582,-0.399 -0.527,-0.846 0.141,-1.161 0.259,-2.325 0.384,-3.488 0.01,-0.096 10e-4,-0.193 10e-4,-0.277 -0.209,-0.241 -0.402,-0.462 -0.59,-0.677 0.578,-0.564 -0.265,-1.065 0.004,-1.626 0.403,0.042 0.819,0.086 1.216,0.128 0.098,-0.241 0.128,-0.532 0.247,-0.574 0.6,-0.214 0.827,-0.77 1.222,-1.172 0.36,-0.366 0.493,-0.697 0.252,-1.152 -0.222,-0.416 -0.008,-0.71 0.285,-0.96 0.442,-0.377 0.95,-0.503 1.495,-0.251 0.508,0.233 0.874,0.58 0.828,1.255 -0.573,-0.025 -1.101,-0.048 -1.501,-0.066 -0.372,0.529 -0.677,0.965 -1.011,1.441 0.467,0.327 0.922,0.645 1.43,0.999 0.255,-0.073 0.592,-0.17 0.981,-0.282 -0.024,0.47 -0.043,0.855 -0.063,1.259 h 0.895 c -0.262,0.557 -0.479,1.019 -0.77,1.636 m -8.898,0.134 c 0.053,0.264 0.136,0.555 0.168,0.851 0.101,0.931 0.185,1.864 0.273,2.796 0.034,0.362 -0.071,0.624 -0.422,0.823 -1.491,0.847 -4.011,0.637 -5.324,-0.471 -1.149,-0.97 -1.254,-2.534 -0.242,-3.652 0.194,-0.215 0.404,-0.417 0.611,-0.628 -0.195,-0.346 -0.376,-0.629 -0.515,-0.929 -0.177,-0.384 -0.044,-0.573 0.391,-0.53 0.122,0.012 0.247,-0.012 0.399,-0.021 -0.029,-0.438 -0.056,-0.825 -0.086,-1.272 0.42,0.136 0.76,0.245 1.054,0.341 0.22,-0.219 0.379,-0.427 0.584,-0.567 0.235,-0.162 0.51,-0.265 0.819,-0.418 -0.396,-0.539 -0.729,-0.993 -1.062,-1.448 h -1.494 c 0.169,-0.842 0.487,-1.205 1.143,-1.324 0.789,-0.142 1.73,0.537 1.492,1.154 -0.438,1.138 0.497,1.559 1,2.209 0.222,0.287 0.509,0.522 0.821,0.836 0.304,-0.041 0.693,-0.092 1.089,-0.145 -0.149,1.713 -0.149,1.713 -0.699,2.395 m 18.739,-33.542 h -10.822 c -0.063,-0.365 -0.118,-0.685 -0.181,-1.047 0.42,-0.162 0.959,-0.03 1.112,-0.594 0.011,-0.041 0.54,-0.06 0.681,0.071 0.648,0.601 1.216,0.57 1.842,-0.03 0.261,-0.25 0.56,-0.256 0.839,0.115 0.289,0.383 1.555,0.454 1.918,0.178 0.197,-0.15 0.398,-0.427 0.587,-0.418 0.26,0.012 0.517,0.227 0.762,0.377 0.515,0.314 1.092,0.255 1.454,-0.166 0.334,-0.388 0.339,-0.896 0.014,-1.39 -0.538,-0.817 -0.535,-0.971 0.032,-1.686 0.266,-0.337 0.238,-1.558 -0.043,-1.879 -0.459,-0.525 -0.553,-0.991 -0.162,-1.456 0.53,-0.628 0.539,-1.171 -0.023,-1.771 -0.285,-0.304 -0.28,-0.611 0.085,-0.931 0.411,-0.361 0.38,-1.666 -0.056,-1.958 -0.564,-0.377 -0.638,-0.888 -0.55,-1.461 0.149,-0.97 0.025,-1.2 -0.941,-1.533 -0.498,-0.171 -0.863,-0.413 -0.94,-1.017 -0.084,-0.667 -1.104,-1.207 -1.761,-0.946 -0.507,0.202 -0.87,0.099 -1.254,-0.263 -0.695,-0.654 -1.056,-0.644 -1.793,0.015 -0.413,0.37 -0.813,0.481 -1.354,0.238 -0.544,-0.244 -1.69,0.361 -1.718,0.914 -0.034,0.673 -0.421,0.911 -0.966,1.089 -0.932,0.303 -1.061,0.561 -0.903,1.563 0.086,0.541 0.016,1.024 -0.49,1.395 -0.463,0.341 -0.58,1.624 -0.154,1.955 0.494,0.385 0.389,0.658 0.064,1.069 -0.443,0.558 -0.502,1.007 -0.087,1.445 0.444,0.47 0.39,0.951 0.331,1.414 -0.583,0.692 -1.219,0.481 -1.942,0.213 0,-1.673 -0.009,-3.38 0.001,-5.087 0.024,-4.054 3.067,-7.543 7.031,-8.074 4.167,-0.556 8.04,2.025 9.061,6.094 0.21,0.836 0.303,1.72 0.312,2.583 0.035,3.286 0.014,6.572 0.014,9.858 z m -33.309,19.941 v -19.162 h 10.771 c 0.124,0.72 0.235,1.371 0.369,2.152 h -7.913 v 2.875 c 0.453,0.054 0.838,0.099 1.319,0.155 0,1.186 0.02,2.321 -0.01,3.455 -0.013,0.512 0.264,1.159 -0.506,1.431 -0.068,0.025 -0.096,0.239 -0.098,0.367 -0.009,0.696 -0.004,1.392 -0.004,2.075 0.394,0.083 0.681,0.143 1.042,0.218 -0.027,0.354 0.075,0.812 -0.101,0.981 -0.553,0.533 -0.3,1.078 -0.258,1.749 h 2.659 c -0.848,0.651 -0.578,1.312 -0.475,1.963 h 2.817 v -1.52 c -0.185,-0.126 -0.366,-0.249 -0.547,-0.372 0.021,-0.061 0.042,-0.123 0.063,-0.184 h 2.759 c -0.102,-0.56 -0.06,-1.083 -0.292,-1.417 -0.296,-0.428 -0.246,-0.791 -0.183,-1.248 0.335,-0.059 0.649,-0.114 1.03,-0.18 0,-0.35 0.039,-0.653 -0.008,-0.942 -0.101,-0.618 0.38,-1.429 -0.567,-1.788 -0.052,-0.019 -0.069,-0.181 -0.069,-0.278 -0.004,-1.433 -0.003,-2.865 -0.003,-4.404 0.557,0.08 1.057,-0.167 1.502,0.204 0.845,0.705 1.836,1.076 2.922,1.272 v 12.598 z m 16.909,-0.025 c 0.006,-4.231 -0.016,-8.397 0.003,-12.53 3.183,-0.716 4.911,-2.577 5.428,-5.712 0.052,-0.318 0.144,-0.63 0.213,-0.922 h 10.662 c 0.228,1.529 0.182,18.398 -0.051,19.164 z m -11.942,8.131 c 0.838,0.161 1.019,0.051 1.212,-0.694 0.055,-0.21 0.112,-0.466 0.26,-0.598 0.409,-0.367 1.113,-0.331 1.583,0.024 0.473,0.356 0.587,0.817 0.351,1.445 -0.48,-0.212 -0.962,-0.425 -1.367,-0.603 -0.538,0.391 -0.994,0.723 -1.448,1.054 0.358,0.491 0.671,0.92 1.017,1.393 0.265,0.016 0.61,0.035 1.021,0.059 -0.197,0.431 -0.347,0.758 -0.525,1.148 0.449,0.174 0.913,0.323 0.813,0.911 -1.253,1.188 -1.703,2.386 -1.369,4.49 -0.64,0 -1.279,0.056 -1.904,-0.012 -1.144,-0.124 -2.234,-0.455 -3.146,-1.2 -1.158,-0.946 -1.348,-2.367 -0.498,-3.579 0.131,-0.186 0.27,-0.368 0.396,-0.539 -0.233,-0.475 -0.445,-0.909 -0.78,-1.594 1.213,0.484 1.433,-0.369 1.842,-0.97 0.414,0.225 0.791,0.43 1.073,0.584 0.297,-0.204 0.504,-0.391 0.747,-0.502 0.255,-0.117 0.543,-0.162 0.795,-0.234 -0.024,-0.272 -0.038,-0.436 -0.053,-0.601 -0.594,-0.106 -0.439,-0.584 -0.427,-0.936 -0.414,-0.112 -0.771,-0.21 -1.128,-0.307 0.362,-0.392 0.721,-0.646 1.119,-0.757 0.483,-0.135 0.807,0.288 0.682,0.783 -0.102,0.408 -0.178,0.823 -0.266,1.235 m 5.566,-2.982 c -1.567,-0.114 -3.108,-0.352 -4.816,-0.94 0.637,-0.137 1.02,-0.219 1.403,-0.301 0.055,-0.081 0.111,-0.163 0.166,-0.244 -0.361,-0.21 -0.722,-0.421 -1.083,-0.631 0.048,-0.087 0.097,-0.174 0.146,-0.262 6.844,1.605 13.686,1.584 20.526,-0.057 0.028,0.076 0.056,0.151 0.083,0.227 -0.335,0.25 -0.67,0.501 -1.147,0.856 0.672,0.155 1.088,0.25 1.673,0.384 -0.426,0.138 -0.691,0.258 -0.968,0.308 -1.476,0.268 -2.949,0.577 -4.436,0.76 -1.325,0.164 -2.666,0.204 -4.002,0.256 -0.968,0.038 -1.942,0.053 -2.909,0 -1.558,-0.089 -3.113,-0.245 -4.669,-0.373 z m -3.52,-2.882 c 0.821,0.137 1.641,0.281 2.464,0.408 3.381,0.523 6.778,0.784 10.191,0.424 1.89,-0.199 3.768,-0.515 5.65,-0.786 0.406,-0.058 0.807,-0.148 1.211,-0.224 -0.288,0.226 -0.603,0.322 -0.921,0.406 -2.11,0.557 -4.27,0.802 -6.437,0.929 -3.719,0.218 -7.421,0.014 -11.075,-0.764 -0.367,-0.078 -0.71,-0.274 -1.066,-0.413 -0.388,0.082 -0.721,0.03 -0.879,-0.446 0.287,0.156 0.575,0.311 0.862,0.466 m 12.823,5.085 c -0.153,-0.062 -0.303,-0.137 -0.461,-0.187 -1.239,-0.405 -2.146,0.069 -2.563,1.331 -0.048,0.146 -0.108,0.289 -0.195,0.519 -0.737,-2.316 -2.017,-2.514 -3.758,-1.151 -0.083,-0.154 -0.156,-0.29 -0.182,-0.338 1.424,-1.021 2.77,-1.192 3.897,0.327 1.385,-1.325 2.202,-1.458 3.344,-0.59 0.444,0.297 0.675,-0.282 1.129,-0.327 -0.281,0.359 -0.498,0.638 -0.758,0.972 -0.171,-0.209 -0.312,-0.382 -0.453,-0.556 m 10.36,-42.287 c 0.044,0.036 0.085,0.075 0.122,0.119 0.071,0.17 0.248,0.398 0.193,0.501 -0.292,0.545 -0.029,1.031 0.087,1.536 0.035,0.152 0.067,0.304 0.142,0.65 -0.582,-0.661 -0.257,-1.963 -1.676,-1.49 0.265,-0.965 0.069,-1.73 -0.632,-2.358 0.572,0.429 1.107,0.837 1.764,1.042 m -0.267,12.067 c 0.182,-0.015 0.364,-0.03 0.632,-0.051 v -1.582 c 0.14,0.087 0.189,0.176 0.197,0.268 0.048,0.601 -0.119,1.233 0.489,1.715 0.201,0.16 0.236,0.609 -0.112,0.857 l 0.034,-0.033 c -0.254,0.352 -0.71,0.311 -0.87,0.111 -0.419,-0.525 -1.029,-0.377 -1.702,-0.604 0.558,-0.064 0.943,-0.107 1.328,-0.151 0.01,-0.22 0.017,-0.385 0.025,-0.549 -0.349,-0.336 -0.699,-0.671 -1.047,-1.007 0.072,-0.061 0.145,-0.121 0.217,-0.182 0.27,0.403 0.54,0.805 0.809,1.208 m 0.394,-6.384 c 0.106,-0.5 0.212,-0.999 0.322,-1.515 0.109,0.517 0.214,1.017 0.319,1.518 0.481,0.346 0.307,0.733 0.069,1.125 -0.088,0.303 -0.208,0.602 -0.254,0.913 -0.044,0.294 -0.01,0.598 -0.01,0.898 -0.038,-0.01 -0.076,-0.01 -0.114,-0.014 -0.119,-0.598 -0.239,-1.197 -0.358,-1.796 -0.051,-0.039 -0.098,-0.081 -0.143,-0.126 -0.432,-0.189 -0.864,-0.377 -1.235,-0.54 0.388,-0.106 0.822,-0.224 1.257,-0.342 0.052,-0.036 0.101,-0.077 0.147,-0.121 m -34.165,15.818 c 0.528,0.439 0.543,0.649 0.091,1.048 -0.313,0.276 -0.615,0.567 -0.941,0.87 -0.363,-0.434 -0.172,-0.779 0.271,-1.009 0.398,-0.206 0.604,-0.487 0.598,-0.927 h -0.993 c 10e-4,-0.035 0.002,-0.071 0.003,-0.106 0.324,0.041 0.647,0.083 0.971,0.124 m 13.847,20.341 c 0.925,-0.588 1.501,-0.559 2.255,0.155 -0.728,-0.548 -1.506,-0.273 -2.273,-0.176 -0.292,0.454 -0.584,0.907 -0.876,1.362 0.045,-0.855 -0.556,-1.357 -0.874,-1.974 -0.694,-0.18 -1.388,-0.141 -2.081,0 -0.09,0.127 -0.181,0.254 -0.294,0.412 -0.675,-1.189 -1.206,-1.315 -2.28,-0.608 -0.203,0.133 -0.401,0.277 -0.601,0.417 -0.039,-0.055 -0.077,-0.109 -0.116,-0.163 0.361,-0.273 0.696,-0.593 1.088,-0.809 0.76,-0.417 1.146,-0.295 1.708,0.393 0.13,0.159 0.34,0.254 0.515,0.38 0.68,-0.566 1.361,-0.479 2.044,-0.01 0.379,0.319 0.758,0.637 1.133,0.953 0.202,-0.105 0.427,-0.222 0.652,-0.338 m 15.177,-43.578 c 0.165,-0.229 0.33,-0.458 0.465,-0.646 0.358,0.137 0.732,0.28 1.179,0.452 -0.62,0.065 -1.142,0.119 -1.664,0.174 -0.024,0.85 -0.048,1.699 -0.071,2.548 -0.197,-0.762 -0.247,-1.517 -0.258,-2.272 -0.001,-0.085 0.221,-0.175 0.349,-0.256 m -6.089,8.574 c -0.512,-0.346 -0.543,-0.525 -0.182,-1.034 0.05,-0.031 0.098,-0.065 0.143,-0.101 0.094,-0.474 0.189,-0.946 0.283,-1.419 0.048,0 0.096,0 0.143,0 v 1.439 c 0.129,0 0.257,10e-4 0.385,10e-4 0.331,0.605 1.046,0.133 1.522,0.496 -0.557,0.147 -1.046,0.276 -1.535,0.405 -0.055,0.053 -0.11,0.104 -0.165,0.156 -0.112,0.604 -0.223,1.206 -0.323,1.747 -0.096,-0.53 -0.203,-1.127 -0.311,-1.723 z m 1.783,-5.444 c 0.273,0.267 0.547,0.534 0.82,0.801 -0.072,0.055 -0.144,0.11 -0.216,0.165 -0.195,-0.329 -0.39,-0.658 -0.585,-0.987 -0.212,-0.06 -0.424,-0.119 -0.637,-0.18 l 0.041,-0.014 c -0.266,0.257 -0.533,0.513 -0.825,0.795 0.067,-0.378 0.128,-0.726 0.189,-1.075 0.138,-0.988 0.205,-1.041 1.005,-0.785 z m -34.591,7.486 c -0.161,-0.029 -0.321,-0.06 -0.555,-0.103 -0.099,0.558 -0.14,1.124 -0.306,1.651 -0.208,0.659 0.079,1.028 0.597,1.311 0.762,0.417 1.532,0.819 2.361,1.26 v 3.494 c -0.086,0.064 -0.112,0.099 -0.139,0.1 -1.606,0.069 -2.345,1.134 -2.85,2.472 -0.131,0.344 -0.264,0.69 -0.428,1.019 -0.33,0.661 -0.351,1.145 0.429,1.756 0.599,0.468 1.31,0.795 1.985,1.161 0.318,0.172 0.667,0.287 1.082,0.462 v 4.525 c 0,0.704 0.009,1.408 -0.004,2.113 -0.005,0.225 0.01,0.534 -0.122,0.661 -0.513,0.493 -0.157,0.826 0.259,1.238 -0.372,0.33 -0.706,0.626 -1.101,0.976 v 2.16 c 0.448,0.037 0.867,0.071 1.339,0.109 0.086,0.585 -0.088,1.033 -0.559,1.375 -0.135,0.098 -0.27,0.199 -0.39,0.315 -0.635,0.611 -0.561,1.335 0.122,1.859 0.868,0.664 1.887,0.767 2.997,0.875 0.028,0.26 0.017,0.525 0.096,0.762 0.051,0.152 0.234,0.261 0.359,0.389 0.118,-0.132 0.295,-0.247 0.341,-0.4 0.069,-0.235 0.048,-0.497 0.063,-0.718 0.678,-0.126 1.265,-0.24 1.855,-0.344 0.692,-0.121 1.106,-0.605 1.404,-1.166 0.297,-0.557 0.174,-0.972 -0.431,-1.474 -0.441,-0.366 -0.716,-0.773 -0.751,-1.448 0.452,-0.042 0.898,-0.083 1.413,-0.13 v -2.229 c -0.383,-0.294 -0.719,-0.554 -1.097,-0.845 0.293,-0.455 0.798,-0.876 0.152,-1.38 -0.075,-0.058 -0.055,-0.254 -0.056,-0.387 -0.009,-1.911 -0.016,-3.822 -0.018,-5.733 0,-0.06 0.049,-0.121 0.082,-0.198 1.608,-0.203 3.224,-0.406 4.945,-0.623 v 11.824 h 8.111 c 0.014,0.065 0.028,0.129 0.042,0.193 -0.35,0.118 -0.7,0.238 -1.052,0.353 -0.912,0.3 -0.967,0.418 -0.648,1.375 0.02,0.059 -0.003,0.131 -0.009,0.267 -0.207,0.139 -0.448,0.304 -0.707,0.479 0.066,0.199 0.128,0.382 0.195,0.584 -0.071,0.061 -0.136,0.163 -0.217,0.177 -0.35,0.058 -0.658,0.144 -0.72,0.567 -0.013,0.091 -0.058,0.207 -0.128,0.256 -0.803,0.571 -1.622,1.119 -2.418,1.698 -0.234,0.169 -0.488,0.381 -0.602,0.633 -0.571,1.261 -0.556,1.268 -1.803,1.404 -0.332,0.647 -0.778,1.234 -0.926,1.887 -0.146,0.648 -0.759,1.21 -0.423,1.969 0.047,0.106 -0.095,0.282 -0.1,0.428 -0.007,0.22 -0.054,0.515 0.064,0.644 0.205,0.226 0.257,0.385 0.173,0.686 -0.046,0.167 0.133,0.405 0.228,0.602 0.089,0.188 0.211,0.359 0.299,0.547 0.055,0.118 0.057,0.354 0.112,0.363 0.677,0.113 0.577,1.162 1.364,1.122 0.132,0.8 1.044,0.577 1.456,1.1 0.247,0.315 0.897,0.326 1.353,0.553 0.384,0.191 0.617,-0.226 0.688,-0.652 0.179,0.925 0.175,0.889 0.983,0.8 0.515,-0.056 1.043,0.01 1.565,0.029 0.436,0.015 0.874,0.021 1.304,0.077 0.17,0.021 0.396,0.127 0.469,0.263 0.179,0.329 0.381,0.485 0.78,0.505 0.191,0.01 0.342,0.402 0.557,0.465 0.558,0.167 1.152,0.211 1.713,0.372 0.519,0.15 1.007,0.203 1.558,0.146 0.632,-0.066 1.929,-0.227 2.411,-0.511 0.033,0.052 0.106,0.119 0.092,0.152 -0.404,0.984 -0.298,1.822 0.631,2.479 0.155,0.11 0.199,0.378 0.326,0.639 -0.331,0.107 -0.567,0.183 -0.839,0.271 v 1.165 c 0.588,-0.036 0.842,0.298 0.854,0.839 h 1.029 c 0.109,-0.46 0.303,-0.901 0.917,-0.884 v -1.107 c -0.223,-0.068 -0.438,-0.133 -0.773,-0.234 0.053,-0.221 0.031,-0.557 0.178,-0.666 0.948,-0.7 1.012,-1.583 0.636,-2.666 0.504,0.581 1.235,0.137 1.804,0.527 0.397,0.271 0.953,-0.296 1.408,0.093 0.481,-0.443 1.237,0.016 1.691,-0.514 0.739,0.224 1.047,-0.65 1.701,-0.672 0.133,-0.01 0.28,-0.159 0.386,-0.276 0.441,-0.487 0.65,-0.511 1.279,-0.46 0.589,0.048 1.189,-0.055 1.784,-0.062 0.281,0 0.655,0.193 0.827,0.071 0.41,-0.29 0.806,-0.251 1.258,-0.276 0.362,-0.02 0.65,-0.519 1.13,-0.385 0.273,-0.678 1.298,-0.373 1.5,-1.145 0.759,-0.013 0.767,-0.933 1.371,-1.133 0.041,-0.679 0.899,-1.02 0.733,-1.802 -0.031,-0.147 0.16,-0.331 0.207,-0.509 0.049,-0.18 0.13,-0.428 0.05,-0.551 -0.193,-0.301 -10e-4,-0.576 -0.036,-0.829 -0.08,-0.576 -0.293,-1.142 -0.514,-1.687 -0.237,-0.584 -0.545,-1.14 -0.88,-1.828 -0.061,-0.01 -0.288,-0.032 -0.514,-0.063 -0.553,-0.073 -0.969,-0.387 -1.105,-0.9 -0.162,-0.602 -0.389,-1.041 -1.056,-1.185 -0.195,-0.042 -0.339,-0.303 -0.518,-0.45 -0.36,-0.296 -0.706,-0.616 -1.098,-0.861 -0.309,-0.192 -0.592,-0.328 -0.759,-0.716 -0.105,-0.242 -0.509,-0.355 -0.812,-0.548 0.046,-0.168 0.096,-0.35 0.163,-0.594 -0.226,-0.146 -0.468,-0.301 -0.711,-0.458 0.006,-0.128 -0.008,-0.229 0.019,-0.318 0.282,-0.928 0.202,-1.086 -0.723,-1.357 -0.346,-0.102 -0.697,-0.188 -1.037,-0.43 h 8.28 c 0.089,-4.037 -0.003,-7.973 0.028,-11.942 1.642,0.195 3.215,0.383 4.864,0.579 0.017,0.314 0.047,0.639 0.05,0.965 0.014,1.576 0.042,3.152 0.016,4.727 -0.006,0.405 -0.188,0.807 -0.323,1.346 0.078,0.113 0.243,0.352 0.453,0.659 -0.36,0.28 -0.716,0.558 -1.094,0.853 v 2.184 c 0.477,0.04 0.903,0.076 1.366,0.114 0.126,0.757 -0.287,1.178 -0.795,1.599 -0.735,0.608 -0.768,1.152 -0.183,1.87 0.086,0.106 0.206,0.218 0.329,0.25 0.895,0.233 1.796,0.445 2.818,0.694 -0.003,-0.01 0.149,0.179 0.105,0.276 -0.162,0.35 -0.011,0.559 0.286,0.586 0.362,0.031 0.41,-0.25 0.35,-0.558 -0.017,-0.088 0.027,-0.188 0.054,-0.349 0.846,-0.151 1.706,-0.267 2.548,-0.463 1.056,-0.247 1.221,-1.419 0.742,-1.965 -0.198,-0.227 -0.423,-0.43 -0.642,-0.637 -0.359,-0.34 -0.563,-0.729 -0.441,-1.282 0.439,-0.048 0.86,-0.094 1.328,-0.146 v -2.213 c -0.35,-0.263 -0.708,-0.533 -1.106,-0.831 0.221,-0.286 0.397,-0.512 0.449,-0.581 -0.12,-0.705 -0.282,-1.238 -0.29,-1.774 -0.03,-2.076 -0.012,-4.152 -0.012,-6.299 0.356,-0.14 0.701,-0.254 1.026,-0.409 0.483,-0.231 0.974,-0.457 1.422,-0.746 1.244,-0.801 1.377,-1.224 0.803,-2.559 -0.329,-0.763 -0.672,-1.53 -1.101,-2.24 -0.169,-0.277 -0.572,-0.448 -0.904,-0.582 -0.368,-0.148 -0.776,-0.199 -1.279,-0.318 v -1.773 -1.789 c 0.773,-0.406 1.497,-0.749 2.184,-1.156 0.902,-0.534 0.903,-0.582 0.725,-1.605 -0.075,-0.428 -0.139,-0.862 -0.254,-1.28 -0.026,-0.091 -0.252,-0.127 -0.385,-0.188 -0.2,0.132 -0.4,0.265 -0.6,0.398 -0.646,0.581 -0.647,0.581 -1.591,0.84 -0.027,-0.228 -0.074,-0.446 -0.076,-0.664 -0.018,-2.112 -0.047,-4.224 -0.033,-6.335 0.005,-0.677 0.059,-1.37 0.224,-2.023 0.073,-0.286 0.479,-0.488 0.864,-0.851 v -1.934 c 0.444,-0.144 0.814,-0.264 1.204,-0.391 v -4.426 c -0.498,0.122 -0.935,0.16 -1.311,0.334 -0.881,0.408 -1.731,0.434 -2.615,0.026 -0.9,-0.416 -1.818,-0.422 -2.72,0 -0.843,0.4 -1.667,0.39 -2.523,0.022 -0.416,-0.179 -0.88,-0.244 -1.419,-0.386 v 4.454 c 0.352,0.101 0.7,0.2 1.161,0.332 0.04,0.688 0.083,1.406 0.129,2.183 0.63,0.152 0.739,0.566 0.884,1.199 0.327,1.436 0.137,2.856 0.177,4.278 0.059,2.144 0.02,4.29 0.031,6.436 0.003,0.416 -0.053,0.741 -0.444,1.03 -1.99,1.469 -1.684,1.202 -1.397,3.598 0.006,0.052 0.07,0.097 0.132,0.179 0.272,-0.167 0.546,-0.336 0.821,-0.505 0.232,-0.199 0.465,-0.398 0.697,-0.598 0.052,0.07 0.103,0.139 0.155,0.21 -0.254,0.161 -0.509,0.323 -0.763,0.484 -0.303,0.341 -0.606,0.682 -1.017,1.145 0.669,0.276 1.205,0.499 1.778,0.736 v 2.5 c -1.63,0.019 -3.184,-0.266 -4.814,-0.725 -0.017,-0.369 -0.047,-0.725 -0.048,-1.082 -0.006,-5.097 -0.007,-10.194 -0.013,-15.291 -0.002,-1.958 -0.477,-3.778 -1.605,-5.403 -0.818,-1.18 -1.844,-2.136 -3.131,-2.771 -8.383,-4.142 -16.795,-4.107 -25.136,0.046 -3.186,1.586 -4.708,4.385 -4.737,7.939 -0.028,3.587 0.009,7.176 0.015,10.764 0.003,1.907 0,3.815 0,5.798 -1.587,0.604 -3.22,0.773 -4.942,0.838 v -2.491 c 0.535,-0.216 1.083,-0.438 1.788,-0.723 -0.332,-0.385 -0.563,-0.689 -0.831,-0.954 -0.247,-0.243 -0.534,-0.443 -0.803,-0.663 0.041,-0.056 0.082,-0.113 0.123,-0.169 0.462,0.343 0.924,0.686 1.546,1.147 0.057,-0.896 0.185,-1.655 0.115,-2.397 -0.03,-0.325 -0.405,-0.728 -0.727,-0.896 -1.156,-0.602 -1.334,-1.543 -1.303,-2.74 0.073,-2.815 0.007,-5.633 0.028,-8.45 0.004,-0.582 0.07,-1.185 0.247,-1.734 0.094,-0.294 0.485,-0.493 0.857,-0.844 v -1.926 c 0.41,-0.124 0.779,-0.235 1.217,-0.367 v -4.47 c -0.498,0.129 -0.956,0.196 -1.371,0.367 -0.888,0.364 -1.756,0.385 -2.629,-0.01 -0.878,-0.393 -1.755,-0.389 -2.627,10e-4 -0.877,0.392 -1.742,0.371 -2.63,0.018 -0.39,-0.156 -0.819,-0.213 -1.356,-0.346 -0.134,1.546 -0.075,2.967 -0.05,4.436 0.429,0.122 0.832,0.238 1.276,0.364 v 2.097 c 0.646,0.214 1.119,0.545 0.853,1.309 0.626,2.771 0.152,5.575 0.355,8.545 -0.925,-0.341 -1.686,-0.59 -2.21,-1.287 z" style="fill:#000000;fill-opacity:1;fill-rule:nonzero;stroke:none" id="path888"></path><path d="m 654.0219,1376.8965 c 0.2,-0.133 0.4,-0.266 0.6,-0.398 0.131,-0.222 0.263,-0.445 0.387,-0.654 -0.517,-0.565 -0.999,-1.094 -1.478,-1.618 -0.804,0.945 -0.606,2.136 0.491,2.67" style="fill:#000000;fill-opacity:1;fill-rule:nonzero;stroke:none" id="path892"></path><path d="m 593.827,1376.707 c 0.216,0.049 0.432,0.097 0.648,0.146 0.725,-0.779 0.805,-1.341 0.415,-2.092 -0.416,0.371 -0.878,0.783 -1.414,1.261 0.093,0.174 0.238,0.447 0.383,0.719 0,0 -0.032,-0.034 -0.032,-0.034" style="fill:#000000;fill-opacity:1;fill-rule:nonzero;stroke:none" id="path896"></path><path d="m 637.7286,1374.5469 c 0.045,0.046 0.093,0.088 0.143,0.127 0.245,-10e-4 0.491,0 0.736,0 0.238,-0.392 0.412,-0.778 -0.068,-1.125 h -0.642 c -0.046,0.044 -0.095,0.085 -0.147,0.121 -0.008,0.294 -0.015,0.588 -0.022,0.882" style="fill:#000000;fill-opacity:1;fill-rule:nonzero;stroke:none" id="path900"></path><path d="m 628.2433,1367.9756 c -0.8,-0.256 -0.867,-0.203 -1.005,0.785 0.212,0.093 0.424,0.187 0.636,0.279 l -0.041,0.015 c 0.371,-0.27 0.507,-0.63 0.41,-1.079" style="fill:#000000;fill-opacity:1;fill-rule:nonzero;stroke:none" id="path904"></path><path d="m 627.2621,1374.6465 c 0.055,-0.052 0.11,-0.104 0.165,-0.156 0.004,-0.3 0.009,-0.601 0.013,-0.902 -0.128,0 -0.257,-10e-4 -0.385,-10e-4 -0.142,-0.01 -0.284,-0.015 -0.426,-0.023 -0.046,0.036 -0.094,0.07 -0.143,0.101 -0.194,0.389 -0.097,0.727 0.182,1.034 l -0.04,-0.03 z" style="fill:#000000;fill-opacity:1;fill-rule:nonzero;stroke:none" id="path908"></path><path d="m 637.7706,1367.8613 c -0.164,0 -0.387,-0.07 -0.48,0.011 -0.174,0.151 -0.352,0.382 -0.372,0.594 -0.011,0.129 0.29,0.419 0.414,0.401 0.208,-0.031 0.425,-0.224 0.564,-0.406 0.077,-0.101 0.003,-0.317 -0.003,-0.481 -0.038,-0.044 -0.079,-0.083 -0.123,-0.119" style="fill:#000000;fill-opacity:1;fill-rule:nonzero;stroke:none" id="path912"></path><path d="m 637.4908,1400.2529 c 0.218,-0.157 0.346,-0.249 0.535,-0.385 0.304,0.189 0.633,0.394 0.992,0.615 0.03,-0.147 0.087,-0.251 0.063,-0.333 -0.331,-1.149 -0.465,-2.367 -1.457,-3.253 -0.248,-0.222 -0.269,-0.812 -0.226,-1.215 0.051,-0.489 0.302,-0.952 0.428,-1.437 0.126,-0.481 0.276,-0.973 0.289,-1.464 0.025,-0.949 -0.321,-1.431 -1.241,-1.7 -0.474,-0.138 -0.784,-0.331 -0.873,-0.828 -0.094,-0.522 0.069,-0.893 0.541,-1.178 0.233,-0.141 0.38,-0.426 0.551,-0.629 -0.217,-0.407 -0.431,-0.715 -0.548,-1.058 -0.104,-0.303 -0.112,-0.643 -0.139,-0.968 -0.034,-0.409 -0.045,-0.821 -0.08,-1.496 -0.39,0.372 -0.605,0.576 -0.899,0.856 -0.196,-0.127 -0.427,-0.276 -0.66,-0.427 -0.474,0.343 -0.072,0.779 -0.055,1.254 -0.272,0.062 -0.531,0.123 -0.792,0.184 0.083,0.954 1.309,0.369 1.632,1.241 -0.625,-0.111 -1.219,-0.271 -1.5,0.348 -0.213,0.471 -0.328,0.986 -0.514,1.567 -0.247,0.066 -0.516,0.042 -0.484,-0.401 0.023,-0.331 0.127,-0.655 0.177,-0.985 0.089,-0.586 -0.104,-0.807 -0.701,-0.776 -0.366,0.02 -0.729,0.08 -1.147,0.129 -0.213,-0.292 -0.443,-0.607 -0.677,-0.927 -0.607,0.07 -0.264,0.721 -0.544,0.921 -0.271,0.194 -0.659,0.222 -1.059,0.342 -0.038,0.583 0.554,0.569 0.987,0.841 -0.151,0.226 -0.301,0.451 -0.447,0.671 0.709,0.344 0.808,0.337 1.259,-0.275 0.207,-0.279 0.412,-0.429 0.847,-0.232 -0.581,0.522 -0.661,1.182 -0.452,1.857 0.262,0.849 1.082,0.571 1.708,0.696 -0.591,0.605 -1.138,1.165 -1.698,1.737 -0.34,-0.183 -0.738,-0.39 -1.128,-0.61 -0.24,-0.136 -0.417,-0.426 -0.742,-0.047 -0.111,0.13 -0.508,0.046 -0.602,-0.314 -0.089,-0.342 -0.225,-0.671 -0.34,-1.005 -0.662,0.03 -0.466,0.673 -0.788,0.987 -0.239,0.038 -0.52,0.082 -1.009,0.16 0.377,0.341 0.628,0.568 0.879,0.795 0.065,0.056 0.13,0.113 0.195,0.171 -0.195,0.208 -0.39,0.417 -0.621,0.665 0.176,0.252 0.662,0.235 0.933,-0.01 0.572,-0.506 0.969,-0.2 1.414,0.117 0.108,0.077 0.21,0.163 0.34,0.265 -0.131,0.535 -0.557,0.705 -1,0.857 -0.576,0.197 -0.797,0.534 -0.914,1.198 -0.028,0.166 -0.269,0.378 -0.444,0.416 -0.317,0.068 -0.659,0.019 -0.972,0.019 -0.292,0.604 0.356,0.654 0.536,1.089 -0.186,0.214 -0.405,0.466 -0.647,0.745 0.407,0.578 0.914,0.121 1.397,0.053 0.186,0.306 0.373,0.615 0.587,0.968 0.561,-0.308 0.553,-0.78 0.334,-1.256 -0.236,-0.515 -0.037,-0.813 0.376,-1.089 0.871,-0.582 1.742,-1.127 2.848,-0.61 -0.092,0.344 -0.179,0.669 -0.285,1.065 -0.823,-0.093 -1.217,0.646 -1.788,1.169 0.894,0.738 1.319,-0.283 2.036,-0.499 -0.077,0.334 -0.14,0.607 -0.202,0.873 0.533,0.246 1.02,0.497 1.526,0.698 0.766,0.305 0.218,0.925 0.32,1.387 1.413,-0.476 2.503,-1.306 3.251,-2.636 -0.35,-0.057 -0.748,-0.12 -1.093,-0.175 -0.484,-0.605 0.208,-1.347 -0.346,-1.906 0.163,-0.32 0.341,-0.672 0.529,-1.042 -0.35,-0.307 -0.653,-0.571 -0.956,-0.836 -0.05,0.038 -0.1,0.076 -0.15,0.114 -0.02,-0.222 0.024,-0.476 -0.07,-0.661 -0.529,-1.047 0.219,-1.679 0.757,-2.359 0.327,-0.414 0.82,-0.465 1.287,-0.28 0.475,0.19 0.548,0.638 0.537,1.094 -0.004,0.134 -0.013,0.273 -0.055,0.398 -0.465,1.387 -0.616,2.806 -0.348,4.248 0.151,0.813 0.387,1.612 0.602,2.487" style="fill:#000000;fill-opacity:1;fill-rule:nonzero;stroke:none" id="path916"></path><path d="m 627.8756,1383.4707 c -0.026,1.227 -0.398,2.388 -1.274,3.345 -1.397,1.526 -3.471,1.487 -4.834,-0.068 -1.595,-1.818 -1.597,-4.945 -0.004,-6.765 1.362,-1.557 3.431,-1.596 4.831,-0.07 0.904,0.985 1.276,2.178 1.281,3.558 m -7.719,-0.033 c 0.011,1.466 0.453,2.767 1.505,3.814 1.465,1.458 3.532,1.48 5.038,0.073 2.134,-1.994 2.116,-5.978 -0.037,-7.953 -1.488,-1.365 -3.515,-1.338 -4.964,0.066 -1.022,0.99 -1.559,2.383 -1.542,4" style="fill:#000000;fill-opacity:1;fill-rule:nonzero;stroke:none" id="path920"></path><path d="m 623.0765,1407.6504 -0.021,-0.146 h 2.221 c 0,0.048 10e-4,0.097 10e-4,0.146 z m 1.084,0.469 c 0.399,0 0.811,0.057 1.193,-0.024 0.192,-0.041 0.457,-0.333 0.458,-0.512 10e-4,-0.186 -0.267,-0.524 -0.436,-0.536 -0.793,-0.054 -1.595,-0.052 -2.387,0.01 -0.181,0.013 -0.445,0.319 -0.481,0.522 -0.058,0.339 0.208,0.541 0.554,0.555 0.366,0.015 0.733,0 1.099,0 z" style="fill:#000000;fill-opacity:1;fill-rule:nonzero;stroke:none" id="path924"></path><path d="m 630.515,1407.0137 c 0.011,0.089 0.021,0.179 0.032,0.269 -0.53,0.067 -1.06,0.134 -1.59,0.202 -0.012,-0.086 -0.023,-0.172 -0.035,-0.258 0.531,-0.071 1.062,-0.143 1.593,-0.213 m -0.96,0.888 c 0.24,-0.044 0.661,-0.122 1.082,-0.196 0.353,-0.06 0.522,-0.27 0.491,-0.621 -0.033,-0.363 -0.29,-0.529 -0.613,-0.513 -0.494,0.024 -0.987,0.092 -1.475,0.172 -0.356,0.058 -0.632,0.245 -0.592,0.66 0.042,0.43 0.364,0.501 0.722,0.498 0.066,-10e-4 0.132,0 0.385,0" style="fill:#000000;fill-opacity:1;fill-rule:nonzero;stroke:none" id="path928"></path><path d="m 617.7889,1407.2813 c 0.512,-0.178 1.076,-0.319 1.666,0.174 -0.36,0 -0.589,0.021 -0.812,-0.01 -0.287,-0.035 -0.57,-0.11 -0.854,-0.168 m 0.286,0.645 c 0.429,-0.01 0.867,0.039 1.285,-0.034 0.209,-0.036 0.507,-0.261 0.536,-0.439 0.029,-0.178 -0.194,-0.545 -0.362,-0.582 -0.607,-0.135 -1.235,-0.196 -1.858,-0.213 -0.154,0 -0.413,0.25 -0.446,0.42 -0.033,0.173 0.108,0.434 0.254,0.572 0.158,0.149 0.408,0.199 0.621,0.294 0.003,10e-4 -0.03,-0.018 -0.03,-0.018" style="fill:#000000;fill-opacity:1;fill-rule:nonzero;stroke:none" id="path932"></path><path d="m 616.5067,1406.8594 c -0.354,-0.262 -0.544,-0.499 -0.776,-0.551 -0.334,-0.075 -0.55,0.156 -0.569,0.51 -0.02,0.364 0.221,0.594 0.528,0.563 0.233,-0.023 0.444,-0.271 0.817,-0.522" style="fill:#000000;fill-opacity:1;fill-rule:nonzero;stroke:none" id="path936"></path><path d="m 622.0834,1407.4639 c -0.393,-0.246 -0.618,-0.495 -0.835,-0.488 -0.17,0.01 -0.428,0.307 -0.471,0.513 -0.07,0.332 0.174,0.625 0.514,0.575 0.227,-0.035 0.42,-0.305 0.792,-0.6" style="fill:#000000;fill-opacity:1;fill-rule:nonzero;stroke:none" id="path940"></path><path d="m 627.0868,1408.3047 c 0.242,-0.382 0.478,-0.598 0.504,-0.836 0.037,-0.329 -0.225,-0.553 -0.57,-0.535 -0.34,0.017 -0.595,0.252 -0.523,0.581 0.051,0.237 0.309,0.431 0.589,0.79" style="fill:#000000;fill-opacity:1;fill-rule:nonzero;stroke:none" id="path944"></path><path d="m 632.6473,1405.9971 c -0.272,0.39 -0.509,0.586 -0.545,0.813 -0.054,0.347 0.218,0.583 0.553,0.502 0.2,-0.047 0.486,-0.308 0.488,-0.477 0.003,-0.215 -0.241,-0.435 -0.496,-0.838" style="fill:#000000;fill-opacity:1;fill-rule:nonzero;stroke:none" id="path948"></path><path d="m 638.7101,1381.1357 c 0.017,-0.196 0.07,-0.397 0.043,-0.587 -0.043,-0.31 -0.273,-0.491 -0.566,-0.392 -0.182,0.062 -0.386,0.265 -0.441,0.448 -0.088,0.292 0.099,0.519 0.411,0.554 0.19,0.022 0.391,-0.035 0.587,-0.056 0,0 -0.034,0.033 -0.034,0.033" style="fill:#000000;fill-opacity:1;fill-rule:nonzero;stroke:none" id="path952"></path><path d="m 623.4674,1381.9404 c 0.233,0.616 0.4,1.056 0.59,1.559 0.659,-0.424 0.637,-0.979 0.712,-1.491 0.875,-0.454 0.897,-0.544 0.393,-1.408 -0.079,-0.136 -0.113,-0.3 -0.166,-0.45 -0.298,-0.835 -0.492,-0.924 -1.477,-0.636 -0.018,0.321 -0.035,0.659 -0.055,0.998 -0.003,0.052 -0.005,0.116 -0.034,0.154 -0.676,0.897 -0.677,0.897 0.037,1.274" style="fill:#000000;fill-opacity:1;fill-rule:nonzero;stroke:none" id="path956"></path><path d="m 623.0013,1382.6865 h -1.135 c -0.317,0.526 -0.168,1.034 -0.62,1.427 -0.439,0.382 -0.223,0.757 0.434,1.104 0.203,0.546 0.379,1.022 0.627,1.692 0.271,-0.408 0.434,-0.605 0.543,-0.829 0.2,-0.409 0.062,-1.005 0.717,-1.173 0.069,-0.018 0.075,-0.745 0.007,-0.764 -0.583,-0.158 -0.28,-0.708 -0.497,-1.009 -0.051,-0.072 -0.036,-0.192 -0.076,-0.448" style="fill:#000000;fill-opacity:1;fill-rule:nonzero;stroke:none" id="path960"></path><path d="m 626.5795,1385.2393 c 0.897,-0.434 0.918,-0.573 0.206,-1.313 -0.041,-0.042 -0.045,-0.13 -0.048,-0.199 -0.051,-1.151 -0.237,-1.286 -1.389,-0.95 -0.033,0.294 -0.06,0.608 -0.107,0.917 -0.013,0.081 -0.074,0.172 -0.14,0.225 -0.669,0.539 -0.604,0.889 0.214,1.279 0.164,0.515 0.321,1.008 0.498,1.563 0.723,-0.388 0.674,-0.988 0.766,-1.522" style="fill:#000000;fill-opacity:1;fill-rule:nonzero;stroke:none" id="path964"></path><path d="m 673.1847,1400.0039 h 2.716 v -3.418 c -0.988,-0.437 -1.975,-0.646 -2.963,-0.646 -1.329,0 -2.392,0.399 -3.209,1.177 -0.798,0.779 -1.197,1.747 -1.197,2.887 0,1.196 0.418,2.203 1.235,3 0.835,0.798 1.861,1.196 3.114,1.196 0.456,0 0.893,-0.056 1.292,-0.151 0.398,-0.095 0.93,-0.285 1.538,-0.532 v -1.177 c -0.969,0.551 -1.918,0.835 -2.868,0.835 -0.873,0 -1.614,-0.304 -2.222,-0.892 -0.607,-0.589 -0.911,-1.33 -0.911,-2.203 0,-0.912 0.304,-1.671 0.911,-2.241 0.608,-0.589 1.387,-0.874 2.336,-0.874 0.456,0 1.007,0.114 1.652,0.323 l 0.114,0.038 v 1.653 h -1.557 v 1.025 z" style="fill:#000000;fill-opacity:1;fill-rule:nonzero;stroke:none" id="path968"></path><path d="m 681.7682,1403.1182 c -0.93,0 -1.69,-0.285 -2.279,-0.874 -0.588,-0.588 -0.892,-1.31 -0.892,-2.202 0,-0.874 0.304,-1.596 0.892,-2.165 0.589,-0.57 1.349,-0.873 2.241,-0.873 0.893,0 1.652,0.284 2.26,0.873 0.608,0.589 0.912,1.329 0.912,2.203 0,0.854 -0.304,1.576 -0.912,2.164 -0.608,0.57 -1.348,0.874 -2.222,0.874 m -0.038,1.082 c 1.253,0 2.279,-0.398 3.115,-1.177 0.835,-0.798 1.234,-1.785 1.234,-2.963 0,-1.176 -0.418,-2.165 -1.254,-2.943 -0.835,-0.778 -1.898,-1.178 -3.171,-1.178 -1.215,0 -2.221,0.4 -3.038,1.178 -0.817,0.778 -1.215,1.747 -1.215,2.925 0,1.196 0.398,2.202 1.215,2.981 0.835,0.779 1.861,1.177 3.114,1.177" style="fill:#000000;fill-opacity:1;fill-rule:nonzero;stroke:none" id="path972"></path><path d="m 689.934,1399.6055 h -1.083 v -2.564 h 1.14 c 0.627,0 1.064,0.057 1.291,0.152 0.228,0.095 0.399,0.247 0.551,0.456 0.133,0.209 0.209,0.436 0.209,0.664 0,0.247 -0.076,0.476 -0.209,0.684 -0.152,0.209 -0.342,0.361 -0.608,0.456 -0.303,0.114 -0.721,0.152 -1.291,0.152 m -0.076,3.456 h -0.987 v -2.431 h 0.759 c 0.608,0 1.045,0.114 1.311,0.361 0.265,0.228 0.398,0.531 0.398,0.911 -0.019,0.779 -0.512,1.159 -1.481,1.159 m 0.57,-7.026 h -2.735 v 8.07 h 2.108 c 0.665,0 1.177,-0.095 1.558,-0.266 0.379,-0.171 0.664,-0.418 0.854,-0.74 0.19,-0.323 0.285,-0.683 0.285,-1.083 0,-0.797 -0.418,-1.367 -1.234,-1.709 0.588,-0.114 1.063,-0.36 1.405,-0.722 0.342,-0.379 0.532,-0.816 0.532,-1.348 0,-0.417 -0.114,-0.778 -0.324,-1.101 -0.208,-0.323 -0.531,-0.589 -0.93,-0.798 -0.38,-0.209 -0.892,-0.303 -1.519,-0.303" style="fill:#000000;fill-opacity:1;fill-rule:nonzero;stroke:none" id="path976"></path><path d="m 694.568,1404.087 h 1.159 v -8.071 h -1.159 z" style="fill:#000000;fill-opacity:1;fill-rule:nonzero;stroke:none" id="path978"></path><path d="m 697.7198,1404.0869 h 4.577 v -1.025 h -3.418 v -2.451 h 3.304 v -1.025 h -3.304 v -2.507 h 3.532 v -1.025 h -4.672 v 8.033 z" style="fill:#000000;fill-opacity:1;fill-rule:nonzero;stroke:none" id="path982"></path><path d="m 705.3541,1403.1182 h -0.342 v -2.545 h 0.437 c 0.589,0 0.988,0.058 1.196,0.152 0.209,0.095 0.38,0.247 0.513,0.456 0.133,0.208 0.19,0.437 0.19,0.684 0,0.246 -0.076,0.475 -0.209,0.684 -0.133,0.209 -0.323,0.341 -0.57,0.436 -0.247,0.076 -0.645,0.133 -1.215,0.133 m -1.5,-7.083 v 8.07 h 2.012 c 0.817,0 1.463,-0.209 1.937,-0.607 0.476,-0.399 0.722,-0.949 0.722,-1.633 0,-0.476 -0.114,-0.874 -0.361,-1.216 -0.227,-0.342 -0.569,-0.607 -1.006,-0.76 0.266,-0.17 0.513,-0.398 0.759,-0.683 0.247,-0.284 0.589,-0.797 1.045,-1.538 0.285,-0.456 0.513,-0.798 0.684,-1.026 l 0.417,-0.569 h -1.367 l -0.361,0.531 c -0.019,0.019 -0.038,0.058 -0.076,0.095 l -0.228,0.323 -0.36,0.589 -0.38,0.626 c -0.247,0.323 -0.456,0.589 -0.646,0.798 -0.19,0.19 -0.38,0.342 -0.532,0.418 -0.152,0.095 -0.436,0.133 -0.797,0.133 h -0.304 v -3.513 h -1.158 z" style="fill:#000000;fill-opacity:1;fill-rule:nonzero;stroke:none" id="path986"></path><path d="m 717.5646,1404.0869 h 1.101 v -8.071 h -0.987 l -5.393,6.228 v -6.209 h -1.083 v 8.071 h 0.931 l 5.431,-6.267 z" style="fill:#000000;fill-opacity:1;fill-rule:nonzero;stroke:none" id="path990"></path><path d="m 724.5909,1403.1182 c -0.931,0 -1.69,-0.285 -2.279,-0.874 -0.589,-0.588 -0.892,-1.31 -0.892,-2.202 0,-0.874 0.303,-1.596 0.892,-2.165 0.589,-0.57 1.348,-0.873 2.241,-0.873 0.893,0 1.652,0.284 2.26,0.873 0.608,0.589 0.912,1.329 0.912,2.203 0,0.854 -0.304,1.576 -0.912,2.164 -0.608,0.57 -1.348,0.874 -2.222,0.874 m -0.038,1.082 c 1.253,0 2.279,-0.398 3.114,-1.177 0.836,-0.798 1.235,-1.785 1.235,-2.963 0,-1.176 -0.418,-2.165 -1.254,-2.943 -0.835,-0.778 -1.899,-1.178 -3.171,-1.178 -1.215,0 -2.222,0.4 -3.038,1.178 -0.817,0.778 -1.216,1.747 -1.216,2.925 0,1.196 0.399,2.202 1.216,2.981 0.835,0.779 1.861,1.177 3.114,1.177" style="fill:#000000;fill-opacity:1;fill-rule:nonzero;stroke:none" id="path994"></path><path d="m 671.4379,1390.4707 h -1.443 v -6.001 h 1.481 c 0.57,0 1.025,0.038 1.348,0.114 0.323,0.076 0.589,0.171 0.798,0.304 0.209,0.133 0.418,0.266 0.588,0.456 0.57,0.569 0.855,1.311 0.855,2.184 0,0.874 -0.285,1.576 -0.873,2.127 -0.21,0.209 -0.456,0.379 -0.741,0.494 -0.285,0.133 -0.551,0.209 -0.798,0.265 -0.266,0.038 -0.664,0.057 -1.215,0.057 m -2.602,-7.007 v 8.052 h 2.716 c 1.101,0 1.956,-0.171 2.602,-0.494 0.645,-0.322 1.139,-0.817 1.519,-1.444 0.379,-0.645 0.569,-1.329 0.569,-2.088 0,-0.532 -0.095,-1.064 -0.303,-1.539 -0.209,-0.493 -0.513,-0.93 -0.893,-1.291 -0.399,-0.379 -0.854,-0.683 -1.367,-0.874 -0.304,-0.114 -0.589,-0.189 -0.836,-0.247 -0.247,-0.037 -0.74,-0.056 -1.462,-0.056 h -2.545 z" style="fill:#000000;fill-opacity:1;fill-rule:nonzero;stroke:none" id="path998"></path><path d="m 677.8942,1391.5156 h 4.577 v -1.025 h -3.419 v -2.451 h 3.305 v -1.025 h -3.305 v -2.507 h 3.533 v -1.025 h -4.672 v 8.033 z" style="fill:#000000;fill-opacity:1;fill-rule:nonzero;stroke:none" id="path1002"></path><path d="m 687.4845,1391.5156 h 4.576 v -1.025 h -3.418 v -2.451 h 3.305 v -1.025 h -3.305 v -2.507 h 3.513 v -1.025 h -4.671 z" style="fill:#000000;fill-opacity:1;fill-rule:nonzero;stroke:none" id="path1006"></path><path d="m 695.5929,1386.8242 -0.874,0.532 c -0.55,0.342 -0.949,0.665 -1.177,0.988 -0.228,0.323 -0.341,0.703 -0.341,1.12 0,0.627 0.227,1.159 0.664,1.539 0.437,0.398 1.007,0.588 1.709,0.588 0.665,0 1.291,-0.19 1.861,-0.57 v -1.31 c -0.589,0.551 -1.215,0.836 -1.88,0.836 -0.379,0 -0.683,-0.095 -0.93,-0.266 -0.247,-0.171 -0.361,-0.399 -0.361,-0.665 0,-0.247 0.095,-0.475 0.266,-0.684 0.171,-0.209 0.474,-0.436 0.855,-0.664 l 0.873,-0.513 c 0.987,-0.589 1.481,-1.329 1.481,-2.241 0,-0.645 -0.209,-1.177 -0.646,-1.576 -0.437,-0.399 -0.987,-0.607 -1.69,-0.607 -0.797,0 -1.519,0.246 -2.184,0.74 v 1.462 c 0.627,-0.797 1.349,-1.178 2.166,-1.178 0.36,0 0.664,0.096 0.911,0.305 0.247,0.209 0.36,0.456 0.36,0.759 0,0.494 -0.36,0.968 -1.063,1.405" style="fill:#000000;fill-opacity:1;fill-rule:nonzero;stroke:none" id="path1010"></path><path d="m 701.4991,1390.4902 h -1.197 v -2.526 h 1.273 c 0.475,0 0.836,0.114 1.082,0.323 0.247,0.227 0.38,0.531 0.38,0.949 0,0.836 -0.513,1.254 -1.538,1.254 m -2.355,-7.046 v 8.071 h 2.564 c 0.778,0 1.386,-0.209 1.842,-0.627 0.456,-0.418 0.683,-0.968 0.683,-1.67 0,-0.475 -0.114,-0.893 -0.36,-1.254 -0.228,-0.361 -0.551,-0.626 -0.969,-0.779 -0.399,-0.171 -0.987,-0.247 -1.747,-0.247 h -0.855 v -3.494 z" style="fill:#000000;fill-opacity:1;fill-rule:nonzero;stroke:none" id="path1014"></path><path d="m 708.7533,1386.8633 -1.291,2.924 -1.216,-2.924 z m -1.69,4.69 h 0.816 l 3.608,-8.109 h -1.177 l -1.082,2.393 h -3.437 l -1.007,-2.393 h -1.177 z" style="fill:#000000;fill-opacity:1;fill-rule:nonzero;stroke:none" id="path1018"></path><path d="m 718.1725,1393.6992 c 0,-0.475 -0.114,-0.836 -0.323,-1.082 -0.171,-0.21 -0.361,-0.305 -0.608,-0.305 -0.209,0 -0.493,0.076 -0.854,0.229 -0.361,0.151 -0.627,0.227 -0.817,0.227 -0.095,0 -0.19,-0.038 -0.266,-0.114 -0.076,-0.075 -0.114,-0.189 -0.133,-0.342 h -0.493 c 0.056,0.551 0.171,0.912 0.342,1.083 0.17,0.19 0.36,0.266 0.607,0.266 0.228,0 0.589,-0.095 1.083,-0.304 0.265,-0.095 0.436,-0.152 0.55,-0.152 0.114,0 0.19,0.038 0.266,0.114 0.076,0.076 0.133,0.209 0.152,0.38 z m 0.797,-2.184 h 1.102 v -8.071 h -0.988 l -5.393,6.21 v -6.21 h -1.082 v 8.071 h 0.93 l 5.431,-6.266 z" style="fill:#000000;fill-opacity:1;fill-rule:nonzero;stroke:none" id="path1022"></path><path d="m 726.2621,1386.8633 -1.292,2.924 -1.215,-2.924 z m -1.69,4.69 h 0.816 l 3.608,-8.109 h -1.177 l -1.082,2.393 h -3.437 l -1.007,-2.393 h -1.177 z" style="fill:#000000;fill-opacity:1;fill-rule:nonzero;stroke:none" id="path1026"></path><path d="m 767.912,1404.0879 h 1.08 v -8.069 h -1.161 v 6.279 l -2.481,-3.12 h -0.214 l -2.51,3.12 v -6.279 h -1.155 v 8.069 h 1.094 l 2.681,-3.314 z" style="fill:#000000;fill-opacity:1;fill-rule:nonzero;stroke:none" id="path1030"></path><path d="m 770.944,1404.088 h 1.155 v -8.069 h -1.155 z" style="fill:#000000;fill-opacity:1;fill-rule:nonzero;stroke:none" id="path1032"></path><path d="m 780.5035,1404.0879 h 1.097 v -8.069 h -0.993 l -5.396,6.215 v -6.215 h -1.086 v 8.069 h 0.936 l 5.442,-6.268 z" style="fill:#000000;fill-opacity:1;fill-rule:nonzero;stroke:none" id="path1036"></path><path d="m 783.541,1404.088 h 1.156 v -8.069 h -1.156 z" style="fill:#000000;fill-opacity:1;fill-rule:nonzero;stroke:none" id="path1038"></path><path d="m 788.6871,1399.3994 -0.878,0.533 c -0.551,0.337 -0.943,0.667 -1.176,0.993 -0.233,0.326 -0.35,0.7 -0.35,1.123 0,0.636 0.221,1.153 0.662,1.549 0.441,0.397 1.014,0.595 1.718,0.595 0.674,0 1.293,-0.189 1.855,-0.567 v -1.312 c -0.581,0.56 -1.207,0.839 -1.877,0.839 -0.378,0 -0.688,-0.087 -0.931,-0.262 -0.242,-0.175 -0.363,-0.397 -0.363,-0.67 0,-0.242 0.089,-0.468 0.268,-0.679 0.178,-0.211 0.466,-0.432 0.862,-0.664 l 0.882,-0.523 c 0.984,-0.588 1.477,-1.336 1.477,-2.245 0,-0.647 -0.217,-1.173 -0.65,-1.577 -0.434,-0.404 -0.997,-0.607 -1.69,-0.607 -0.797,0 -1.523,0.245 -2.178,0.736 v 1.467 c 0.624,-0.791 1.346,-1.186 2.167,-1.186 0.361,0 0.663,0.101 0.904,0.303 0.24,0.201 0.36,0.453 0.36,0.757 0,0.491 -0.354,0.957 -1.062,1.397" style="fill:#000000;fill-opacity:1;fill-rule:nonzero;stroke:none" id="path1042"></path><path d="m 791.6207,1404.0996 h 6.741 v -1.028 h -2.813 v -7.053 h -1.161 v 7.053 h -2.767 z" style="fill:#000000;fill-opacity:1;fill-rule:nonzero;stroke:none" id="path1046"></path><path d="m 799.6547,1404.0879 h 4.575 v -1.028 h -3.419 v -2.46 h 3.304 v -1.034 h -3.304 v -2.508 h 3.529 v -1.029 h -4.685 z" style="fill:#000000;fill-opacity:1;fill-rule:nonzero;stroke:none" id="path1050"></path><path d="m 807.3085,1403.1064 h -0.347 v -2.548 h 0.439 c 0.585,0 0.987,0.05 1.205,0.151 0.217,0.099 0.387,0.251 0.508,0.453 0.122,0.202 0.182,0.432 0.182,0.69 0,0.255 -0.067,0.484 -0.202,0.691 -0.135,0.206 -0.325,0.351 -0.569,0.436 -0.245,0.084 -0.65,0.127 -1.216,0.127 m -1.502,-7.088 v 8.069 h 2.022 c 0.816,0 1.464,-0.202 1.944,-0.606 0.479,-0.404 0.719,-0.951 0.719,-1.641 0,-0.469 -0.118,-0.876 -0.353,-1.218 -0.234,-0.343 -0.571,-0.599 -1.011,-0.769 0.258,-0.169 0.511,-0.4 0.757,-0.692 0.247,-0.293 0.593,-0.803 1.04,-1.532 0.281,-0.458 0.506,-0.802 0.676,-1.034 l 0.428,-0.577 h -1.375 l -0.353,0.531 c -0.011,0.02 -0.034,0.052 -0.069,0.099 l -0.225,0.317 -0.357,0.59 -0.387,0.63 c -0.238,0.332 -0.457,0.595 -0.656,0.791 -0.198,0.196 -0.377,0.338 -0.538,0.424 -0.159,0.087 -0.428,0.13 -0.806,0.13 h -0.301 v -3.512 z" style="fill:#000000;fill-opacity:1;fill-rule:nonzero;stroke:none" id="path1054"></path><path d="m 813.13,1404.088 h 1.155 v -8.069 h -1.155 z" style="fill:#000000;fill-opacity:1;fill-rule:nonzero;stroke:none" id="path1056"></path><path d="m 820.2838,1403.1064 c -0.924,0 -1.682,-0.289 -2.277,-0.866 -0.595,-0.578 -0.891,-1.316 -0.891,-2.213 0,-0.87 0.297,-1.595 0.894,-2.172 0.596,-0.578 1.343,-0.866 2.239,-0.866 0.9,0 1.652,0.294 2.254,0.883 0.602,0.589 0.903,1.323 0.903,2.201 0,0.855 -0.301,1.574 -0.903,2.158 -0.602,0.583 -1.342,0.875 -2.219,0.875 m -0.046,1.098 c 1.247,0 2.285,-0.396 3.114,-1.185 0.829,-0.789 1.244,-1.779 1.244,-2.97 0,-1.189 -0.418,-2.174 -1.256,-2.954 -0.836,-0.78 -1.892,-1.17 -3.166,-1.17 -1.216,0 -2.229,0.39 -3.039,1.17 -0.81,0.78 -1.216,1.757 -1.216,2.932 0,1.205 0.408,2.203 1.224,2.992 0.816,0.789 1.848,1.185 3.095,1.185" style="fill:#000000;fill-opacity:1;fill-rule:nonzero;stroke:none" id="path1060"></path><path d="m 764.1053,1390.4863 h -1.445 v -6.002 h 1.48 c 0.577,0 1.026,0.04 1.345,0.119 0.32,0.078 0.587,0.179 0.801,0.3 0.213,0.121 0.409,0.271 0.586,0.448 0.57,0.577 0.855,1.307 0.855,2.19 0,0.866 -0.293,1.573 -0.878,2.12 -0.216,0.203 -0.463,0.371 -0.743,0.502 -0.279,0.131 -0.543,0.218 -0.794,0.26 -0.25,0.042 -0.653,0.063 -1.207,0.063 m -2.6,-7.03 v 8.058 h 2.721 c 1.098,0 1.966,-0.164 2.605,-0.494 0.64,-0.329 1.148,-0.813 1.525,-1.452 0.378,-0.64 0.566,-1.337 0.566,-2.092 0,-0.539 -0.104,-1.054 -0.311,-1.548 -0.208,-0.493 -0.505,-0.926 -0.89,-1.299 -0.393,-0.385 -0.849,-0.676 -1.369,-0.872 -0.304,-0.121 -0.584,-0.2 -0.838,-0.241 -0.254,-0.04 -0.739,-0.06 -1.455,-0.06 z" style="fill:#000000;fill-opacity:1;fill-rule:nonzero;stroke:none" id="path1064"></path><path d="m 770.568,1391.5146 h 4.575 v -1.028 h -3.419 v -2.46 h 3.304 v -1.034 h -3.304 v -2.508 h 3.529 v -1.029 h -4.685 z" style="fill:#000000;fill-opacity:1;fill-rule:nonzero;stroke:none" id="path1068"></path><path d="m 787.1281,1385.3164 v -1.271 c -0.847,-0.462 -1.825,-0.693 -2.934,-0.693 -0.902,0 -1.666,0.181 -2.294,0.543 -0.628,0.362 -1.125,0.86 -1.491,1.496 -0.365,0.635 -0.548,1.323 -0.548,2.063 0,1.174 0.419,2.162 1.257,2.963 0.837,0.801 1.87,1.202 3.099,1.202 0.847,0 1.788,-0.222 2.824,-0.665 v -1.242 c -0.943,0.54 -1.866,0.809 -2.767,0.809 -0.924,0 -1.691,-0.292 -2.302,-0.875 -0.61,-0.584 -0.915,-1.314 -0.915,-2.192 0,-0.886 0.3,-1.615 0.901,-2.184 0.601,-0.57 1.369,-0.855 2.305,-0.855 0.978,0 1.933,0.3 2.865,0.901" style="fill:#000000;fill-opacity:1;fill-rule:nonzero;stroke:none" id="path1072"></path><path d="m 794.3654,1391.5146 h 1.161 v -4.581 c 0,-0.62 -0.045,-1.088 -0.136,-1.403 -0.09,-0.317 -0.202,-0.579 -0.335,-0.788 -0.133,-0.211 -0.295,-0.399 -0.488,-0.564 -0.639,-0.551 -1.475,-0.826 -2.507,-0.826 -1.051,0 -1.895,0.273 -2.53,0.82 -0.193,0.169 -0.355,0.359 -0.488,0.57 -0.133,0.209 -0.243,0.466 -0.33,0.77 -0.086,0.305 -0.13,0.782 -0.13,1.433 v 4.569 h 1.162 v -4.581 c 0,-0.759 0.086,-1.286 0.259,-1.582 0.174,-0.297 0.438,-0.535 0.792,-0.714 0.354,-0.179 0.772,-0.269 1.253,-0.269 0.686,0 1.244,0.179 1.676,0.538 0.227,0.192 0.391,0.42 0.491,0.681 0.1,0.262 0.15,0.711 0.15,1.346 z" style="fill:#000000;fill-opacity:1;fill-rule:nonzero;stroke:none" id="path1076"></path><path d="m 797.328,1391.5146 h 1.156 v -7.019 h 3.633 v -1.051 h -4.789 z" style="fill:#000000;fill-opacity:1;fill-rule:nonzero;stroke:none" id="path1080"></path><path d="m 801.4572,1391.5264 h 6.741 v -1.028 h -2.813 v -7.054 h -1.161 v 7.054 h -2.767 z" style="fill:#000000;fill-opacity:1;fill-rule:nonzero;stroke:none" id="path1084"></path><path d="m 815.1068,1391.5146 h 1.161 v -4.581 c 0,-0.62 -0.045,-1.088 -0.136,-1.403 -0.09,-0.317 -0.202,-0.579 -0.335,-0.788 -0.133,-0.211 -0.295,-0.399 -0.488,-0.564 -0.639,-0.551 -1.475,-0.826 -2.507,-0.826 -1.051,0 -1.895,0.273 -2.53,0.82 -0.193,0.169 -0.355,0.359 -0.488,0.57 -0.133,0.209 -0.243,0.466 -0.329,0.77 -0.088,0.305 -0.13,0.782 -0.13,1.433 v 4.569 h 1.16 v -4.581 c 0,-0.759 0.087,-1.286 0.26,-1.582 0.174,-0.297 0.437,-0.535 0.792,-0.714 0.354,-0.179 0.772,-0.269 1.254,-0.269 0.685,0 1.243,0.179 1.675,0.538 0.227,0.192 0.391,0.42 0.491,0.681 0.1,0.262 0.15,0.711 0.15,1.346 z" style="fill:#000000;fill-opacity:1;fill-rule:nonzero;stroke:none" id="path1088"></path><path d="m 819.6061,1390.5332 h -0.347 v -2.548 h 0.439 c 0.585,0 0.987,0.05 1.204,0.151 0.218,0.099 0.387,0.251 0.509,0.453 0.121,0.202 0.182,0.432 0.182,0.69 0,0.254 -0.068,0.484 -0.203,0.691 -0.134,0.206 -0.324,0.351 -0.568,0.435 -0.245,0.085 -0.65,0.128 -1.216,0.128 m -1.502,-7.089 v 8.07 h 2.022 c 0.816,0 1.464,-0.202 1.944,-0.606 0.479,-0.404 0.719,-0.951 0.719,-1.641 0,-0.469 -0.118,-0.876 -0.353,-1.218 -0.234,-0.343 -0.571,-0.599 -1.011,-0.769 0.258,-0.169 0.511,-0.4 0.757,-0.692 0.247,-0.293 0.593,-0.804 1.04,-1.532 0.281,-0.459 0.506,-0.803 0.676,-1.034 l 0.427,-0.578 h -1.374 l -0.353,0.532 c -0.011,0.02 -0.034,0.052 -0.069,0.099 l -0.225,0.317 -0.357,0.59 -0.387,0.63 c -0.238,0.331 -0.457,0.595 -0.656,0.791 -0.198,0.196 -0.377,0.338 -0.538,0.424 -0.159,0.087 -0.428,0.13 -0.806,0.13 h -0.301 v -3.513 z" style="fill:#000000;fill-opacity:1;fill-rule:nonzero;stroke:none" id="path1092"></path><path d="m 829.6903,1386.8643 -1.302,2.924 -1.207,-2.924 z m -1.697,4.697 h 0.812 l 3.618,-8.117 h -1.182 l -1.076,2.392 h -3.443 l -1.008,-2.392 h -1.188 z" style="fill:#000000;fill-opacity:1;fill-rule:nonzero;stroke:none" id="path1096"></path><path d="m 766.3475,1378.9414 h 1.403 l -2.981,-3.801 v -4.269 h -1.184 v 4.269 l -2.981,3.801 h 1.394 l 2.16,-2.782 z" style="fill:#000000;fill-opacity:1;fill-rule:nonzero;stroke:none" id="path1100"></path><path d="m 774.9401,1377.9131 h -1.444 v -6.002 h 1.479 c 0.577,0 1.026,0.04 1.346,0.119 0.319,0.078 0.586,0.179 0.8,0.3 0.214,0.121 0.409,0.271 0.586,0.447 0.57,0.578 0.855,1.308 0.855,2.191 0,0.866 -0.293,1.572 -0.878,2.119 -0.216,0.204 -0.463,0.372 -0.742,0.503 -0.28,0.131 -0.544,0.218 -0.794,0.26 -0.251,0.042 -0.654,0.063 -1.208,0.063 m -2.6,-7.03 v 8.058 h 2.721 c 1.098,0 1.966,-0.164 2.606,-0.494 0.639,-0.329 1.148,-0.813 1.525,-1.452 0.377,-0.64 0.566,-1.337 0.566,-2.091 0,-0.54 -0.104,-1.055 -0.312,-1.549 -0.208,-0.493 -0.505,-0.925 -0.89,-1.299 -0.392,-0.385 -0.849,-0.676 -1.369,-0.872 -0.304,-0.121 -0.583,-0.2 -0.837,-0.241 -0.254,-0.04 -0.74,-0.06 -1.456,-0.06 z" style="fill:#000000;fill-opacity:1;fill-rule:nonzero;stroke:none" id="path1104"></path><path d="m 781.4034,1378.9414 h 4.575 v -1.028 h -3.42 v -2.461 h 3.305 v -1.034 h -3.305 v -2.507 h 3.53 v -1.029 h -4.685 z" style="fill:#000000;fill-opacity:1;fill-rule:nonzero;stroke:none" id="path1108"></path><path d="m 789.8134,1377.9248 h -1.196 v -2.524 h 1.265 c 0.47,0 0.832,0.111 1.086,0.332 0.254,0.221 0.382,0.538 0.382,0.95 0,0.828 -0.513,1.242 -1.537,1.242 m -2.357,-7.054 v 8.082 h 2.559 c 0.77,0 1.384,-0.208 1.843,-0.624 0.458,-0.416 0.687,-0.974 0.687,-1.675 0,-0.469 -0.117,-0.885 -0.352,-1.248 -0.235,-0.362 -0.557,-0.625 -0.965,-0.789 -0.408,-0.163 -0.994,-0.245 -1.756,-0.245 h -0.855 v -3.501 z" style="fill:#000000;fill-opacity:1;fill-rule:nonzero;stroke:none" id="path1112"></path><path d="m 797.7582,1377.96 c -0.923,0 -1.682,-0.289 -2.277,-0.867 -0.594,-0.577 -0.891,-1.316 -0.891,-2.212 0,-0.871 0.298,-1.595 0.894,-2.173 0.596,-0.577 1.343,-0.866 2.239,-0.866 0.901,0 1.652,0.295 2.254,0.884 0.602,0.589 0.903,1.323 0.903,2.201 0,0.855 -0.301,1.574 -0.903,2.158 -0.602,0.583 -1.342,0.875 -2.219,0.875 m -0.046,1.098 c 1.247,0 2.285,-0.396 3.114,-1.185 0.83,-0.79 1.244,-1.779 1.244,-2.969 0,-1.19 -0.418,-2.175 -1.255,-2.955 -0.837,-0.78 -1.893,-1.17 -3.167,-1.17 -1.216,0 -2.229,0.39 -3.039,1.17 -0.81,0.78 -1.215,1.757 -1.215,2.932 0,1.205 0.407,2.202 1.224,2.992 0.815,0.789 1.847,1.185 3.094,1.185" style="fill:#000000;fill-opacity:1;fill-rule:nonzero;stroke:none" id="path1116"></path><path d="m 805.2291,1377.96 h -0.346 v -2.548 h 0.439 c 0.585,0 0.986,0.05 1.204,0.151 0.218,0.099 0.387,0.251 0.508,0.453 0.122,0.202 0.183,0.432 0.183,0.69 0,0.254 -0.068,0.484 -0.203,0.691 -0.135,0.206 -0.324,0.351 -0.569,0.435 -0.245,0.085 -0.65,0.128 -1.216,0.128 m -1.502,-7.089 v 8.07 h 2.022 c 0.816,0 1.465,-0.202 1.944,-0.606 0.479,-0.404 0.719,-0.951 0.719,-1.641 0,-0.469 -0.117,-0.876 -0.352,-1.218 -0.235,-0.343 -0.572,-0.599 -1.011,-0.769 0.258,-0.169 0.51,-0.4 0.757,-0.693 0.246,-0.292 0.593,-0.803 1.04,-1.531 0.28,-0.458 0.506,-0.803 0.675,-1.034 l 0.428,-0.578 h -1.375 l -0.352,0.532 c -0.012,0.019 -0.035,0.052 -0.069,0.099 l -0.225,0.317 -0.358,0.59 -0.387,0.63 c -0.238,0.331 -0.457,0.595 -0.655,0.791 -0.199,0.196 -0.378,0.338 -0.538,0.424 -0.16,0.087 -0.429,0.13 -0.807,0.13 h -0.3 v -3.513 z" style="fill:#000000;fill-opacity:1;fill-rule:nonzero;stroke:none" id="path1120"></path><path d="m 809.2894,1378.9531 h 6.741 v -1.028 h -2.813 v -7.054 h -1.161 v 7.054 h -2.767 z" style="fill:#000000;fill-opacity:1;fill-rule:nonzero;stroke:none" id="path1124"></path><path d="m 817.3239,1378.9414 h 4.575 v -1.028 h -3.42 v -2.461 h 3.305 v -1.034 h -3.305 v -2.507 h 3.53 v -1.029 h -4.685 z" style="fill:#000000;fill-opacity:1;fill-rule:nonzero;stroke:none" id="path1128"></path></g></g></svg>