<svg xmlns:inkscape="http://www.inkscape.org/namespaces/inkscape" xmlns:sodipodi="http://sodipodi.sourceforge.net/DTD/sodipodi-0.dtd" xmlns="http://www.w3.org/2000/svg" xmlns:svg="http://www.w3.org/2000/svg" width="131.30728mm" height="40.884075mm" viewBox="0 0 131.30728 40.884075" id="svg5851" inkscape:version="1.1 (1:1.1+202105261517+ce6663b3b7)" sodipodi:docname="medialab.svg"><defs id="defs5848"></defs><g inkscape:label="Capa 1" inkscape:groupmode="layer" id="layer1" transform="translate(-37.212592,-134.83814)"><g id="g5782" transform="matrix(0.79547341,0,0,-0.79547341,-700.08562,1262.0071)"><path d="m 932.2157,1416.5361 5.086,-12.438 5.058,12.438 h 3.058 0.057 l 1.8,-21.081 h -2.886 l -1.314,15.363 -4.573,-11.252 h -2.428 l -4.544,11.172 -1.315,-15.283 h -2.857 l 1.8,21.081 z" style="fill:#000000;fill-opacity:1;fill-rule:nonzero;stroke:none" id="path1132"></path><path d="m 932.2157,1416.5361 5.086,-12.438 5.058,12.438 h 3.058 0.057 l 1.8,-21.081 h -2.886 l -1.314,15.363 -4.573,-11.252 h -2.428 l -4.544,11.172 -1.315,-15.283 h -2.857 l 1.8,21.081 z" style="fill:none;stroke:#1c1c1b;stroke-width:0.832;stroke-linecap:butt;stroke-linejoin:miter;stroke-miterlimit:10;stroke-dasharray:none;stroke-opacity:1" id="path1136"></path><path d="m 956.8761,1416.5361 h 14.288 v -2.636 h -14.288 v -3.952 h 11.431 v -2.636 h -11.431 v -9.222 h 14.288 v -2.635 h -17.145 v 2.635 9.222 2.636 3.952 2.636 z" style="fill:#000000;fill-opacity:1;fill-rule:nonzero;stroke:none" id="path1140"></path><path d="m 956.8761,1416.5361 h 14.288 v -2.636 h -14.288 v -3.952 h 11.431 v -2.636 h -11.431 v -9.222 h 14.288 v -2.635 h -17.145 v 2.635 9.222 2.636 3.952 2.636 z" style="fill:none;stroke:#1c1c1b;stroke-width:0.832;stroke-linecap:butt;stroke-linejoin:miter;stroke-miterlimit:10;stroke-dasharray:none;stroke-opacity:1" id="path1144"></path><path d="m 978.1205,1413.9268 h -0.172 v -15.837 h 0.087 5.772 c 0.876,0.018 1.738,0.212 2.586,0.58 0.847,0.369 1.618,0.883 2.314,1.541 0.695,0.659 1.258,1.498 1.686,2.518 0.429,1.018 0.643,2.134 0.643,3.345 0,1.213 -0.219,2.324 -0.657,3.334 -0.439,1.01 -1.01,1.836 -1.715,2.477 -0.704,0.641 -1.491,1.138 -2.357,1.489 -0.867,0.352 -1.749,0.527 -2.643,0.527 -1.849,0.035 -3.64,0.044 -5.372,0.026 z m 1.301,2.636 h 1.085 1 0.886 c 0.257,0 0.481,0 0.672,-0.014 0.19,-0.01 0.389,-0.013 0.6,-0.013 h 0.028 c 1.295,0 2.553,-0.255 3.772,-0.763 1.219,-0.511 2.305,-1.209 3.258,-2.096 0.953,-0.888 1.719,-1.994 2.301,-3.32 0.58,-1.326 0.871,-2.754 0.871,-4.283 0,-1.528 -0.281,-2.96 -0.844,-4.294 -0.561,-1.335 -1.309,-2.456 -2.242,-3.36 -0.934,-0.905 -2.01,-1.621 -3.23,-2.147 -1.219,-0.528 -2.467,-0.8 -3.743,-0.818 h -0.028 -5.772 -0.087 -2.857 v 21.108 h 0.686 2.515 z" style="fill:#000000;fill-opacity:1;fill-rule:nonzero;stroke:none" id="path1148"></path><path d="m 978.1205,1413.9268 h -0.172 v -15.837 h 0.087 5.772 c 0.876,0.018 1.738,0.212 2.586,0.58 0.847,0.369 1.618,0.883 2.314,1.541 0.695,0.659 1.258,1.498 1.686,2.518 0.429,1.018 0.643,2.134 0.643,3.345 0,1.213 -0.219,2.324 -0.657,3.334 -0.439,1.01 -1.01,1.836 -1.715,2.477 -0.704,0.641 -1.491,1.138 -2.357,1.489 -0.867,0.352 -1.749,0.527 -2.643,0.527 -1.849,0.035 -3.64,0.044 -5.372,0.026 z m 1.301,2.636 h 1.085 1 0.886 c 0.257,0 0.481,0 0.672,-0.014 0.19,-0.01 0.389,-0.013 0.6,-0.013 h 0.028 c 1.295,0 2.553,-0.255 3.772,-0.763 1.219,-0.511 2.305,-1.209 3.258,-2.096 0.953,-0.888 1.719,-1.994 2.301,-3.32 0.58,-1.326 0.871,-2.754 0.871,-4.283 0,-1.528 -0.281,-2.96 -0.844,-4.294 -0.561,-1.335 -1.309,-2.456 -2.242,-3.36 -0.934,-0.905 -2.01,-1.621 -3.23,-2.147 -1.219,-0.528 -2.467,-0.8 -3.743,-0.818 h -0.028 -5.772 -0.087 -2.857 v 21.108 h 0.686 2.515 z" style="fill:none;stroke:#1c1c1b;stroke-width:0.832;stroke-linecap:butt;stroke-linejoin:miter;stroke-miterlimit:10;stroke-dasharray:none;stroke-opacity:1" id="path1152"></path><path d="m 998.69,1416.536 h 2.857 v -21.081 h -2.857 z" style="fill:#000000;fill-opacity:1;fill-rule:nonzero;stroke:#1c1c1b;stroke-width:0.832;stroke-linecap:butt;stroke-linejoin:miter;stroke-miterlimit:10;stroke-dasharray:none;stroke-opacity:1" id="path1154"></path><path d="m 1012.2147,1400.7246 h 8.231 l -3.23,13.176 h -1.772 z m 6.973,15.812 5.715,-21.082 h -2.857 l -0.715,2.635 h -10.001 l -0.715,-2.635 h -2.857 l 5.715,21.082 z" style="fill:#000000;fill-opacity:1;fill-rule:nonzero;stroke:none" id="path1158"></path><path d="m 1012.2147,1400.7246 h 8.231 l -3.23,13.176 h -1.772 z m 6.973,15.812 5.715,-21.082 h -2.857 l -0.715,2.635 h -10.001 l -0.715,-2.635 h -2.857 l 5.715,21.082 z" style="fill:none;stroke:#1c1c1b;stroke-width:0.832;stroke-linecap:butt;stroke-linejoin:miter;stroke-miterlimit:10;stroke-dasharray:none;stroke-opacity:1" id="path1162"></path><path d="m 1033.6908,1416.5361 v -18.446 h 11.43 v -2.635 h -14.287 v 21.081 z" style="fill:#000000;fill-opacity:1;fill-rule:nonzero;stroke:none" id="path1166"></path><path d="m 1033.6908,1416.5361 v -18.446 h 11.43 v -2.635 h -14.287 v 21.081 z" style="fill:none;stroke:#1c1c1b;stroke-width:0.832;stroke-linecap:butt;stroke-linejoin:miter;stroke-miterlimit:10;stroke-dasharray:none;stroke-opacity:1" id="path1170"></path><path d="m 1053.1879,1400.7246 h 8.231 l -3.23,13.176 h -1.772 z m 6.973,15.812 5.715,-21.082 h -2.857 l -0.715,2.635 h -10.001 l -0.715,-2.635 h -2.857 l 5.715,21.082 z" style="fill:#000000;fill-opacity:1;fill-rule:nonzero;stroke:none" id="path1174"></path><path d="m 1053.1879,1400.7246 h 8.231 l -3.23,13.176 h -1.772 z m 6.973,15.812 5.715,-21.082 h -2.857 l -0.715,2.635 h -10.001 l -0.715,-2.635 h -2.857 l 5.715,21.082 z" style="fill:none;stroke:#1c1c1b;stroke-width:0.832;stroke-linecap:butt;stroke-linejoin:miter;stroke-miterlimit:10;stroke-dasharray:none;stroke-opacity:1" id="path1178"></path><path d="m 1074.3163,1398.0898 c 4.363,-0.035 7.668,-0.052 9.916,-0.052 0.819,0.017 1.562,0.201 2.229,0.553 0.667,0.352 1.2,0.834 1.6,1.449 0.4,0.615 0.6,1.511 0.6,2.689 0,1.141 -0.228,2.01 -0.685,2.608 -0.458,0.598 -1.096,1.071 -1.915,1.423 -0.895,0.386 -1.82,0.571 -2.772,0.553 h -2.429 -0.142 -6.402 z m 0,11.858 h 6.402 0.114 c 1.638,0 2.638,0.088 3,0.264 0.362,0.175 0.628,0.378 0.8,0.607 0.172,0.227 0.257,0.614 0.257,1.159 0,0.509 -0.1,0.869 -0.3,1.08 -0.2,0.211 -0.529,0.404 -0.985,0.579 -0.42,0.158 -1.239,0.247 -2.458,0.264 h -0.428 -6.402 z m 10.43,6.193 c 0.801,-0.317 1.5,-0.839 2.101,-1.568 0.6,-0.729 0.899,-1.594 0.899,-2.595 0,-1.02 -0.304,-1.924 -0.914,-2.715 0.172,-0.053 0.324,-0.114 0.458,-0.185 1.162,-0.491 2.157,-1.277 2.986,-2.358 0.829,-1.079 1.243,-2.411 1.243,-3.991 0,-1.565 -0.353,-2.886 -1.057,-3.966 -0.705,-1.081 -1.572,-1.885 -2.6,-2.411 -0.534,-0.283 -1.115,-0.501 -1.744,-0.659 -0.628,-0.159 -1.062,-0.247 -1.3,-0.264 -0.238,-0.018 -0.424,-0.027 -0.557,-0.027 h -0.029 l -10.087,0.027 v 0.026 h -2.686 v 18.446 2.635 h 2.857 6.402 0.257 0.371 0.657 c 1.124,0 2.039,-0.132 2.743,-0.395" style="fill:#000000;fill-opacity:1;fill-rule:nonzero;stroke:none" id="path1182"></path><path d="m 1074.3163,1398.0898 c 4.363,-0.035 7.668,-0.052 9.916,-0.052 0.819,0.017 1.562,0.201 2.229,0.553 0.667,0.352 1.2,0.834 1.6,1.449 0.4,0.615 0.6,1.511 0.6,2.689 0,1.141 -0.228,2.01 -0.685,2.608 -0.458,0.598 -1.096,1.071 -1.915,1.423 -0.895,0.386 -1.82,0.571 -2.772,0.553 h -2.429 -0.142 -6.402 z m 0,11.858 h 6.402 0.114 c 1.638,0 2.638,0.088 3,0.264 0.362,0.175 0.628,0.378 0.8,0.607 0.172,0.227 0.257,0.614 0.257,1.159 0,0.509 -0.1,0.869 -0.3,1.08 -0.2,0.211 -0.529,0.404 -0.985,0.579 -0.42,0.158 -1.239,0.247 -2.458,0.264 h -0.428 -6.402 z m 10.43,6.193 c 0.801,-0.317 1.5,-0.839 2.101,-1.568 0.6,-0.729 0.899,-1.594 0.899,-2.595 0,-1.02 -0.304,-1.924 -0.914,-2.715 0.172,-0.053 0.324,-0.114 0.458,-0.185 1.162,-0.491 2.157,-1.277 2.986,-2.358 0.829,-1.079 1.243,-2.411 1.243,-3.991 0,-1.565 -0.353,-2.886 -1.057,-3.966 -0.705,-1.081 -1.572,-1.885 -2.6,-2.411 -0.534,-0.283 -1.115,-0.501 -1.744,-0.659 -0.628,-0.159 -1.062,-0.247 -1.3,-0.264 -0.238,-0.018 -0.424,-0.027 -0.557,-0.027 h -0.029 l -10.087,0.027 v 0.026 h -2.686 v 18.446 2.635 h 2.857 6.402 0.257 0.371 0.657 c 1.124,0 2.039,-0.132 2.743,-0.395 z" style="fill:none;stroke:#1c1c1b;stroke-width:0.832;stroke-linecap:butt;stroke-linejoin:miter;stroke-miterlimit:10;stroke-dasharray:none;stroke-opacity:1" id="path1186"></path><path d="m 929.9672,1383.9707 v -11.164 h 5.369 c 2.183,0 3.99,0.421 5.422,1.263 0.806,0.461 1.423,1.03 1.853,1.707 0.429,0.676 0.644,1.548 0.644,2.612 0,1.064 -0.215,1.938 -0.644,2.624 -0.43,0.685 -1.056,1.258 -1.879,1.72 -1.45,0.842 -3.267,1.262 -5.449,1.262 -1.791,0 -3.562,-0.01 -5.316,-0.024 m 12.187,0.866 c 1.145,-0.643 2.063,-1.518 2.752,-2.624 0.688,-1.105 1.033,-2.377 1.033,-3.812 0,-1.436 -0.34,-2.702 -1.019,-3.8 -0.681,-1.097 -1.594,-1.976 -2.739,-2.636 -1.879,-1.089 -4.16,-1.634 -6.845,-1.634 h -5.369 v -3.713 h -2.684 v 19.803 h 0.644 c 1.862,0.033 4.313,0.05 7.356,0.05 2.701,0 4.992,-0.545 6.871,-1.634" style="fill:#000000;fill-opacity:1;fill-rule:nonzero;stroke:none" id="path1190"></path><path d="m 929.9672,1383.9707 v -11.164 h 5.369 c 2.183,0 3.99,0.421 5.422,1.263 0.806,0.461 1.423,1.03 1.853,1.707 0.429,0.676 0.644,1.548 0.644,2.612 0,1.064 -0.215,1.938 -0.644,2.624 -0.43,0.685 -1.056,1.258 -1.879,1.72 -1.45,0.842 -3.267,1.262 -5.449,1.262 -1.791,0 -3.562,-0.01 -5.316,-0.024 z m 12.187,0.866 c 1.145,-0.643 2.063,-1.518 2.752,-2.624 0.688,-1.105 1.033,-2.377 1.033,-3.812 0,-1.436 -0.34,-2.702 -1.019,-3.8 -0.681,-1.097 -1.594,-1.976 -2.739,-2.636 -1.879,-1.089 -4.16,-1.634 -6.845,-1.634 h -5.369 v -3.713 h -2.684 v 19.803 h 0.644 c 1.862,0.033 4.313,0.05 7.356,0.05 2.701,0 4.992,-0.545 6.871,-1.634 z" style="fill:none;stroke:#1c1c1b;stroke-width:0.832;stroke-linecap:butt;stroke-linejoin:miter;stroke-miterlimit:10;stroke-dasharray:none;stroke-opacity:1" id="path1194"></path><path d="m 954.2074,1383.9209 v -11.758 l 5.369,0.025 c 2.129,0.016 3.937,0.47 5.422,1.361 0.824,0.495 1.455,1.097 1.893,1.808 0.439,0.709 0.658,1.591 0.658,2.648 0,1.963 -0.85,3.474 -2.551,4.529 -0.734,0.463 -1.588,0.813 -2.563,1.053 -0.976,0.239 -1.929,0.359 -2.859,0.359 -1.808,0 -3.598,-0.01 -5.369,-0.025 m 12.295,0.668 c 1.127,-0.693 2.031,-1.601 2.711,-2.723 0.68,-1.122 1.021,-2.405 1.021,-3.849 0,-1.444 -0.346,-2.723 -1.035,-3.836 -0.689,-1.114 -1.596,-2.01 -2.724,-2.686 -0.823,-0.512 -1.737,-0.909 -2.738,-1.188 l 4.026,-3.714 h -3.812 l -3.409,3.144 c -0.322,-0.017 -0.644,-0.025 -0.966,-0.025 l -5.369,-0.024 v -3.07 h -2.684 v 19.779 h 2.201 c 1.772,0.015 3.723,0.024 5.852,0.024 2.649,0 4.957,-0.61 6.926,-1.832" style="fill:#000000;fill-opacity:1;fill-rule:nonzero;stroke:none" id="path1198"></path><path d="m 954.2074,1383.9209 v -11.758 l 5.369,0.025 c 2.129,0.016 3.937,0.47 5.422,1.361 0.824,0.495 1.455,1.097 1.893,1.808 0.439,0.709 0.658,1.591 0.658,2.648 0,1.963 -0.85,3.474 -2.551,4.529 -0.734,0.463 -1.588,0.813 -2.563,1.053 -0.976,0.239 -1.929,0.359 -2.859,0.359 -1.808,0 -3.598,-0.01 -5.369,-0.025 z m 12.295,0.668 c 1.127,-0.693 2.031,-1.601 2.711,-2.723 0.68,-1.122 1.021,-2.405 1.021,-3.849 0,-1.444 -0.346,-2.723 -1.035,-3.836 -0.689,-1.114 -1.596,-2.01 -2.724,-2.686 -0.823,-0.512 -1.737,-0.909 -2.738,-1.188 l 4.026,-3.714 h -3.812 l -3.409,3.144 c -0.322,-0.017 -0.644,-0.025 -0.966,-0.025 l -5.369,-0.024 v -3.07 h -2.684 v 19.779 h 2.201 c 1.772,0.015 3.723,0.024 5.852,0.024 2.649,0 4.957,-0.61 6.926,-1.832 z" style="fill:none;stroke:#1c1c1b;stroke-width:0.832;stroke-linecap:butt;stroke-linejoin:miter;stroke-miterlimit:10;stroke-dasharray:none;stroke-opacity:1" id="path1202"></path><path d="m 979.2797,1371.5068 h 7.731 l -3.033,12.377 h -1.665 z m 6.55,14.853 5.368,-19.803 h -2.684 l -0.671,2.474 h -9.396 l -0.67,-2.474 h -2.685 l 5.369,19.803 z" style="fill:#000000;fill-opacity:1;fill-rule:nonzero;stroke:none" id="path1206"></path><path d="m 979.2797,1371.5068 h 7.731 l -3.033,12.377 h -1.665 z m 6.55,14.853 5.368,-19.803 h -2.684 l -0.671,2.474 h -9.396 l -0.67,-2.474 h -2.685 l 5.369,19.803 z" style="fill:none;stroke:#1c1c1b;stroke-width:0.832;stroke-linecap:butt;stroke-linejoin:miter;stroke-miterlimit:10;stroke-dasharray:none;stroke-opacity:1" id="path1210"></path><path d="m 1000.2831,1383.9707 h -0.162 v -14.878 h 0.082 5.422 c 0.823,0.017 1.633,0.198 2.429,0.545 0.796,0.347 1.521,0.829 2.175,1.448 0.652,0.618 1.181,1.407 1.584,2.364 0.402,0.957 0.603,2.005 0.603,3.144 0,1.139 -0.205,2.182 -0.617,3.131 -0.412,0.949 -0.949,1.725 -1.611,2.327 -0.662,0.603 -1.4,1.068 -2.214,1.399 -0.815,0.33 -1.642,0.496 -2.483,0.496 -1.737,0.032 -3.419,0.04 -5.047,0.024 z m 1.221,2.476 h 1.02 0.94 0.832 c 0.241,0 0.452,0 0.631,-0.013 0.179,-0.01 0.366,-0.013 0.564,-0.013 h 0.027 c 1.216,0 2.398,-0.239 3.543,-0.718 1.145,-0.478 2.165,-1.134 3.06,-1.967 0.895,-0.834 1.615,-1.873 2.161,-3.119 0.546,-1.247 0.819,-2.587 0.819,-4.023 0,-1.436 -0.265,-2.78 -0.792,-4.034 -0.528,-1.255 -1.231,-2.307 -2.108,-3.157 -0.876,-0.85 -1.888,-1.522 -3.033,-2.018 -1.145,-0.495 -2.318,-0.75 -3.516,-0.767 h -0.027 -5.422 -0.082 -2.683 v 19.829 h 0.644 2.362 z" style="fill:#000000;fill-opacity:1;fill-rule:nonzero;stroke:none" id="path1214"></path><path d="m 1000.2831,1383.9707 h -0.162 v -14.878 h 0.082 5.422 c 0.823,0.017 1.633,0.198 2.429,0.545 0.796,0.347 1.521,0.829 2.175,1.448 0.652,0.618 1.181,1.407 1.584,2.364 0.402,0.957 0.603,2.005 0.603,3.144 0,1.139 -0.205,2.182 -0.617,3.131 -0.412,0.949 -0.949,1.725 -1.611,2.327 -0.662,0.603 -1.4,1.068 -2.214,1.399 -0.815,0.33 -1.642,0.496 -2.483,0.496 -1.737,0.032 -3.419,0.04 -5.047,0.024 z m 1.221,2.476 h 1.02 0.94 0.832 c 0.241,0 0.452,0 0.631,-0.013 0.179,-0.01 0.366,-0.013 0.564,-0.013 h 0.027 c 1.216,0 2.398,-0.239 3.543,-0.718 1.145,-0.478 2.165,-1.134 3.06,-1.967 0.895,-0.834 1.615,-1.873 2.161,-3.119 0.546,-1.247 0.819,-2.587 0.819,-4.023 0,-1.436 -0.265,-2.78 -0.792,-4.034 -0.528,-1.255 -1.231,-2.307 -2.108,-3.157 -0.876,-0.85 -1.888,-1.522 -3.033,-2.018 -1.145,-0.495 -2.318,-0.75 -3.516,-0.767 h -0.027 -5.422 -0.082 -2.683 v 19.829 h 0.644 2.362 z" style="fill:none;stroke:#1c1c1b;stroke-width:0.832;stroke-linecap:butt;stroke-linejoin:miter;stroke-miterlimit:10;stroke-dasharray:none;stroke-opacity:1" id="path1218"></path><path d="m 1024.6456,1382.2129 c -1.709,-1.568 -2.563,-3.465 -2.563,-5.693 0,-2.228 0.854,-4.126 2.563,-5.694 1.709,-1.567 3.772,-2.351 6.188,-2.351 1.593,0 3.06,0.358 4.402,1.077 1.342,0.717 2.402,1.695 3.181,2.932 0.778,1.239 1.168,2.583 1.168,4.036 0,1.452 -0.39,2.797 -1.168,4.035 -0.779,1.237 -1.839,2.215 -3.181,2.933 -1.342,0.717 -2.809,1.077 -4.402,1.077 -2.416,0 -4.479,-0.785 -6.188,-2.352 m 11.906,3.416 c 1.753,-0.94 3.141,-2.22 4.16,-3.837 1.02,-1.617 1.53,-3.375 1.53,-5.272 0,-1.898 -0.51,-3.656 -1.53,-5.273 -1.019,-1.617 -2.407,-2.896 -4.16,-3.837 -1.755,-0.94 -3.66,-1.411 -5.718,-1.411 -3.15,0 -5.839,1.027 -8.067,3.082 -2.228,2.055 -3.342,4.534 -3.342,7.439 0,2.904 1.114,5.383 3.342,7.438 2.228,2.055 4.917,3.082 8.067,3.082 2.058,0 3.963,-0.47 5.718,-1.411" style="fill:#000000;fill-opacity:1;fill-rule:nonzero;stroke:none" id="path1222"></path><path d="m 1024.6456,1382.2129 c -1.709,-1.568 -2.563,-3.465 -2.563,-5.693 0,-2.228 0.854,-4.126 2.563,-5.694 1.709,-1.567 3.772,-2.351 6.188,-2.351 1.593,0 3.06,0.358 4.402,1.077 1.342,0.717 2.402,1.695 3.181,2.932 0.778,1.239 1.168,2.583 1.168,4.036 0,1.452 -0.39,2.797 -1.168,4.035 -0.779,1.237 -1.839,2.215 -3.181,2.933 -1.342,0.717 -2.809,1.077 -4.402,1.077 -2.416,0 -4.479,-0.785 -6.188,-2.352 z m 11.906,3.416 c 1.753,-0.94 3.141,-2.22 4.16,-3.837 1.02,-1.617 1.53,-3.375 1.53,-5.272 0,-1.898 -0.51,-3.656 -1.53,-5.273 -1.019,-1.617 -2.407,-2.896 -4.16,-3.837 -1.755,-0.94 -3.66,-1.411 -5.718,-1.411 -3.15,0 -5.839,1.027 -8.067,3.082 -2.228,2.055 -3.342,4.534 -3.342,7.439 0,2.904 1.114,5.383 3.342,7.438 2.228,2.055 4.917,3.082 8.067,3.082 2.058,0 3.963,-0.47 5.718,-1.411 z" style="fill:none;stroke:#1c1c1b;stroke-width:0.832;stroke-linecap:butt;stroke-linejoin:miter;stroke-miterlimit:10;stroke-dasharray:none;stroke-opacity:1" id="path1226"></path></g></g></svg>