<svg xmlns="http://www.w3.org/2000/svg" viewBox="0 0 257.28 173.23"><defs><style>.cls-1{fill:#222221;}.cls-2{fill:#ff97ff;}.cls-2,.cls-3{stroke:#ff00cb;stroke-linecap:round;stroke-linejoin:round;stroke-width:1.15px;}.cls-3{fill:#f9f;}</style></defs><title>Asset 76</title><g id="Layer_2" data-name="Layer 2"><g id="Layer_1-2" data-name="Layer 1"><path class="cls-1" d="M7,96.38l.59.34-.17,5.91v15.79c0,2.92,0,5.83.13,8.75H3.81c.08-2.92.12-5.83.12-8.75V100.15L.52,99.73V98.26Zm3.82,29.31v1.48H.54v-1.48l4.66-.84h1Z"/><path class="cls-1" d="M20.27,116.22a47,47,0,0,1,6.46-1.75V116a39.21,39.21,0,0,0-5.57,1.67c-3.64,1.42-4.11,3-4.11,4.24,0,2.2,1.44,3.08,3.33,3.08,1.42,0,2.24-.53,4.79-2.35l.88-.66.58.86-1.24,1.25c-2.47,2.47-3.88,3.65-6.45,3.65-3.05,0-5.57-1.76-5.57-5.22C13.37,120.14,14.64,118.25,20.27,116.22ZM25,123.36v-9.55c0-4-1.14-5.06-3.88-5.06a10,10,0,0,0-3.76.74l1.74-1.31-1,3.54c-.36,1.3-1,2-2.18,2A1.76,1.76,0,0,1,13.91,112c.76-3.18,3.86-5.16,8.13-5.16s6.43,2,6.43,7.24V123c0,1.81.57,2.46,1.51,2.46a2,2,0,0,0,1.6-.91l.85.9a3.92,3.92,0,0,1-3.62,2.19C26.49,127.6,25,125.94,25,123.36Z"/><path class="cls-1" d="M33.93,125.69l4.46-.84L37,127.17c.08-1.87.12-6.16.12-8.74V100.14l-3.4-.41V98.26l6.38-1.88.59.34-.17,5.91v7.9l.12.54V123.9l-.45,3.7-6.26-.43Zm17.17-8.25c0-5.34-2.18-8.21-5.3-8.21-1.54,0-3.57.76-6.52,3.7l-.37-.74c2.41-3.71,5.12-5.33,8-5.33,4.42,0,7.93,3.78,7.93,10.22s-3.7,10.64-8.56,10.64c-2.61,0-5.17-1.18-7.35-5.51l.37-.68c2.14,2.73,4.33,3.83,6.3,3.83C48.56,125.36,51.1,122.79,51.1,117.44Z"/><path class="cls-1" d="M58.83,126.12l-.15-4.58H61l1.12,5-2.06-1v-1.44a8,8,0,0,0,5.12,1.71c3.17,0,4.65-1.26,4.65-3.17S68.56,120,65.93,119L64,118.32c-3-1.11-5-2.76-5-5.61,0-3,2.57-5.85,7.25-5.85A10.71,10.71,0,0,1,72,108.57l-.17,4.22H69.72l-.86-4.26,1.55.69v1.11a6.78,6.78,0,0,0-4.25-1.57c-2.54,0-3.87,1.11-3.87,2.84s1,2.55,3.85,3.58l1.3.46c4.15,1.52,5.73,3.49,5.73,6.1,0,3.16-2.75,6-8.12,6A12.8,12.8,0,0,1,58.83,126.12Z"/><path class="cls-1" d="M.74,171.2l4.46-.84-1.39,2.32c.08-1.87.12-6.16.12-8.74V145.65l-3.41-.41v-1.47l6.38-1.88.59.34-.16,5.91V156l.12.54V169.4L7,173.11l-6.26-.43ZM17.9,163c0-5.34-2.17-8.21-5.3-8.21-1.54,0-3.57.76-6.51,3.7l-.38-.74c2.42-3.71,5.13-5.33,8-5.33,4.42,0,7.93,3.78,7.93,10.22s-3.7,10.64-8.56,10.64c-2.61,0-5.17-1.19-7.36-5.51l.38-.68c2.14,2.73,4.33,3.82,6.29,3.82C15.37,170.86,17.9,168.3,17.9,163Z"/><path class="cls-1" d="M28.08,172.68c.08-1.87.12-6.16.12-8.75v-2c0-2.29,0-3.58-.12-5.24l-3.37-.38v-1.47l6.43-2.51.63.42-.13,5.64v5.5c0,2.59,0,6.88.13,8.75Zm6.55-1.49v1.49H25v-1.49l4.54-.83h1Zm-7.54-26.1a2.63,2.63,0,0,1,2.79-2.66,2.67,2.67,0,1,1-2.79,2.66Z"/><path class="cls-1" d="M37.18,171.2l4.46-.84-1.39,2.32c.08-1.87.12-6.16.12-8.74V145.65l-3.4-.41v-1.47l6.38-1.88.58.34-.16,5.91V156l.12.54V169.4l-.45,3.71-6.26-.43ZM54.35,163c0-5.34-2.18-8.21-5.31-8.21-1.53,0-3.56.76-6.51,3.7l-.37-.74c2.41-3.71,5.12-5.33,8-5.33,4.42,0,7.93,3.78,7.93,10.22s-3.7,10.64-8.56,10.64c-2.61,0-5.17-1.19-7.36-5.51l.38-.68c2.14,2.73,4.33,3.82,6.3,3.82C51.81,170.86,54.35,168.3,54.35,163Z"/><path class="cls-1" d="M67.09,141.89l.58.34-.16,5.91v15.79c0,2.92,0,5.83.12,8.75H63.86c.09-2.92.13-5.83.13-8.75V145.66l-3.41-.42v-1.47Zm3.81,29.3v1.49H60.59v-1.49l4.67-.83h1Z"/><path class="cls-1" d="M76.51,172.68c.09-1.87.13-6.16.13-8.75v-2c0-2.29,0-3.58-.13-5.24l-3.36-.38v-1.47l6.42-2.51.63.42-.12,5.64v5.5c0,2.59,0,6.88.12,8.75Zm6.56-1.49v1.49H73.4v-1.49l4.54-.83h1Zm-7.55-26.1a2.8,2.8,0,0,1,5.59,0,2.8,2.8,0,0,1-5.59,0Z"/><path class="cls-1" d="M86.24,162.87c0-6.88,4.7-10.5,9.56-10.5s9.56,3.61,9.56,10.5-4.75,10.36-9.56,10.36S86.24,169.76,86.24,162.87Zm15.18,0c0-5.6-2.07-8.62-5.62-8.62s-5.62,3-5.62,8.62,2,8.45,5.62,8.45S101.42,168.48,101.42,162.88Z"/><path class="cls-1" d="M116.49,171.07a4.69,4.69,0,0,0,2.8-1.15l1,1.11a5.93,5.93,0,0,1-4.9,2.2c-2.93,0-4.74-1.51-4.74-4.77,0-1,0-1.92,0-3.54v-9.8H107.2v-1.83l5.15-.66L110.64,154l1.33-6.78h2.52l-.32,7.3V168C114.17,170.15,115.08,171.07,116.49,171.07Zm3.35-18.15v2.2h-7.43v-2.2Z"/><path class="cls-1" d="M139.55,160.37a8.29,8.29,0,0,1-.29,2.33H123.84v-1.78h9.79c2,0,2.46-.94,2.46-2.15a4.54,4.54,0,0,0-4.52-4.51c-2.61,0-5.6,2.23-5.6,8.19,0,5.27,2.65,8.07,6.76,8.07a7.16,7.16,0,0,0,5.78-2.91l1,.78a8.5,8.5,0,0,1-8,4.84c-5.61,0-9.27-3.88-9.27-10.23s4.39-10.63,9.56-10.63C136.15,152.37,139.55,155.33,139.55,160.37Z"/><path class="cls-1" d="M147,162.44c0,5.23,2.76,8.08,6.65,8.08a6.66,6.66,0,0,0,5.76-3.19l1,.54c-1.15,3.46-3.84,5.36-7.75,5.36-5.71,0-9.35-4-9.35-10.39S148,152.37,153,152.37c3.75,0,6.83,2.32,7.36,5.41a1.77,1.77,0,0,1-1.93,1.58,2.19,2.19,0,0,1-2.26-2l-1-3.63,2,1.55a8.63,8.63,0,0,0-4-1C149.59,154.26,147,157.1,147,162.44Z"/><path class="cls-1" d="M170.7,161.73a47.38,47.38,0,0,1,6.46-1.75v1.51a38,38,0,0,0-5.57,1.67c-3.64,1.42-4.1,3-4.1,4.24,0,2.2,1.43,3.08,3.32,3.08,1.42,0,2.24-.53,4.79-2.35l.88-.66.58.86-1.24,1.24c-2.47,2.48-3.88,3.66-6.45,3.66-3.05,0-5.57-1.76-5.57-5.22C163.8,165.64,165.07,163.76,170.7,161.73Zm4.69,7.14v-9.55c0-4.06-1.14-5.06-3.88-5.06a9.84,9.84,0,0,0-3.76.74l1.74-1.31-1,3.54c-.36,1.3-1,2-2.18,2a1.74,1.74,0,0,1-1.92-1.69c.76-3.18,3.85-5.16,8.12-5.16s6.43,2,6.43,7.24v8.86c0,1.81.57,2.46,1.51,2.46A2,2,0,0,0,182,170l.84.9a3.92,3.92,0,0,1-3.62,2.19C176.92,173.11,175.42,171.45,175.39,168.87Z"/><path class="cls-1" d="M187.74,163.93v-2c0-2.29,0-3.56-.12-5.22l-3.29-.38v-1.47l5.81-2.51.63.42.49,5.2v5.94c0,2.59,0,6.88.13,8.75h-3.77C187.7,170.81,187.74,166.52,187.74,163.93Zm-3.08,7.26,4.55-.83h1l4.55.83v1.49H184.66Zm4.85-12.87h2.42l-1,.34c1.3-3.95,3.86-6.29,6.32-6.29a3.48,3.48,0,0,1,3,1.51c0,2-.78,3.06-2.45,3.06a3.8,3.8,0,0,1-2.54-1.05l-1.13-1,2-.35c-2.52,1.32-4,3.4-4.95,6.57l-1.67,0Z"/><path class="cls-1" d="M205.08,172.68c.08-1.87.13-6.16.13-8.75v-2c0-2.29-.05-3.58-.13-5.24l-3.37-.38v-1.47l6.43-2.51.63.42-.12,5.64v5.5c0,2.59,0,6.88.12,8.75Zm6.55-1.49v1.49H202v-1.49l4.54-.83h1Zm-7.54-26.1a2.79,2.79,0,1,1,2.79,2.67A2.64,2.64,0,0,1,204.09,145.09Z"/><path class="cls-1" d="M214.81,162.87c0-6.88,4.7-10.5,9.56-10.5s9.56,3.61,9.56,10.5-4.76,10.36-9.56,10.36S214.81,169.76,214.81,162.87Zm15.18,0c0-5.6-2.07-8.62-5.62-8.62s-5.62,3-5.62,8.62,2,8.45,5.62,8.45S230,168.48,230,162.88Z"/><path class="cls-1" d="M237.92,171.62l-.16-4.57H240l1.11,4.95-2.06-.94v-1.44a8,8,0,0,0,5.13,1.71c3.16,0,4.65-1.26,4.65-3.17,0-1.76-1.22-2.67-3.85-3.62l-1.94-.71c-3.05-1.11-5-2.76-5-5.61,0-3.05,2.58-5.85,7.25-5.85a10.72,10.72,0,0,1,5.84,1.71L251,158.3H248.8L248,154l1.54.69v1.11a6.75,6.75,0,0,0-4.24-1.57c-2.54,0-3.87,1.11-3.87,2.84s1,2.55,3.85,3.58l1.29.46c4.16,1.52,5.74,3.49,5.74,6.1,0,3.16-2.76,6-8.12,6A12.7,12.7,0,0,1,237.92,171.62Z"/><path class="cls-1" d="M41.15,60.3a1.1,1.1,0,0,1,1.18,1.19V72a1.1,1.1,0,0,1-1.18,1.19h-40A1.11,1.11,0,0,1,0,72V9.78A1.11,1.11,0,0,1,1.18,8.59H13.56a1.11,1.11,0,0,1,1.19,1.19V60.3Z"/><path class="cls-1" d="M67.17,64.58l-2.73,7.65a1.37,1.37,0,0,1-1.36.91H50.24c-.91,0-1.28-.55-1-1.37L62.08,37A272.07,272.07,0,0,0,70.72,9.59a1.31,1.31,0,0,1,1.37-1H89a1.31,1.31,0,0,1,1.37,1A269.63,269.63,0,0,0,99,37l12.83,34.77c.27.82-.09,1.37-1,1.37H98a1.37,1.37,0,0,1-1.36-.91l-2.73-7.65ZM88,48.1c-2.64-7.19-5.55-15.75-6.65-21.66-.27-1.1-1.36-1.1-1.63,0-1.19,5.91-4,14.38-6.65,21.66l-1.27,3.64H89.29Z"/><path class="cls-1" d="M226.6,45.37c-12.47-4.64-17-9.19-17-19.12,0-11.92,9-18.66,23.4-18.66A46,46,0,0,1,247.54,10l6,2a1.05,1.05,0,0,1,.82,1.46l-3.73,10.19c-.27.73-.73,1-1.45.73L243.8,22.7A37.22,37.22,0,0,0,233,20.79c-5.1,0-8.56,2.19-8.56,5.46s2.82,4.65,8,6.56l7.65,2.82c12.65,4.73,17.21,9.47,17.21,19.39,0,12.47-8.47,19.12-23.95,19.12a53.06,53.06,0,0,1-17.93-3l-6-1.92a1,1,0,0,1-.82-1.45l3.64-10.11c.28-.73.73-1,1.46-.73L220,58.85A43.93,43.93,0,0,0,233.33,61c4.92,0,9.11-1.18,9.11-6,0-2.73-3.19-4.82-8.19-6.73Z"/><path class="cls-2" d="M118.82,74.93a126.38,126.38,0,0,1,15.24-10.34c2.25-.4,5.83-.1,8.29-.07,14.7.15,18.22-.39,32.91.39A79.79,79.79,0,0,1,187.68,66a21.58,21.58,0,0,1,11.43,6.71c2,2.35,3.55,5.47,3.55,10.71a21.35,21.35,0,0,1-2.35,10.24c-1.06,1-5.84,5.81-10.51,9.53"/><path class="cls-2" d="M119.48,105.33c19.54.45,30.08.9,49.63,1.35,7.23.17,15,1,20.69-3.46,4.06-3.22,5.34-7.46,4.79-12.61a17.7,17.7,0,0,0-9.22-13,31,31,0,0,0-13.67-3c-13,.27-39.15-.23-45.85-.06a32.82,32.82,0,0,0-7,.43c-.54,1.35-.06,6,0,8.56Q119.16,94.41,119.48,105.33Z"/><path class="cls-2" d="M178.11,75l10.21-8.79"/><path class="cls-2" d="M189.9,80.53c3.31-3.18,5.55-5,8.86-8.18"/><path class="cls-2" d="M194.8,91.45l7.84-6.94"/><path class="cls-3" d="M118.82,43a126.73,126.73,0,0,1,15.24-10.35c2.25-.39,5.83-.09,8.29-.07,14.7.15,18.22-.39,32.91.4a78.58,78.58,0,0,1,12.42,1.12,21.58,21.58,0,0,1,11.43,6.71c2,2.34,3.55,5.47,3.55,10.7a21.4,21.4,0,0,1-2.35,10.25c-1.06,1-5.84,5.8-10.51,9.53"/><path class="cls-3" d="M119.48,73.42c19.54.45,30.08.91,49.63,1.36,7.23.17,15,1,20.69-3.46,4.06-3.23,5.34-7.46,4.79-12.62a17.69,17.69,0,0,0-9.22-13,30.7,30.7,0,0,0-13.67-3c-13,.27-39.65-.58-45.85-.07-2.29.19-4.83-.11-7,.44,0,1.51-.06,6,0,8.56Q119.16,62.51,119.48,73.42Z"/><path class="cls-3" d="M178.11,43.05l10.21-8.78"/><path class="cls-3" d="M189.9,48.62c3.31-3.17,5.55-5,8.86-8.17"/><path class="cls-3" d="M194.8,59.54l7.84-6.93"/><path class="cls-2" d="M117.26,11.12A125.59,125.59,0,0,1,132.5.78c2.25-.4,5.83-.1,8.28-.07,14.71.15,18.23-.39,32.91.39a79.8,79.8,0,0,1,12.43,1.12,21.53,21.53,0,0,1,11.43,6.72c2,2.34,3.55,5.47,3.55,10.7a21.44,21.44,0,0,1-2.35,10.24c-1.07,1-5.84,5.81-10.51,9.54"/><path class="cls-2" d="M117.92,41.52c19.54.45,30.08.9,49.62,1.35,7.24.17,15,1.05,20.7-3.45C192.3,36.19,193.57,32,193,26.8a17.66,17.66,0,0,0-9.23-13,30.8,30.8,0,0,0-13.66-3c-13,.28-38.63-.23-45.85-.06a32.82,32.82,0,0,0-7,.43c-.54,1.35-.06,6,0,8.56Q117.6,30.6,117.92,41.52Z"/><path class="cls-2" d="M176.55,11.15l10.21-8.79"/><path class="cls-2" d="M188.34,16.72c3.31-3.18,5.55-5,8.86-8.17"/><path class="cls-2" d="M193.23,27.64l7.84-6.94"/></g></g></svg>