<svg xmlns="http://www.w3.org/2000/svg" viewBox="0 0 257.28 167.18"><defs><style>.cls-1{fill:#f9f;}.cls-2{fill:#222221;}</style></defs><title>Asset 75</title><g id="Layer_2" data-name="Layer 2"><g id="Layer_1-2" data-name="Layer 1"><rect class="cls-1" x="138.61" y="4.88" width="43.23" height="88.12"/><path class="cls-2" d="M194.35,25.86a17.15,17.15,0,0,0,.62-1.95c.09-.37.21-.72.28-1.11a19.85,19.85,0,0,0,.38-3.76s0-.05,0-.08,0-.05,0-.08a19.88,19.88,0,0,0-.38-3.77c-.07-.38-.19-.73-.28-1.09a17.51,17.51,0,0,0-.62-2C191.46,4.4,183.58,0,171.8,0H126.07a1.16,1.16,0,0,0-1.25,1.24v101.5a1.15,1.15,0,0,0,1.25,1.24H171.8c11.79,0,19.66-4.4,22.55-12a17.81,17.81,0,0,0,.62-2c.09-.37.21-.72.28-1.11a19.85,19.85,0,0,0,.38-3.76s0,0,0-.08,0-.06,0-.09a20,20,0,0,0-.38-3.77c-.07-.37-.19-.72-.28-1.08a15.67,15.67,0,0,0-.63-2A17,17,0,0,0,185,68.51,17.07,17.07,0,0,0,195,57c.09-.37.21-.73.28-1.11a19.88,19.88,0,0,0,.38-3.77s0,0,0-.07,0-.06,0-.09a20,20,0,0,0-.38-3.77c-.07-.38-.19-.72-.28-1.09a18.18,18.18,0,0,0-.62-2,17,17,0,0,0-9.4-9.6A17,17,0,0,0,194.35,25.86Zm-54-14.52h29.57c6.82,0,10,2.39,10.11,7.32-.14,4.93-3.29,7.32-10.11,7.32H140.32Zm0,47.68V44.38h29.57c6.82,0,10,2.39,10.11,7.31-.14,4.93-3.29,7.33-10.11,7.33Zm29.57,33H140.32V77.41h29.57c6.82,0,10,2.39,10.11,7.32C179.86,89.66,176.71,92.05,169.89,92.05Z"/><path class="cls-2" d="M7,90.34l.59.34-.17,5.91v15.79q0,4.37.13,8.75H3.81q.12-4.38.12-8.75V94.1L.52,93.69V92.21Zm3.82,29.3v1.49H.54v-1.49l4.66-.83h1Z"/><path class="cls-2" d="M20.27,110.17a48.47,48.47,0,0,1,6.46-1.74v1.51a38,38,0,0,0-5.57,1.66c-3.64,1.42-4.11,3-4.11,4.25,0,2.2,1.44,3.08,3.33,3.08,1.42,0,2.24-.53,4.79-2.36l.88-.66.58.86L25.39,118c-2.47,2.48-3.88,3.65-6.45,3.65-3.05,0-5.57-1.76-5.57-5.21C13.37,114.09,14.64,112.2,20.27,110.17ZM25,117.32v-9.55c0-4.06-1.14-5.06-3.88-5.06a9.84,9.84,0,0,0-3.76.74l1.74-1.31-1,3.54c-.36,1.3-1,2-2.18,2A1.76,1.76,0,0,1,13.91,106c.76-3.18,3.86-5.16,8.13-5.16s6.43,2,6.43,7.24v8.85c0,1.82.57,2.47,1.51,2.47a2,2,0,0,0,1.6-.92l.85.91a3.93,3.93,0,0,1-3.62,2.18C26.49,121.55,25,119.9,25,117.32Z"/><path class="cls-2" d="M33.93,119.64l4.46-.83L37,121.13c.08-1.88.12-6.17.12-8.75V94.1l-3.4-.41V92.21l6.38-1.87.59.34-.17,5.91v7.9l.12.54v12.82l-.45,3.7-6.26-.42ZM51.1,111.4c0-5.35-2.18-8.22-5.3-8.22-1.54,0-3.57.76-6.52,3.71l-.37-.75c2.41-3.71,5.12-5.32,8-5.32,4.42,0,7.93,3.78,7.93,10.22s-3.7,10.63-8.56,10.63c-2.61,0-5.17-1.18-7.35-5.51l.37-.67c2.14,2.72,4.33,3.82,6.3,3.82C48.56,119.31,51.1,116.74,51.1,111.4Z"/><path class="cls-2" d="M58.83,120.07l-.15-4.57H61l1.12,5-2.06-1v-1.43a8,8,0,0,0,5.12,1.7c3.17,0,4.65-1.26,4.65-3.16s-1.22-2.68-3.85-3.63l-1.93-.7c-3-1.11-5-2.77-5-5.62,0-3,2.57-5.84,7.25-5.84a10.79,10.79,0,0,1,5.83,1.7l-.17,4.23H69.72l-.86-4.26,1.55.68v1.11a6.84,6.84,0,0,0-4.25-1.57c-2.54,0-3.87,1.11-3.87,2.85s1,2.54,3.85,3.57l1.3.47c4.15,1.52,5.73,3.49,5.73,6.1,0,3.16-2.75,6-8.12,6A12.69,12.69,0,0,1,58.83,120.07Z"/><path class="cls-2" d="M.74,165.15l4.46-.83-1.39,2.32c.08-1.88.12-6.17.12-8.75V139.61L.52,139.2v-1.48l6.38-1.87.59.34-.16,5.91V150l.12.54v12.82L7,167.06l-6.26-.42Zm17.16-8.24c0-5.35-2.17-8.22-5.3-8.22-1.54,0-3.57.76-6.51,3.71l-.38-.75c2.42-3.71,5.13-5.32,8-5.32,4.42,0,7.93,3.77,7.93,10.22s-3.7,10.63-8.56,10.63c-2.61,0-5.17-1.18-7.36-5.51l.38-.67c2.14,2.72,4.33,3.82,6.29,3.82C15.37,164.82,17.9,162.25,17.9,156.91Z"/><path class="cls-2" d="M28.08,166.63c.08-1.87.12-6.16.12-8.74v-2c0-2.29,0-3.58-.12-5.25l-3.37-.37v-1.47l6.43-2.51.63.41-.13,5.65v5.5c0,2.58,0,6.87.13,8.74Zm6.55-1.48v1.48H25v-1.48l4.54-.83h1Zm-7.54-26.1a2.63,2.63,0,0,1,2.79-2.66,2.66,2.66,0,1,1-2.79,2.66Z"/><path class="cls-2" d="M37.18,165.15l4.46-.83-1.39,2.32c.08-1.88.12-6.17.12-8.75V139.61L37,139.2v-1.48l6.38-1.87.58.34-.16,5.91V150l.12.54v12.82l-.45,3.7-6.26-.42Zm17.17-8.24c0-5.35-2.18-8.22-5.31-8.22-1.53,0-3.56.76-6.51,3.71l-.37-.75c2.41-3.71,5.12-5.32,8-5.32,4.42,0,7.93,3.77,7.93,10.22s-3.7,10.63-8.56,10.63c-2.61,0-5.17-1.18-7.36-5.51l.38-.67c2.14,2.72,4.33,3.82,6.3,3.82C51.81,164.82,54.35,162.25,54.35,156.91Z"/><path class="cls-2" d="M67.09,135.85l.58.34-.16,5.91v15.79c0,2.91,0,5.83.12,8.74H63.86c.09-2.91.13-5.83.13-8.74V139.61l-3.41-.41v-1.48Zm3.81,29.3v1.48H60.59v-1.48l4.67-.83h1Z"/><path class="cls-2" d="M76.51,166.63c.09-1.87.13-6.16.13-8.74v-2c0-2.29,0-3.58-.13-5.25l-3.36-.37v-1.47l6.42-2.51.63.41-.12,5.65v5.5c0,2.58,0,6.87.12,8.74Zm6.56-1.48v1.48H73.4v-1.48l4.54-.83h1Zm-7.55-26.1a2.8,2.8,0,1,1,2.79,2.66A2.64,2.64,0,0,1,75.52,139.05Z"/><path class="cls-2" d="M86.24,156.83c0-6.89,4.7-10.5,9.56-10.5s9.56,3.61,9.56,10.5-4.75,10.35-9.56,10.35S86.24,163.71,86.24,156.83Zm15.18,0c0-5.6-2.07-8.61-5.62-8.61s-5.62,3-5.62,8.61,2,8.46,5.62,8.46S101.42,162.43,101.42,156.83Z"/><path class="cls-2" d="M116.49,165a4.69,4.69,0,0,0,2.8-1.15l1,1.12a5.92,5.92,0,0,1-4.9,2.19c-2.93,0-4.74-1.51-4.74-4.77,0-1,0-1.91,0-3.53v-9.8H107.2v-1.83l5.15-.67L110.64,148,112,141.2h2.52l-.32,7.3V162C114.17,164.11,115.08,165,116.49,165Zm3.35-18.15v2.21h-7.43v-2.21Z"/><path class="cls-2" d="M139.55,154.33a8.27,8.27,0,0,1-.29,2.32H123.84v-1.77h9.79c2,0,2.46-.95,2.46-2.15a4.54,4.54,0,0,0-4.52-4.52c-2.61,0-5.6,2.23-5.6,8.19,0,5.28,2.65,8.08,6.76,8.08a7.14,7.14,0,0,0,5.78-2.92l1,.79a8.5,8.5,0,0,1-8,4.83c-5.61,0-9.27-3.88-9.27-10.23s4.39-10.62,9.56-10.62C136.15,146.33,139.55,149.29,139.55,154.33Z"/><path class="cls-2" d="M147,156.4c0,5.22,2.76,8.08,6.65,8.08a6.65,6.65,0,0,0,5.76-3.2l1,.55c-1.15,3.45-3.84,5.35-7.75,5.35-5.71,0-9.35-4-9.35-10.38,0-6.56,4.61-10.47,9.63-10.47,3.75,0,6.83,2.31,7.36,5.41a1.77,1.77,0,0,1-1.93,1.57,2.19,2.19,0,0,1-2.26-2l-1-3.62,2,1.55a8.65,8.65,0,0,0-4-1C149.59,148.21,147,151.05,147,156.4Z"/><path class="cls-2" d="M170.7,155.68a48.87,48.87,0,0,1,6.46-1.75v1.52a38,38,0,0,0-5.57,1.66c-3.64,1.42-4.1,3-4.1,4.25,0,2.2,1.43,3.08,3.32,3.08,1.42,0,2.24-.53,4.79-2.36l.88-.66.58.86-1.24,1.25c-2.47,2.48-3.88,3.65-6.45,3.65-3.05,0-5.57-1.76-5.57-5.21C163.8,159.6,165.07,157.71,170.7,155.68Zm4.69,7.15v-9.55c0-4.06-1.14-5.07-3.88-5.07a9.89,9.89,0,0,0-3.76.75l1.74-1.31-1,3.54c-.36,1.29-1,2-2.18,2a1.74,1.74,0,0,1-1.92-1.69c.76-3.19,3.85-5.16,8.12-5.16s6.43,2,6.43,7.24v8.85c0,1.82.57,2.47,1.51,2.47A2,2,0,0,0,182,164l.84.91a3.93,3.93,0,0,1-3.62,2.18C176.92,167.06,175.42,165.41,175.39,162.83Z"/><path class="cls-2" d="M187.74,157.89v-2c0-2.29,0-3.55-.12-5.22l-3.29-.37v-1.47l5.81-2.51.63.41.49,5.2v5.95c0,2.58,0,6.87.13,8.74h-3.77C187.7,164.76,187.74,160.47,187.74,157.89Zm-3.08,7.26,4.55-.83h1l4.55.83v1.48H184.66Zm4.85-12.88h2.42l-1,.34c1.3-3.94,3.86-6.28,6.32-6.28a3.46,3.46,0,0,1,3,1.51c0,2-.78,3.06-2.45,3.06a3.76,3.76,0,0,1-2.54-1.06l-1.13-1,2-.36c-2.52,1.32-4,3.41-4.95,6.58l-1.67,0Z"/><path class="cls-2" d="M205.08,166.63c.08-1.87.13-6.16.13-8.74v-2c0-2.29-.05-3.58-.13-5.25l-3.37-.37v-1.47l6.43-2.51.63.41-.12,5.65v5.5c0,2.58,0,6.87.12,8.74Zm6.55-1.48v1.48H202v-1.48l4.54-.83h1Zm-7.54-26.1a2.79,2.79,0,1,1,2.79,2.66A2.64,2.64,0,0,1,204.09,139.05Z"/><path class="cls-2" d="M214.81,156.83c0-6.89,4.7-10.5,9.56-10.5s9.56,3.61,9.56,10.5-4.76,10.35-9.56,10.35S214.81,163.71,214.81,156.83Zm15.18,0c0-5.6-2.07-8.61-5.62-8.61s-5.62,3-5.62,8.61,2,8.46,5.62,8.46S230,162.43,230,156.83Z"/><path class="cls-2" d="M237.92,165.58l-.16-4.57H240l1.11,5-2.06-1v-1.43a8,8,0,0,0,5.13,1.7c3.16,0,4.65-1.26,4.65-3.16s-1.22-2.68-3.85-3.63l-1.94-.7c-3.05-1.12-5-2.77-5-5.62,0-3,2.58-5.84,7.25-5.84a10.8,10.8,0,0,1,5.84,1.7l-.17,4.23H248.8L248,148l1.54.68v1.11a6.81,6.81,0,0,0-4.24-1.57c-2.54,0-3.87,1.11-3.87,2.85s1,2.54,3.85,3.57l1.29.47c4.16,1.52,5.74,3.49,5.74,6.1,0,3.16-2.76,6-8.12,6A12.8,12.8,0,0,1,237.92,165.58Z"/><path class="cls-2" d="M41.15,54.26a1.09,1.09,0,0,1,1.18,1.18V65.91a1.09,1.09,0,0,1-1.18,1.18h-40A1.1,1.1,0,0,1,0,65.91V3.73A1.1,1.1,0,0,1,1.18,2.55H13.56a1.1,1.1,0,0,1,1.19,1.18V54.26Z"/><path class="cls-2" d="M67.17,58.54l-2.73,7.64a1.36,1.36,0,0,1-1.36.91H50.24c-.91,0-1.28-.54-1-1.36L62.08,31a271.1,271.1,0,0,0,8.64-27.4,1.3,1.3,0,0,1,1.37-1H89a1.3,1.3,0,0,1,1.37,1A268.67,268.67,0,0,0,99,31l12.83,34.78c.27.82-.09,1.36-1,1.36H98a1.36,1.36,0,0,1-1.36-.91l-2.73-7.64ZM88,42.06c-2.64-7.19-5.55-15.75-6.65-21.67-.27-1.09-1.36-1.09-1.63,0-1.19,5.92-4,14.39-6.65,21.67L71.82,45.7H89.29Z"/><path class="cls-2" d="M226.6,39.33c-12.47-4.65-17-9.2-17-19.12,0-11.93,9-18.66,23.4-18.66a46.3,46.3,0,0,1,14.57,2.36l6,2a1,1,0,0,1,.82,1.45l-3.73,10.2c-.27.73-.73,1-1.45.73l-5.38-1.64A37.22,37.22,0,0,0,233,14.75c-5.1,0-8.56,2.18-8.56,5.46s2.82,4.64,8,6.55l7.65,2.83c12.65,4.73,17.21,9.47,17.21,19.39,0,12.47-8.47,19.12-23.95,19.12a52.86,52.86,0,0,1-17.93-3l-6-1.91a1.06,1.06,0,0,1-.82-1.46l3.64-10.1c.28-.73.73-1,1.46-.73L220,52.8A43.66,43.66,0,0,0,233.33,55c4.92,0,9.11-1.19,9.11-6,0-2.73-3.19-4.83-8.19-6.74Z"/></g></g></svg>