<svg xmlns="http://www.w3.org/2000/svg" viewBox="0 0 1076.87 55.68"><defs><style>.cls-1{fill:#d7d7d7;}.cls-1,.cls-2,.cls-3{stroke:#222221;stroke-linecap:round;stroke-linejoin:round;stroke-width:2.74px;}.cls-2{fill:#fff;}.cls-3{fill:#f4f4f4;}</style></defs><title>Asset 12</title><g id="Layer_2" data-name="Layer 2"><g id="Layer_1-2" data-name="Layer 1"><path class="cls-1" d="M1060.64,54.31A135.36,135.36,0,0,0,1075.5,41.4c-.16-2.92.16-9.39-.12-20.83-.16-6.32-.66-12.7-.66-17.29l-15.57,13.08"></path><path class="cls-2" d="M1.37,14.73C7.91,10.18,18.29,2.13,20.88,1.44c2.92-.2,113.35.07,121.9.24,18.93.37,913.2.67,931.94,1.6-4.33,5.08-9.73,8.39-14.55,13.08"></path><path class="cls-3" d="M1.37,14.73c29.44.72,1029,1.48,1058.8,1.63-.12,7.36.47,28.41.47,38-9-.27-1046-2-1053.63-1.88a26.28,26.28,0,0,1-4.22-.19C2.05,49.07,2.05,22.34,1.37,14.73Z"></path></g></g></svg>