<svg xmlns="http://www.w3.org/2000/svg" viewBox="0 0 253.07 200.73"><defs><style>.cls-1{fill:#b454d5;}.cls-1,.cls-2,.cls-3,.cls-4{stroke:#66ffcb;stroke-linecap:round;stroke-linejoin:round;stroke-width:3.07px;}.cls-2{fill:#710095;}.cls-3{fill:#630084;}.cls-4{fill:#9800cb;}</style></defs><title>Asset 15</title><g id="Layer_2" data-name="Layer 2"><g id="Layer_1-2" data-name="Layer 1"><path class="cls-1" d="M223.22,198.27c5.26-3.06,18.16-13.3,23.87-16.9-18.39-23.75-50.27-62.32-71.15-88.57l-25.16,11.35,29.69,43.17Z"/><path class="cls-1" d="M131.08,48.6C118.62,33.31,105,18.29,94.89,2L66.19,16.37S79.45,35.46,87.73,46c5.73,7.33,25.5,27.51,25.5,27.51Z"/><path class="cls-2" d="M150.78,104.15c12.31-5.94,16.07-8.07,25.16-11.35,21.38-27.11,53.7-66,75.6-91.09L222.87,16.07"/><path class="cls-1" d="M156,16.2C163,11.7,172.21,6,179,1.85c17.23-.92,55.82.53,72.58-.14-9.58,4.64-19.1,9.72-28.67,14.36"/><path class="cls-1" d="M1.54,16.5C8.55,12,24.26,5.29,32.14,2.14c17.24-.92,46,.54,62.72-.13-9.58,4.65-19.1,9.72-28.67,14.36"/><path class="cls-3" d="M66.54,198.57C76.72,191,87,184.3,97.19,176.7c6.27-9.48,17.11-24.61,22.07-31l-6.82-9.26Z"/><path class="cls-4" d="M66.19,16.37c4.44,7.1,15.73,21,19.3,25.42,11.06,13.84,21.24,25.74,27.74,31.76C128.67,51.41,144.05,30.84,156,16.2c22.3.64,44.6-.77,66.9-.13-20.2,26.12-35.81,42.44-45.24,54.58-2.72,3.5-24.29,29.21-26.85,33.5C152.57,107.8,177.2,140,179.5,143c10.71,14.24,29.87,36.64,43.72,55.25-25.24,2.26-43.56-.39-66.9.13-10.94-16.37-28.95-41.36-43-61-11.72,15-31.48,41.31-46.81,61.13-23-.13-35.4-1.23-64.65.13,15.61-23.73,58-72.64,72-94.4-5.74-5.7-26.12-30.38-38.08-45.95C30.85,51.9,11.16,27.2,1.54,16.5c4.51-.3,34.48,0,38.7-.08C55.59,16.08,59.49,15.82,66.19,16.37Z"/></g></g></svg>