<svg xmlns="http://www.w3.org/2000/svg" viewBox="0 0 253.19 228.63"><defs><style>.cls-1{fill:none;}.cls-1,.cls-2,.cls-3,.cls-4{stroke:#60f;stroke-linecap:round;stroke-linejoin:round;stroke-width:3.19px;}.cls-2{fill:#a55353;}.cls-3{fill:#ea8282;}.cls-4{fill:#cb6666;}</style></defs><title>Asset 26</title><g id="Layer_2" data-name="Layer 2"><g id="Layer_1-2" data-name="Layer 1"><path class="cls-1" d="M126,1.6c15.6.57,49.77,1.51,65.35,2,1.47,3.45-2.27,54.21-1.23,57.83,13.29.41,47.87,2.4,61.12,2.75"/><path class="cls-2" d="M196,173.52c15.12-15.55,42.42-43.54,55.3-55.79-1.1-14,1.16-36.52-.07-53.54l-54,49.23"/><path class="cls-2" d="M135.83,112.12c21.1-19.3,41.38-37.66,54.26-49.91C190,49,192.27,19.15,191.33,3.61L134.32,55"/><path class="cls-2" d="M134.7,226.91c21.1-19.29,42.88-39,55.76-51.29-.05-13.22.57-40.18-.38-55.71l-57,51.38"/><path class="cls-3" d="M68.11,52.73C92.12,32.23,120.52,6.11,126,1.6c20.81,1.07,38.17,1.13,65.35,2C175,18,156.27,35.23,134.32,55"/><path class="cls-3" d="M135.83,112.12c23.29-21.28,45.33-42.73,54.27-50.68,21.49,1,34.75,1.69,61.12,2.75C235,79.33,217,96,197.26,113.42"/><path class="cls-3" d="M2.9,108.4C25.4,87.2,50.7,65.78,59.34,57.86c20.75,1,32.8,1.64,58.26,2.69C102,75.63,84.47,93.46,65.44,110.81"/><path class="cls-4" d="M134,170.41c29.71.29,26.83,1.28,62,3.11.4-19.07,1.84-48.6,1.27-60.1-13.59-.36-47.79-.89-61.43-1.3-1.53-2.94,0-52.76-1.51-57.13-16.94-.54-33.89-1-50.83-1.51-3.39-.11-12.06-1.41-15.38-.75-1.13.25-.76,1.33-1.06,8.52-.53,12.84-1.11,34.52-1.57,47.36-24,1.54-44.16-.76-62.58-.21-1.82,19.2-.56,45.31-1.3,61.42,22,.36,42.06.13,64.25.58,1.14,17.88-1,37.76-.07,55.46,19.81.16,46.69,1.59,68.92,1C133.89,212,133.68,175.63,134,170.41Z"/></g></g></svg>