<svg xmlns="http://www.w3.org/2000/svg" viewBox="0 0 269.72 294.67"><defs><style>.cls-1{fill:#ffb2ff;}.cls-1,.cls-2,.cls-3{stroke:#f0f;}.cls-1,.cls-2,.cls-3,.cls-4,.cls-5,.cls-6,.cls-7{stroke-linecap:round;stroke-linejoin:round;stroke-width:3.4px;}.cls-2{fill:#ff98ff;}.cls-3,.cls-4{fill:none;}.cls-4,.cls-5,.cls-6,.cls-7{stroke:#90c;}.cls-5{fill:#e7e700;}.cls-6{fill:#ffffa2;}.cls-7{fill:#ff0;}</style></defs><title>Asset 35</title><g id="Layer_2" data-name="Layer 2"><g id="Layer_1-2" data-name="Layer 1"><path class="cls-1" d="M6.22,202.94c14.67-11.69,36.46-26,43-29.18,6.34-1.12,16.45-.27,23.37-.2,41.46.43,76.78-1.1,118.18,1.11,10.52.57,21.76.5,35,3.16A60.78,60.78,0,0,1,258,196.77c5.56,6.6,10,15.42,10,30.18,0,12.28-2.87,22.05-6.61,28.89-3,2.88-16.47,16.36-29.65,26.88"/><path class="cls-2" d="M8.08,288.65l165.32,3.82c20.4.47,42.39,2.95,58.36-9.75,11.45-9.1,15.05-21,13.5-35.59s-12.79-30.41-26-36.69a86.73,86.73,0,0,0-38.53-8.55c-36.56.76-58.46-.11-95,.8-17.53.43-42.18-2.43-59.65-1-6.48.54-13.63-.32-19.83,1.24-1.54,3.8-.18,16.87,0,24.13Q7.18,257.87,8.08,288.65Z"/><path class="cls-3" d="M198.8,203l28.79-24.77"/><path class="cls-3" d="M216.81,208,242,184.18"/><path class="cls-3" d="M232,218.71c9.34-9,15.66-14.09,25-23"/><path class="cls-3" d="M241.7,234.49c10.29-9,14.91-12.69,24.46-22.44"/><path class="cls-3" d="M245.85,249.51,268,230"/><path class="cls-3" d="M243.09,267.75c6.32-6.56,16.23-16.3,22-21.88"/><path class="cls-4" d="M93.9,2.23c.59,9.25,1.48,29.17,1.48,35.66,3.27.07,30.59.11,38.75,1.3,1.24,9.48.94,29,2.05,33.82,8.3.18,32.44.16,40.74.31-.73,6.79-.14,25,0,30.43,9.76.15,31.12.28,40.86.39,1,2.14-.69,29.14,0,31.39,8.31.08,34.3.87,42.58.91"/><path class="cls-5" d="M225.63,203.11c13.92-10,27.6-25.39,35.49-33.21-.87-8.73.24-22.84-.76-33.46l-34.73,31.47"/><path class="cls-5" d="M183.24,172.8c13.92-10,26.66-29.19,34.54-37-.2-8.25.8-21.69,0-31.38l-36.16,33.17"/><path class="cls-5" d="M139.25,136.61c13.92-10,29.79-25,37.67-32.86-.36-8.84.32-20,0-30.43L138.8,106.63"/><path class="cls-5" d="M97.42,106.35c13-11.65,30.87-25,38.76-32.87-.87-8.72-1.06-23.67-2.05-34.29L95.34,73"/><path class="cls-5" d="M55.59,71.74c13.92-10,31.91-26,39.79-33.85,0-8.39-.49-25-1.48-35.66L54.06,36.1"/><path class="cls-6" d="M1.71,34.83C17.65,23.69,43,4,49.29,2.33,62.43,1.83,77,1.25,93.9,2.23,84,11.91,65.84,24.63,54.06,36.1"/><path class="cls-6" d="M55.59,71.74c13-13,39.79-33.85,39.79-33.85,12.81.13,21.93,0,38.75,1.3C123.65,48.81,108.54,61.4,95.34,73"/><path class="cls-6" d="M97.42,105.88c15-12.87,36-30.48,38.76-32.87,13.22-.19,22.95,0,40.28.44-10.4,9.38-25.45,22.88-37.21,33.19"/><path class="cls-6" d="M139.67,136.66c14.73-13.13,33.9-30,37.25-32.91,13,.39,23.87.21,40.86.39-10,9.21-22.71,20.55-36.16,33.18"/><path class="cls-6" d="M184.18,167.73c14.27-13.6,28.12-27.12,33.6-32.2,13.44.33,26.09.6,42.58.91-9.91,9.68-22.65,20.33-34.73,31.47"/><path class="cls-7" d="M1.71,34.83q26,.63,52.35,1.27c.61,9.11,1.53,29.26,1.53,35.64,3.35.08,31.38.11,39.75,1.29,1.27,9.34,1,28.58,2.1,33.31,8.52.17,33.29.15,41.81.3-.75,6.69-.14,24.58,0,30,10,.15,31.93.28,41.92.39,2.84,0,.18,30.7,3,30.73,8.53.08,32.95.14,41.45.18.51,7.18,0,23.27,0,35.2-22-.68-191.59-4.83-210.16-4.62-2.73,0-7.93,0-10.29-.45C3.37,190.3,1.56,69.46,1.71,34.83Z"/><path class="cls-4" d="M55.59,71.74C68.19,59.25,81.17,49.4,95.38,37.89"/><path class="cls-4" d="M95.34,73c12.75-11.72,25.55-21.72,38.56-33.35"/><path class="cls-4" d="M97.42,105.88c12.82-11.4,24.83-20.75,38.76-32.87"/><path class="cls-4" d="M139.25,106.64c12.67-10.83,25-22.49,37.67-33.32"/><path class="cls-4" d="M140.73,135.53l-1.06.88c12.63-10.84,24.63-21.82,37.25-32.66"/><path class="cls-4" d="M181.62,137.32c12-10.93,24-22,36.16-33.18"/><path class="cls-4" d="M184.18,167.73c11.71-10.58,21.89-21.62,33.6-32.2"/></g></g></svg>