<svg xmlns="http://www.w3.org/2000/svg" viewBox="0 0 178.09 328.1"><defs><style>.cls-1{fill:#ffb2ff;}.cls-1,.cls-2,.cls-3{stroke:#cb00ff;}.cls-1,.cls-2,.cls-3,.cls-4,.cls-5,.cls-6,.cls-7,.cls-8{stroke-linecap:round;stroke-width:3px;}.cls-1,.cls-2,.cls-4,.cls-5,.cls-6,.cls-7,.cls-8{stroke-linejoin:round;}.cls-2{fill:#ff98ff;}.cls-3{fill:none;stroke-miterlimit:10;}.cls-4{fill:#f06;stroke:#3f6;}.cls-5{fill:#80d580;}.cls-5,.cls-6,.cls-7{stroke:#6600cb;}.cls-6{fill:#b9ffb9;}.cls-7{fill:#98ff98;}.cls-8{fill:#36f;stroke:#ff9833;}</style></defs><title>Asset 25</title><g id="Layer_2" data-name="Layer 2"><g id="Layer_1-2" data-name="Layer 1"><path class="cls-1" d="M75.85,322.39c9.3-10.3,16.81-20,20.36-24.44.89-5,.22-23.47.16-29-.34-33,.87-55.81-.89-88.71-.44-8.36-.39-17.3-2.5-27.86a48.34,48.34,0,0,0-15-25.6c-5.24-4.42-12.26-8-24-8-9.77,0-17.53,2.29-23,5.26-2.29,2.39-10.74,8-17.73,14.36"/><path class="cls-2" d="M4.88,320.2l-3-131.37c-.36-16.21-2.32-33.69,7.77-46.37,7.24-9.1,16.73-12,28.29-10.72s24.16,10.18,29.15,20.68c4.49,9.45,6.21,17.33,6.63,40.28.19,10.82.61,40.61.6,55.19,0,13.93,1.54,69.69,1.52,74.5-3.69,0-16.27-.55-22-.72Z"/><path class="cls-3" d="M72.33,167.72c5-4.65,13.84-11.71,20.33-16.74"/><path class="cls-3" d="M68.24,155c4.73-3.09,12.57-9.52,19.69-15.42"/><path class="cls-3" d="M60.49,142.25c6.59-5.63,10.91-8.09,18.31-14.67"/><path class="cls-3" d="M48,134.57c4.51-3.3,11-8.8,17.83-14.23"/><path class="cls-3" d="M36,131.27c4.54-4,10-7.4,15.54-12.36"/><path class="cls-3" d="M21.52,133.47C27.33,128.86,34,125,38.91,121.15"/><path class="cls-4" d="M19.67,59.1c-9.1,5.46-15,16.33-16.49,26.82C.79,102.28,7.38,117.25,22,125c9,4.81,23.77,7.52,33.48,4.38,21.28-6.88,30.93-22.36,29.26-40.57A43,43,0,0,0,62.61,55.53C49.19,48.37,32.49,51.43,19.67,59.1Z"/><path class="cls-5" d="M145,326.6c11.79-8.47,25-21.45,31.64-28.07-.32-3.25-1.42-40.8-.63-82.2.72-37.67,0-91.8-.44-114.24-.16-8.76-.65-26.95-2.23-33.24l-31.45,27"/><path class="cls-6" d="M83.06,92.51c13.51-9.41,29.77-23.66,33.13-25.37,5.65-.47,18.38-.22,57.1,1.71-8.94,10.5-21.47,17.33-31.45,27"/><path class="cls-7" d="M83.06,92.51c20.64,1.73,50.28,2.22,58.78,3.37.72,11.1.44,78.74.92,133.51.44,50.72,1.66,88.9,2.19,97.21-18.62-.57-27.41-1.78-41.82-2.52-2.32-.12-17-.74-19-1.16.07-3.18-1.37-45.24-1.61-89.11C82.17,175.07,83,109.27,83.06,92.51Z"/><path class="cls-8" d="M101.73,9.86c-10,6-16.4,17.9-18.09,29.41C81,57.21,88.24,73.62,104.23,82.16,114.1,87.43,130.3,90.41,141,87c23.34-7.54,33.92-24.52,32.08-44.49A47.07,47.07,0,0,0,148.81,5.94C134.09-1.91,115.78,1.44,101.73,9.86Z"/></g></g></svg>