<svg xmlns="http://www.w3.org/2000/svg" viewBox="0 0 253.07 262.85"><defs><style>.cls-1{fill:#583b75;}.cls-1,.cls-2,.cls-3,.cls-7{stroke:#3ff;}.cls-1,.cls-2,.cls-3,.cls-4,.cls-5,.cls-6,.cls-7,.cls-8,.cls-9{stroke-linecap:round;stroke-linejoin:round;stroke-width:3.07px;}.cls-2{fill:#ad90cb;}.cls-3{fill:#9866cb;}.cls-4{fill:#cbcb29;}.cls-4,.cls-5,.cls-6{stroke:#060;}.cls-5{fill:#ffff93;}.cls-6{fill:#ff3;}.cls-7{fill:#a580cb;}.cls-8{fill:#54e723;}.cls-8,.cls-9{stroke:#f6f;}.cls-9{fill:#33cb00;}</style></defs><title>Asset 18</title><g id="Layer_2" data-name="Layer 2"><g id="Layer_1-2" data-name="Layer 1"><path class="cls-1" d="M197.27,179.44s.06,1.16,0,1.16c-4.43,1.74-6.54,4.81-7.52,9.05a17.19,17.19,0,0,0,1.19,9.53c1.32,2.68,5.53,6.59,12.45,5.33,0,2.08-20,11.55-23.28-10.36-.54-3.58.77-10.93,9.56-14.37C196.06,177.3,197.27,179.44,197.27,179.44Z"/><path class="cls-2" d="M208.07,229.53c37.06-9,35.75-37.64,35.52-41.62-.33-5.85-2.74-12.36-5.3-16.95-3.87-6.94-10.89-12.83-18.17-16a39.34,39.34,0,0,0-17.26-3.7,61.67,61.67,0,0,0-14.2,1.47,46.62,46.62,0,0,0-21.24,12.55l13.42-4,28.26,1.33,17.49,17.84Z"/><path class="cls-3" d="M224.85,172c-5.68-6.73-12.14-11.27-20.66-13.51a47.64,47.64,0,0,0-16.55-1.26c-5.19.55-9.53,1.26-14.2,3.59-6.19,3.08-10.63,9-13.15,15.45-2,5.2-3.83,13.22-3.33,19.6h0c.26,7.66,2.24,15.13,6.47,20.88,5.23,7.09,11.64,11.08,20.16,13.32,5,1.31,11.82,1.41,17.42.82a36.93,36.93,0,0,0,13.61-4.15c6.19-3.09,11.12-8.89,14.29-14.46a30.49,30.49,0,0,0,3.71-14.73C232.67,191.22,231.63,180.06,224.85,172Zm-17.21,24.13a13.83,13.83,0,0,1-4.2,8.34c-2.65,2.21-7.19,4-11.12,3.39A12.71,12.71,0,0,1,182,199.5c-2.67-7.77.1-13,2.43-15.56s7.37-4.26,11.3-3.62,7,1.65,9.2,4.94A17.49,17.49,0,0,1,207.64,196.17Z"/><path class="cls-1" d="M82.77,177.24s.06,1.16,0,1.16c-4.43,1.74-6.54,4.81-7.53,9a17.22,17.22,0,0,0,1.2,9.53c1.32,2.68,5.52,6.59,12.45,5.33,0,2.08-20,11.55-23.29-10.36-.53-3.58.78-10.93,9.56-14.37C81.56,175.1,82.77,177.24,82.77,177.24Z"/><path class="cls-2" d="M93.57,227.33c37.06-9,35.74-37.64,35.52-41.62-.33-5.85-2.74-12.36-5.3-17-3.87-6.94-10.9-12.83-18.17-16A39.39,39.39,0,0,0,88.35,149a61.73,61.73,0,0,0-14.2,1.47,46.59,46.59,0,0,0-21.23,12.55l13.42-4,28.26,1.33,17.49,17.84Z"/><path class="cls-3" d="M110.35,169.84c-5.69-6.73-12.14-11.27-20.67-13.51a47.58,47.58,0,0,0-16.54-1.26c-5.2.55-9.53,1.26-14.2,3.59-6.2,3.08-10.64,9-13.15,15.45-2,5.2-3.83,13.22-3.33,19.6h0c.27,7.66,2.24,15.14,6.48,20.88,5.23,7.09,11.64,11.08,20.16,13.32,5,1.31,11.81,1.41,17.41.82a37,37,0,0,0,13.62-4.15c6.19-3.09,11.11-8.89,14.28-14.46a30.6,30.6,0,0,0,3.72-14.73C118.17,189,117.13,177.87,110.35,169.84ZM93.14,194a13.83,13.83,0,0,1-4.2,8.33c-2.65,2.21-7.19,4-11.12,3.39a12.74,12.74,0,0,1-10.3-8.4c-2.67-7.77.11-13,2.43-15.56s7.38-4.26,11.31-3.62,7,1.65,9.2,4.94A17.57,17.57,0,0,1,93.14,194Z"/><path class="cls-4" d="M217.18,223.44c13.47-9.58,26.72-24.31,34.35-31.81-.79-8.41-2.14-55.87-2.64-62.25-1.09-13.94-1.18-31-2.1-44.37l-34.37,30.62"/><path class="cls-5" d="M2.07,110.68C17.48,100,42,81.22,48.07,79.61c15.6-1.53,51.38.44,71.47.94,44.47,1.12,83.23,2,127.25,4.46-10.23,11.91-23,19.63-34.37,30.62"/><path class="cls-6" d="M2.07,110.68c69.17,2.06,140.32,4.24,210.35,4.95,2.52,37.35,2.25,70.46,4.76,107.81-21.16-.77-184.53-5.62-202.42-5.52a62.47,62.47,0,0,1-9.92-.48C4.49,204.75,1.75,144,2.07,110.68Z"/><path class="cls-1" d="M165.46,209.48s.06,1.16,0,1.17c-4.43,1.74-6.54,4.8-7.52,9a17.22,17.22,0,0,0,1.19,9.54c1.32,2.67,5.53,6.59,12.45,5.33,0,2.08-20,11.54-23.29-10.36-.53-3.59.78-10.94,9.57-14.37C164.25,207.34,165.46,209.48,165.46,209.48Z"/><path class="cls-7" d="M176.26,259.57c37.06-9,35.75-37.64,35.52-41.61-.33-5.86-2.74-12.37-5.3-17-3.87-6.94-10.9-12.83-18.17-16A39.37,39.37,0,0,0,171,181.29a61.58,61.58,0,0,0-14.19,1.47,46.52,46.52,0,0,0-21.24,12.54l13.42-4,28.26,1.33,17.49,17.84Z"/><path class="cls-3" d="M193,202.09c-5.68-6.74-12.14-11.28-20.66-13.52a47.88,47.88,0,0,0-16.55-1.26c-5.2.56-9.53,1.26-14.2,3.59-6.19,3.09-10.63,9-13.15,15.45-2,5.2-3.83,13.22-3.33,19.6h0c.27,7.65,2.25,15.13,6.48,20.87,5.23,7.09,11.64,11.09,20.16,13.32,5,1.31,11.82,1.41,17.41.82a36.79,36.79,0,0,0,13.62-4.15c6.19-3.08,11.12-8.88,14.28-14.46a30.37,30.37,0,0,0,3.72-14.72C200.86,221.27,199.82,210.11,193,202.09Zm-17.21,24.13a13.88,13.88,0,0,1-4.2,8.34c-2.65,2.2-7.19,4-11.12,3.38a12.69,12.69,0,0,1-10.29-8.4c-2.67-7.77.1-13,2.43-15.56s7.37-4.26,11.3-3.62,7,1.65,9.2,4.95A17.56,17.56,0,0,1,175.83,226.22Z"/><path class="cls-1" d="M51,207.28s.06,1.16,0,1.17c-4.43,1.74-6.54,4.8-7.53,9a17.24,17.24,0,0,0,1.2,9.54c1.32,2.67,5.52,6.59,12.45,5.33,0,2.08-20,11.54-23.29-10.36-.53-3.59.78-10.94,9.56-14.37C49.75,205.14,51,207.28,51,207.28Z"/><path class="cls-7" d="M61.76,257.37c37.06-9,35.74-37.64,35.52-41.61-.33-5.86-2.74-12.37-5.3-17-3.87-6.94-10.9-12.83-18.17-16a39.4,39.4,0,0,0-17.27-3.69,61.73,61.73,0,0,0-14.2,1.47A46.57,46.57,0,0,0,21.11,193.1l13.42-4,28.26,1.32,17.49,17.84Z"/><path class="cls-3" d="M78.54,199.89c-5.69-6.73-12.14-11.28-20.67-13.52a47.86,47.86,0,0,0-16.55-1.26c-5.19.56-9.52,1.26-14.19,3.59-6.2,3.09-10.64,9-13.15,15.45-2,5.2-3.83,13.22-3.33,19.6h0c.27,7.65,2.24,15.13,6.48,20.87,5.23,7.09,11.64,11.09,20.16,13.33,5,1.3,11.81,1.41,17.41.81a36.85,36.85,0,0,0,13.62-4.15c6.19-3.08,11.11-8.88,14.28-14.46a30.59,30.59,0,0,0,3.72-14.72C86.36,219.07,85.32,207.91,78.54,199.89ZM61.33,224a13.88,13.88,0,0,1-4.2,8.34c-2.65,2.2-7.19,4-11.12,3.38a12.72,12.72,0,0,1-10.3-8.4c-2.67-7.77.11-13,2.43-15.56s7.38-4.26,11.31-3.62,7,1.65,9.2,5A17.56,17.56,0,0,1,61.33,224Z"/><path class="cls-8" d="M12,45.41c8.4-16.9,29.87-35.8,50-41.55C74,.42,87.7.77,97.73,5.11c13.09,5.68,22.15,19.42,25.9,28.35l4.49,27.22S65.24,71.8,65.5,70.62,12,45.41,12,45.41Z"/><path class="cls-8" d="M212.63,111.13c2-1.85,30.69-25.27,33.51-28.34.08-21.75-4.25-37.8-16.43-54.4C219,13.79,189.43-1.38,160.21,8.65c-13.38,4.6-28.21,15.14-36.58,24.81"/><path class="cls-9" d="M212.52,111.5c1.58-16.83,1.4-29.89-1.22-43.78s-9-25.63-19.75-34.79-24-14.76-47.54-10.09c-13.87,2.75-33.12,20-34.66,34.06-6.09-20.36-23.62-35.71-45.66-37s-35.4,5.42-49.48,22.42C7.3,50.65,1.81,70.69,2.14,86.19c.11,5-1.2,17.68-.27,20.9,2.24.72,101.5.49,138.22,2.62C161.86,111,191.73,110.31,212.52,111.5Z"/></g></g></svg>