<svg xmlns="http://www.w3.org/2000/svg" viewBox="0 0 193.23 394.8"><defs><style>.cls-1{fill:#0033cb;}.cls-1,.cls-2{stroke:#f6f;}.cls-1,.cls-2,.cls-3,.cls-4,.cls-5{stroke-linecap:round;stroke-width:3.05px;}.cls-1,.cls-2,.cls-3,.cls-4{stroke-miterlimit:10;}.cls-2{fill:#4769cb;}.cls-3{fill:#e5af41;}.cls-3,.cls-4{stroke:#cb6600;}.cls-4{fill:#ebc060;}.cls-5{fill:#cb3398;stroke:#669800;stroke-linejoin:round;}</style></defs><title>Asset 21</title><g id="Layer_2" data-name="Layer 2"><g id="Layer_1-2" data-name="Layer 1"><path class="cls-1" d="M97.25,283.39C97,316,97,369.9,97,373.9c-2.12,8.16-16.27,13.3-26.06,16.2a87.07,87.07,0,0,1-39.17,1.78A43.73,43.73,0,0,1,1.62,371c-.12-26.56,1.2-59.06-.1-92.28"/><path class="cls-2" d="M3.35,273.92C-.11,278,1.74,285.3,6,288.5c19.7,14.78,45.35,12.93,63.26,10.21,13.09-2,24.88-8.53,26.88-12.17,2.68-4.86.14-9.46-3.66-13.5-8.83-9.37-23.37-12.69-34.53-12.7C18.56,260.29,6.26,270.5,3.35,273.92Z"/><path class="cls-3" d="M97.92,188.38c-.28,32.64-.27,86.51-.27,90.52-2.12,8.15-16.28,13.3-26.06,16.19a87.2,87.2,0,0,1-39.17,1.79A43.76,43.76,0,0,1,2.29,276c-.12-26.56,1.19-59.06-.1-92.28"/><path class="cls-4" d="M4,178.91C.56,183,2.41,190.29,6.67,193.49,26.37,208.27,52,206.42,69.93,203.7c13.09-2,24.88-8.53,26.88-12.16,2.68-4.87.14-9.47-3.67-13.51-8.83-9.37-23.36-12.69-34.52-12.7C19.23,165.28,6.93,175.5,4,178.91Z"/><path class="cls-5" d="M27.76,201.61c10.63,3.86,21.6,4.62,32.85,3.45,10.86-1.12,19.54-3.19,28.44-9.54,4.7-3.35,10.16-8.52,11-14.23.58-3.77-14.58-36.45-19.6-47.5-9.41-20.74-21.27-47.64-27.94-57-5.82,8.41-18.12,34-23.66,45.25-4.87,9.91-27,49.59-25.66,58.32C4.81,190.31,18.82,198.37,27.76,201.61Z"/><path class="cls-3" d="M189.77,285.31c-.27,30.91-.26,81.95-.26,85.74-2,7.73-15.42,12.6-24.69,15.34a82.41,82.41,0,0,1-37.1,1.69,41.43,41.43,0,0,1-28.54-19.76c-.12-25.16,1.13-55.95-.09-87.42"/><path class="cls-4" d="M100.82,276.34c-3.28,3.85-1.53,10.78,2.51,13.81,18.66,14,43,12.24,59.92,9.67,12.41-1.89,23.57-8.08,25.47-11.52,2.53-4.61.13-9-3.48-12.79-8.36-8.88-22.13-12-32.71-12C115.22,263.43,103.57,273.1,100.82,276.34Z"/><path class="cls-3" d="M189,196.77c-.27,30.84-.26,81.75-.26,85.54-2,7.7-15.38,12.56-24.63,15.3a82.31,82.31,0,0,1-37,1.69,41.35,41.35,0,0,1-28.47-19.72c-.12-25.1,1.13-55.81-.09-87.2"/><path class="cls-4" d="M100.28,187.83c-3.27,3.83-1.52,10.75,2.51,13.77,18.61,14,42.85,12.22,59.77,9.65,12.38-1.88,23.52-8.06,25.41-11.49,2.53-4.6.13-8.94-3.47-12.76-8.34-8.86-22.08-12-32.63-12C114.65,175,103,184.6,100.28,187.83Z"/><path class="cls-3" d="M189.65,107c-.27,30.85-.26,81.75-.26,85.54-2,7.7-15.38,12.57-24.63,15.3a82.29,82.29,0,0,1-37,1.69A41.35,41.35,0,0,1,99.28,189.8c-.12-25.09,1.13-55.81-.09-87.2"/><path class="cls-4" d="M100.91,98.05c-3.26,3.84-1.52,10.75,2.51,13.77,18.61,14,42.85,12.22,59.77,9.65,12.38-1.88,23.52-8.06,25.41-11.49,2.53-4.6.13-8.94-3.47-12.76-8.34-8.86-22.08-12-32.62-12C115.28,85.17,103.67,94.82,100.91,98.05Z"/><path class="cls-5" d="M123.34,119.5c10.06,3.64,20.42,4.36,31,3.26,10.27-1.07,18.47-3,26.88-9,4.43-3.17,9.6-8.06,10.43-13.46.54-3.56-13.79-34.44-18.52-44.88-8.89-19.6-20.1-45-26.41-53.89-5.5,7.94-17.12,32.09-22.36,42.76-4.59,9.37-25.55,46.86-24.25,55.11C101.66,108.81,114.9,116.44,123.34,119.5Z"/></g></g></svg>