<svg xmlns="http://www.w3.org/2000/svg" viewBox="0 0 272 332"><defs><style>.cls-1{fill:#4b00b9;}.cls-1,.cls-2,.cls-3{stroke:#6ff;}.cls-1,.cls-10,.cls-11,.cls-12,.cls-2,.cls-3,.cls-4,.cls-5,.cls-6,.cls-7,.cls-8,.cls-9{stroke-linecap:round;stroke-linejoin:round;stroke-width:2.83px;}.cls-2{fill:#8433ff;}.cls-3{fill:#60f;}.cls-4{fill:#6ff;}.cls-4,.cls-5{stroke:#ff33cb;}.cls-5{fill:#b4ffff;}.cls-6{fill:#f06;stroke:#060;}.cls-7{fill:#80d580;}.cls-7,.cls-8,.cls-9{stroke:#9800cb;}.cls-8{fill:#b9ffb9;}.cls-9{fill:#98ff98;}.cls-10{fill:#a7a730;}.cls-10,.cls-11,.cls-12{stroke:#03f;}.cls-11{fill:#fffd4d;}.cls-12{fill:#dad922;}</style></defs><title>Asset 17</title><g id="Layer_2" data-name="Layer 2"><g id="Layer_1-2" data-name="Layer 1"><path class="cls-1" d="M231.71,330.59c12.9-10.17,30-25.14,38.88-32.93,0-6.36-.58-21.09-1.07-27.68-.76-10.28-1.1-31.69-3-39.06l-36.65,32.17"/><path class="cls-2" d="M160.67,259.86c15.77-11.23,34.72-28.19,38.64-30.25,6.64-.62,21.61-.48,67.17,1.31-10.38,12.45-25,20.64-36.65,32.17"/><path class="cls-3" d="M160.67,259.86c24.29,1.78,59.15,2,69.16,3.23.9,22.13,1.4,44.35,1.88,67.5-21.9-.45-29.76-1.75-46.72-2.45-2.72-.11-20-.65-22.38-1.12C162.71,318.28,160.89,294.28,160.67,259.86Z"/><path class="cls-4" d="M244.42,184.07c.3,22.78,1.14,60.37,1.2,63.16-1.36,5.72-11.18,9.53-18,11.7a61.1,61.1,0,0,1-27.37,1.85c-14.9-2.23-21.06-7.7-21.39-14.1-.92-17.5-.07-41.22-1.49-64.38"/><path class="cls-5" d="M178.6,178.91c-2.36,2.89-1,8,2.07,10.13,14,10,31.92,8.32,44.41,6.15,9.13-1.59,17.27-6.33,18.61-8.9,1.8-3.43,0-6.6-2.77-9.36-6.32-6.4-16.54-8.49-24.34-8.33C189,169.17,180.58,176.48,178.6,178.91Z"/><path class="cls-6" d="M187.81,119.9c-9.25,5.42-15.28,16.34-16.94,26.93-2.6,16.51,3.9,31.71,18.56,39.73,9,4.95,23.94,7.85,33.78,4.78,21.59-6.73,31.5-22.28,30-40.7a43.37,43.37,0,0,0-22-33.9C217.75,109.37,200.84,112.28,187.81,119.9Z"/><path class="cls-7" d="M54.57,326c10-7.2,21.22-18.24,26.9-23.86-.28-2.77-1.21-34.68-.54-69.88.61-32,0-78-.37-97.1-.14-7.46-.56-22.92-1.9-28.26l-26.74,23"/><path class="cls-8" d="M2,127c11.48-8,25.31-20.11,28.16-21.57,4.8-.4,15.62-.18,48.54,1.46-7.6,8.92-18.25,14.73-26.74,23"/><path class="cls-9" d="M2,127c17.54,1.47,42.74,1.88,50,2.86.62,9.44.38,66.94.78,113.49.38,43.12,1.41,75.58,1.87,82.64-15.83-.49-23.3-1.52-35.55-2.15-2-.1-14.47-.62-16.17-1,.06-2.7-1.16-38.46-1.37-75.75C1.2,197.16,1.9,141.22,2,127Z"/><path class="cls-10" d="M114.63,53l-.14,0C95.76,56.28,86.72,68.59,80.25,82.77c-2,4.43-4.21,15.92-3.72,24-6.44,4.83-18.78,15.52-26,20,0,0-7.51-22.7-3.27-35S65.12,51.25,88.68,48.49,114.63,53,114.63,53Z"/><path class="cls-11" d="M218.28,130.62c9.29-8.2,20.9-18.83,30.23-27.26C246.67,87.15,240.9,69,233.78,56.22,223,36.94,207.23,20.16,187,11.29c-13.37-5.86-29.66-9.65-51.74-9.87C121.09,1.28,105.83,3,95.8,5.5c-20,5-44.28,18.67-59,34.88L74.08,29.19l78.56,3.68,48.61,49.59Z"/><path class="cls-12" d="M50.53,126.79c-9.49,0-18.93-.1-26.54-.53-10.31-.58-13.82-.32-18.74-.92,0-15.59,6.22-39.78,11.86-54.24,7-17.92,19.34-34.38,36.55-43,13-6.47,25-8.43,39.47-10a132,132,0,0,1,46,3.5c23.69,6.22,42.9,17.84,57.44,37.56s19.72,46.09,21.7,71.38c-13.93-.73-42.17-.9-42.17-.9-.15-18.9-3.42-35.19-14-50.79s-26-22.5-44.63-25.53-39.7,2.33-50.75,14.36S51.3,94,50.57,109.62C50.38,113.71,50.53,126.79,50.53,126.79Z"/></g></g></svg>