<svg xmlns="http://www.w3.org/2000/svg" viewBox="0 0 252.99 285.91"><defs><style>.cls-1{fill:#ffb2ff;}.cls-1,.cls-2,.cls-3{stroke:#ff00cb;stroke-miterlimit:10;}.cls-1,.cls-2,.cls-3,.cls-4,.cls-5{stroke-linecap:round;stroke-width:2.99px;}.cls-2{fill:#ff98ff;}.cls-3{fill:none;}.cls-4{fill:#4a91ff;}.cls-4,.cls-5{stroke:#ff0;stroke-linejoin:round;}.cls-5{fill:#06f;}</style></defs><title>Asset 20</title><g id="Layer_2" data-name="Layer 2"><g id="Layer_1-2" data-name="Layer 1"><path class="cls-1" d="M4.6,199.5C18.43,188.47,39,175,45.12,172c6-1.06,15.51-.26,22-.2,39.1.41,72.4-1,111.45,1.06,9.92.53,20.53.47,33.06,3a57.29,57.29,0,0,1,30.38,17.86c5.25,6.22,9.45,14.55,9.44,28.46,0,11.59-2.71,20.8-6.23,27.25-2.84,2.71-15.54,15.43-28,25.35"/><path class="cls-2" d="M6.35,280.33l155.91,3.6c19.23.45,40,2.78,55-9.19,10.8-8.59,14.2-19.84,12.74-33.56S218,212.5,205.5,206.58a81.72,81.72,0,0,0-36.34-8.06c-34.48.71-55.13-.11-89.61.74-16.53.41-39.77-2.28-56.25-.92-6.11.5-12.86-.31-18.7,1.16-1.45,3.59-.17,15.91,0,22.76Z"/><path class="cls-3" d="M186.22,199.56l27.14-23.36"/><path class="cls-3" d="M203.19,204.27,227,181.81"/><path class="cls-3" d="M217.56,214.38c8.8-8.45,14.77-13.29,23.58-21.74"/><path class="cls-3" d="M226.66,229.26c9.72-8.45,14.07-12,23.08-21.16"/><path class="cls-3" d="M230.58,243.42,251.43,225"/><path class="cls-3" d="M228,260.62c6-6.19,15.3-15.37,20.78-20.63"/><path class="cls-1" d="M4.6,114C18.43,103,39,89.45,45.12,86.47c6-1.06,15.51-.26,22-.19,39.1.4,72.4-1,111.45,1,9.92.53,20.53.47,33.06,3a57.22,57.22,0,0,1,30.38,17.85c5.25,6.23,9.45,14.55,9.44,28.47,0,11.58-2.71,20.8-6.23,27.24-2.84,2.72-15.54,15.44-28,25.35"/><path class="cls-2" d="M6.35,194.81l155.91,3.61c19.23.44,40,2.78,55-9.2,10.8-8.58,14.2-19.84,12.74-33.56S218,127,205.5,121.06A81.85,81.85,0,0,0,169.16,113c-34.48.72-55.13-.11-89.61.75-16.53.41-39.77-2.29-56.25-.93-6.11.5-12.86-.3-18.7,1.16-1.45,3.59-.17,15.91,0,22.76Z"/><path class="cls-3" d="M186.22,114.05l27.14-23.37"/><path class="cls-3" d="M203.19,118.75,227,96.29"/><path class="cls-3" d="M217.56,128.86c8.8-8.44,14.77-13.29,23.58-21.73"/><path class="cls-3" d="M226.66,143.74c9.72-8.44,14.07-12,23.08-21.16"/><path class="cls-3" d="M230.58,157.9l20.85-18.45"/><path class="cls-3" d="M228,175.1c6-6.18,15.3-15.36,20.78-20.63"/><path class="cls-4" d="M210.55,113.05c12.57-11.44,26.84-24.29,33.88-31.18-4.76-5.68-38.51-28.42-52.21-39.1-20.12-15.69-39-29.31-53.07-41.28h0c-12.71,7-25,10.28-37,16.45"/><path class="cls-5" d="M102.12,17.94C117,33.33,191.88,92.3,210.55,113.05c-20.84-.79-181.68-5.35-199.29-5.28a96.7,96.7,0,0,1-9.77-.49C3,102,74,43.39,102.12,17.94Z"/></g></g></svg>