<svg xmlns="http://www.w3.org/2000/svg" viewBox="0 0 253 200.39"><defs><style>.cls-1{fill:#4ab5ff;}.cls-1,.cls-2,.cls-3{stroke:#ffcbff;stroke-miterlimit:10;}.cls-1,.cls-2,.cls-3,.cls-4,.cls-5{stroke-linecap:round;stroke-width:3px;}.cls-2{fill:#0098ff;}.cls-3{fill:none;}.cls-4{fill:#cbffcb;}.cls-4,.cls-5{stroke:#980066;stroke-linejoin:round;}.cls-5{fill:#b4ffb4;}</style></defs><title>Asset 27</title><g id="Layer_2" data-name="Layer 2"><g id="Layer_1-2" data-name="Layer 1"><path class="cls-1" d="M2.31,113.19c14-11.13,34.7-24.76,40.89-27.77,6-1.07,15.66-.26,22.25-.19,39.46.41,73.08-1,112.49,1.06,10,.54,20.71.47,33.36,3a57.88,57.88,0,0,1,30.67,18c5.29,6.28,9.54,14.68,9.53,28.72,0,11.7-2.74,21-6.3,27.51-2.86,2.73-15.67,15.57-28.22,25.58"/><path class="cls-2" d="M4.07,194.78l157.36,3.63c19.42.45,40.35,2.81,55.55-9.28,10.9-8.66,14.33-20,12.86-33.87s-12.19-28.95-24.76-34.93a82.62,82.62,0,0,0-36.68-8.13c-34.8.72-55.65-.11-90.45.75-16.68.42-40.14-2.3-56.77-.93-6.17.5-13-.31-18.87,1.17-1.47,3.62-.17,16.06,0,23Q3.21,165.47,4.07,194.78Z"/><path class="cls-3" d="M185.61,113.26,213,89.67"/><path class="cls-3" d="M202.75,118l24-22.67"/><path class="cls-3" d="M217.25,128.21c8.88-8.53,14.91-13.42,23.79-21.94"/><path class="cls-3" d="M226.44,143.23c9.8-8.53,14.2-12.08,23.29-21.36"/><path class="cls-3" d="M230.4,157.52l21-18.62"/><path class="cls-3" d="M227.77,174.88c6-6.24,15.44-15.51,21-20.82"/><path class="cls-4" d="M75.18,24c9.4-11.26,18.68-18.66,31-21.12,11-2.2,40.73-6.18,51.68,28.54L137.26,55.1,75.18,24"/><path class="cls-4" d="M6.06,59.51c4.13-10.14,14.39-27,37.3-31.54,9.61-1.88,20.45-1.08,27,3.45l6.14,14.66L15.92,67.36Z"/><path class="cls-4" d="M135.91,50.91c8.3-12.19,20.63-19.69,29.91-22.38,14.47-4.2,28.62-2.47,36.87,1.9,23.24,12.32,27.4,34.24,27.59,54.59-2.59,2.9-29.07,25.17-30.93,26.93"/><path class="cls-5" d="M199.62,112.29c1.12-12.3,1.8-22.85.58-36.83-1-11.35-3.66-23.59-13.83-32s-36.2-13.89-51.17,8.51c5.46-22.66-11-39.2-34.21-39.2-26.12,0-37.3,23.29-31.93,38.53-20.78-24.42-52.19-11.18-61,4.44-5,8.83-7,19.14-6.52,33.64C1.73,94,2.06,107.76,3,110.77c2.1.64,94.74-.8,129,.74C152.33,112.42,180.2,111.44,199.62,112.29Z"/></g></g></svg>