<svg xmlns="http://www.w3.org/2000/svg" viewBox="0 0 286.77 340.9"><defs><style>.cls-1{fill:none;}.cls-1,.cls-2,.cls-3,.cls-4,.cls-5{stroke:#60c;stroke-width:3.21px;}.cls-1,.cls-10,.cls-11,.cls-12,.cls-13,.cls-14,.cls-2,.cls-3,.cls-4,.cls-5,.cls-6,.cls-7,.cls-8,.cls-9{stroke-linecap:round;stroke-linejoin:round;}.cls-2{fill:#0080d5;}.cls-3{fill:#0065a7;}.cls-4{fill:#61beff;}.cls-5{fill:#0098ff;}.cls-6{fill:#00cb98;}.cls-6,.cls-7{stroke:#663398;stroke-width:3px;}.cls-7{fill:#09edb4;}.cls-8{fill:#a300a3;}.cls-10,.cls-11,.cls-12,.cls-8,.cls-9{stroke:#0f6;stroke-width:3.19px;}.cls-9{fill:#cc5ccc;}.cls-10{fill:#fff;}.cls-11{fill:#c0c;}.cls-12{fill:#850085;}.cls-13{fill:#e2ff93;}.cls-13,.cls-14{stroke:#30f;stroke-width:3.19px;}.cls-14{fill:#cbff33;}</style></defs><title>Asset 34</title><g id="Layer_2" data-name="Layer 2"><g id="Layer_1-2" data-name="Layer 1"><path class="cls-1" d="M63,222.47c7.9.13,25.19.23,33.08.32.78,1.73-.56,27.46,0,29.28,6.73.06,24.24.7,31,.73"/><path class="cls-2" d="M100.28,308.71c7.48-8,21-22.48,27.38-28.82-.7-7.06.2-18.49-.61-27.09l-26.77,25.49"/><path class="cls-2" d="M69.18,278.29c10.47-10,20.54-19.5,26.92-25.84-.16-6.68.64-21.81,0-29.66L67.81,249.4"/><path class="cls-3" d="M69.84,338.38c10.47-10,21.28-21.21,27.66-27.55-.16-6.68-.14-21.33-.78-29.18l-28.3,26.61"/><path class="cls-4" d="M34.28,249c11.93-10.63,26-24.14,28.74-26.49,10.54.32,19.32.17,33.08.32C88,230.25,78.7,239.17,67.81,249.4"/><path class="cls-4" d="M69.18,278.29c11.56-11,22.48-22.11,26.92-26.22,10.88.26,17.6.48,31,.73-8,7.84-17,16.47-26.77,25.49"/><path class="cls-4" d="M1.88,277.83c11.16-11,23.73-22.08,28-26.17,10.51.26,16.61.47,29.51.73-7.75,7.8-16.42,17-25.86,26"/><path class="cls-5" d="M68.89,307.8c15-.17,13.59.36,31.39.91,0-9.65.41-24.61,0-30.42-6.88,0-24.19.06-31.1,0-.8-1.47-.55-26.69-1.37-28.89-8.58-.09-17.16-.14-25.74-.22-1.71,0-6.12-.58-7.79-.22-.57.14-.37.69-.44,4.33-.14,6.5-.19,17.48-.29,24-12.14,1-22.35.08-31.67.56-.71,9.73.2,22.93,0,31.09,11.15-.05,21.29-.38,32.52-.4.43,9.39.34,21.59.61,29.83,10-.13,23.64.31,34.89-.21C69.32,330.6,68.77,310.45,68.89,307.8Z"/><path class="cls-6" d="M276.15,238.15c.4,29.77,1.49,78.91,1.57,82.57-1.78,7.48-14.62,12.46-23.51,15.3a80,80,0,0,1-35.78,2.41c-19.49-2.91-27.53-10.07-28-18.43-1.2-22.89-.1-53.9-1.94-84.17"/><path class="cls-7" d="M190.09,231.4c-3.08,3.77-1.25,10.41,2.72,13.24,18.31,13.09,41.73,10.88,58.05,8,11.93-2.08,22.58-8.28,24.34-11.63,2.35-4.5-.06-8.64-3.63-12.24-8.26-8.37-21.62-11.11-31.83-10.9C203.72,218.66,192.68,228.22,190.09,231.4Z"/><path class="cls-8" d="M249.37,252.27c14-9.9,27.84-25.12,35.8-32.87-.8-8.73-.77-22.51-1.12-29.14-1.77-33.81-.3-50.24-3.47-82.87L244.77,139"/><path class="cls-9" d="M26.17,133.24c16-11,41.57-30.42,47.9-32.07,16.22-1.54,53.4.61,74.28,1.2,46.21,1.3,86.49,2.36,132.23,5-10.66,12.31-23.92,20.27-35.81,31.63"/><path class="cls-10" d="M94.78,247.22c13-8.73,24.68-15.64,35.27-23.51,0-11.23,5.46-26.16,17.54-30.17"/><path class="cls-11" d="M26.17,133.24c71.88,2.35,145.82,4.83,218.6,5.78,2.5,38.74,2.1,74.52,4.6,113.25-22-.87-43.76-1.09-62.24-2.72-.36-19.69-4.93-34.49-19.26-47.68-6.7-6.17-32.72-17.45-58,2.51-12.92,10.18-14,26.42-15.06,42.84-18.59.05-37.17-1.36-55.77-1.31-2.74,0-7.94,0-10.3-.53C27,237.63,25.74,167.81,26.17,133.24Z"/><path class="cls-12" d="M94.78,247.22c13-8.73,24.68-15.64,35.27-23.51,0-11.23,5.46-26.16,17.54-30.17h0c-10.81-1.53-24.38.3-37.75,10.84C96.92,214.56,95.87,230.8,94.78,247.22Z"/><path class="cls-13" d="M58.4,44c15-16.45,39.61-33.26,59.86-38.3,10.17-2.53,25.65-4.28,40-4.14a149.11,149.11,0,0,1,56.48,12.21c20.5,9,39.11,24.82,50,44.37,7.22,12.95,13,31.22,15.53,45.16-9.46,8.55-28.43,23.9-37.85,32.21"/><path class="cls-14" d="M38.46,75.19C45.55,57,58.07,40.32,75.53,31.62c13.17-6.56,25.38-8.55,40-10.1a134,134,0,0,1,46.66,3.55c24,6.31,43.51,18.1,58.26,38.09s20,46.75,22,72.39c-19.48-1-35.2-2.42-55.61-2.42-31.07,0-55.1-.4-86.15-1.25-15.83-.44-39.45.14-55.27-.75-10.45-.59-14-.33-19-.93C26.4,114.38,32.74,89.85,38.46,75.19Z"/></g></g></svg>